<svg width="21" height="21" viewBox="0 0 21 21" fill="none" xmlns="http://www.w3.org/2000/svg">
<path d="M10.5 8C10.2239 8 10 7.77614 10 7.5V5.5C10 5.22386 9.77614 5 9.5 5H7.5C7.22386 5 7 4.77614 7 4.5V3.5C7 3.22386 7.22386 3 7.5 3H9.5C9.77614 3 10 2.77614 10 2.5V0.5C10 0.223858 10.2239 0 10.5 0H11.5C11.7761 0 12 0.223858 12 0.5V2.5C12 2.77614 12.2239 3 12.5 3H14.5C14.7761 3 15 3.22386 15 3.5V4.5C15 4.77614 14.7761 5 14.5 5H12.5C12.2239 5 12 5.22386 12 5.5V7.5C12 7.77614 11.7761 8 11.5 8H10.5ZM6 21C5.45 21 4.97917 20.8042 4.5875 20.4125C4.19583 20.0208 4 19.55 4 19C4 18.45 4.19583 17.9792 4.5875 17.5875C4.97917 17.1958 5.45 17 6 17C6.55 17 7.02083 17.1958 7.4125 17.5875C7.80417 17.9792 8 18.45 8 19C8 19.55 7.80417 20.0208 7.4125 20.4125C7.02083 20.8042 6.55 21 6 21ZM16 21C15.45 21 14.9792 20.8042 14.5875 20.4125C14.1958 20.0208 14 19.55 14 19C14 18.45 14.1958 17.9792 14.5875 17.5875C14.9792 17.1958 15.45 17 16 17C16.55 17 17.0208 17.1958 17.4125 17.5875C17.8042 17.9792 18 18.45 18 19C18 19.55 17.8042 20.0208 17.4125 20.4125C17.0208 20.8042 16.55 21 16 21ZM0.5 3C0.223858 3 0 2.77614 0 2.5V1.5C0 1.22386 0.223858 1 0.5 1H2.95817C3.15161 1 3.32769 1.11158 3.41029 1.2865L7.38971 9.7135C7.47231 9.88842 7.64839 10 7.84183 10H14.2312C14.4126 10 14.5797 9.90179 14.668 9.74335L18.282 3.25665C18.3703 3.09821 18.5374 3 18.7188 3H19.8518C20.2327 3 20.4737 3.40887 20.2893 3.74212L16.3 10.95C16.1167 11.2833 15.8708 11.5417 15.5625 11.725C15.2542 11.9083 14.9167 12 14.55 12H7.39564C7.21329 12 7.0454 12.0993 6.95753 12.259L6.40753 13.259C6.22425 13.5923 6.46533 14 6.84564 14H17.5C17.7761 14 18 14.2239 18 14.5V15.5C18 15.7761 17.7761 16 17.5 16H6C5.25 16 4.67917 15.675 4.2875 15.025C3.89583 14.375 3.88333 13.7167 4.25 13.05L5.47651 10.8241C5.55406 10.6834 5.55925 10.514 5.49046 10.3688L2.13545 3.28596C2.05274 3.11133 1.87681 3 1.68358 3H0.5Z"/>
</svg>
