<svg width="19" height="18" viewBox="0 0 19 18" fill="none" xmlns="http://www.w3.org/2000/svg">
<path d="M2 18C1.45 18 0.979167 17.8042 0.5875 17.4125C0.195833 17.0208 0 16.55 0 16V2C0 1.45 0.195833 0.979167 0.5875 0.5875C0.979167 0.195833 1.45 0 2 0H16C16.1333 0 16.2583 0.0125 16.375 0.0375V0.0375C16.5475 0.0744537 16.5893 0.285657 16.4646 0.410366L15.1679 1.70711C14.9804 1.89464 14.726 2 14.4608 2H3C2.44772 2 2 2.44772 2 3V15C2 15.5523 2.44772 16 3 16H15C15.5523 16 16 15.5523 16 15V9.76421C16 9.499 16.1054 9.24464 16.2929 9.05711V9.05711C16.9229 8.42714 18 8.87331 18 9.76421V16C18 16.55 17.8042 17.0208 17.4125 17.4125C17.0208 17.8042 16.55 18 16 18H2ZM9.23211 13.2929C8.84158 13.6834 8.20842 13.6834 7.81789 13.2929L3.575 9.05C3.1884 8.6634 3.1884 8.0366 3.575 7.65V7.65C3.9616 7.2634 4.5884 7.2634 4.975 7.65L7.81789 10.4929C8.20842 10.8834 8.84158 10.8834 9.23211 10.4929L17.0124 2.71261C17.3941 2.33088 18.0113 2.32537 18.3998 2.70023V2.70023C18.7982 3.08466 18.8039 3.72112 18.4124 4.11261L9.23211 13.2929Z"/>
</svg>
