<svg width="19" height="21" viewBox="0 0 19 21" fill="none" xmlns="http://www.w3.org/2000/svg">
<path d="M2.52344 20.7601C1.97344 20.7601 1.5026 20.5643 1.11094 20.1726C0.719271 19.7809 0.523438 19.3101 0.523438 18.7601V4.76009C0.523438 4.21009 0.719271 3.73925 1.11094 3.34759C1.5026 2.95592 1.97344 2.76009 2.52344 2.76009H3.52344V0.760086H5.52344V2.76009H13.5234V0.760086H15.5234V2.76009H16.5234C17.0734 2.76009 17.5443 2.95592 17.9359 3.34759C18.3276 3.73925 18.5234 4.21009 18.5234 4.76009V18.7601C18.5234 19.3101 18.3276 19.7809 17.9359 20.1726C17.5443 20.5643 17.0734 20.7601 16.5234 20.7601H2.52344ZM2.52344 18.7601H16.5234V8.76009H2.52344V18.7601ZM2.52344 6.76009H16.5234V4.76009H2.52344V6.76009ZM9.52344 12.7601C9.2401 12.7601 9.0026 12.6643 8.81094 12.4726C8.61927 12.2809 8.52344 12.0434 8.52344 11.7601C8.52344 11.4768 8.61927 11.2393 8.81094 11.0476C9.0026 10.8559 9.2401 10.7601 9.52344 10.7601C9.80677 10.7601 10.0443 10.8559 10.2359 11.0476C10.4276 11.2393 10.5234 11.4768 10.5234 11.7601C10.5234 12.0434 10.4276 12.2809 10.2359 12.4726C10.0443 12.6643 9.80677 12.7601 9.52344 12.7601ZM5.52344 12.7601C5.2401 12.7601 5.0026 12.6643 4.81094 12.4726C4.61927 12.2809 4.52344 12.0434 4.52344 11.7601C4.52344 11.4768 4.61927 11.2393 4.81094 11.0476C5.0026 10.8559 5.2401 10.7601 5.52344 10.7601C5.80677 10.7601 6.04427 10.8559 6.23594 11.0476C6.4276 11.2393 6.52344 11.4768 6.52344 11.7601C6.52344 12.0434 6.4276 12.2809 6.23594 12.4726C6.04427 12.6643 5.80677 12.7601 5.52344 12.7601ZM13.5234 12.7601C13.2401 12.7601 13.0026 12.6643 12.8109 12.4726C12.6193 12.2809 12.5234 12.0434 12.5234 11.7601C12.5234 11.4768 12.6193 11.2393 12.8109 11.0476C13.0026 10.8559 13.2401 10.7601 13.5234 10.7601C13.8068 10.7601 14.0443 10.8559 14.2359 11.0476C14.4276 11.2393 14.5234 11.4768 14.5234 11.7601C14.5234 12.0434 14.4276 12.2809 14.2359 12.4726C14.0443 12.6643 13.8068 12.7601 13.5234 12.7601ZM9.52344 16.7601C9.2401 16.7601 9.0026 16.6643 8.81094 16.4726C8.61927 16.2809 8.52344 16.0434 8.52344 15.7601C8.52344 15.4768 8.61927 15.2393 8.81094 15.0476C9.0026 14.8559 9.2401 14.7601 9.52344 14.7601C9.80677 14.7601 10.0443 14.8559 10.2359 15.0476C10.4276 15.2393 10.5234 15.4768 10.5234 15.7601C10.5234 16.0434 10.4276 16.2809 10.2359 16.4726C10.0443 16.6643 9.80677 16.7601 9.52344 16.7601ZM5.52344 16.7601C5.2401 16.7601 5.0026 16.6643 4.81094 16.4726C4.61927 16.2809 4.52344 16.0434 4.52344 15.7601C4.52344 15.4768 4.61927 15.2393 4.81094 15.0476C5.0026 14.8559 5.2401 14.7601 5.52344 14.7601C5.80677 14.7601 6.04427 14.8559 6.23594 15.0476C6.4276 15.2393 6.52344 15.4768 6.52344 15.7601C6.52344 16.0434 6.4276 16.2809 6.23594 16.4726C6.04427 16.6643 5.80677 16.7601 5.52344 16.7601ZM13.5234 16.7601C13.2401 16.7601 13.0026 16.6643 12.8109 16.4726C12.6193 16.2809 12.5234 16.0434 12.5234 15.7601C12.5234 15.4768 12.6193 15.2393 12.8109 15.0476C13.0026 14.8559 13.2401 14.7601 13.5234 14.7601C13.8068 14.7601 14.0443 14.8559 14.2359 15.0476C14.4276 15.2393 14.5234 15.4768 14.5234 15.7601C14.5234 16.0434 14.4276 16.2809 14.2359 16.4726C14.0443 16.6643 13.8068 16.7601 13.5234 16.7601Z" />
</svg>
