<svg width="16" height="18" viewBox="0 0 16 18" fill="none" xmlns="http://www.w3.org/2000/svg">
<path d="M3 18C2.45 18 1.97917 17.8042 1.5875 17.4125C1.19583 17.0208 1 16.55 1 16V3.5C1 3.22386 0.776142 3 0.5 3V3C0.223858 3 0 2.77614 0 2.5V2C0 1.44772 0.447715 1 1 1H4.5C4.77614 1 5 0.776142 5 0.5V0.5C5 0.223858 5.22386 0 5.5 0H10.5C10.7761 0 11 0.223858 11 0.5V0.5C11 0.776142 11.2239 1 11.5 1H15C15.5523 1 16 1.44772 16 2V2.5C16 2.77614 15.7761 3 15.5 3V3C15.2239 3 15 3.22386 15 3.5V16C15 16.55 14.8042 17.0208 14.4125 17.4125C14.0208 17.8042 13.55 18 13 18H3ZM13 4C13 3.44772 12.5523 3 12 3H4C3.44772 3 3 3.44772 3 4V15C3 15.5523 3.44772 16 4 16H12C12.5523 16 13 15.5523 13 15V4ZM5 13C5 13.5523 5.44772 14 6 14V14C6.55228 14 7 13.5523 7 13V6C7 5.44772 6.55228 5 6 5V5C5.44772 5 5 5.44772 5 6V13ZM9 13C9 13.5523 9.44772 14 10 14V14C10.5523 14 11 13.5523 11 13V6C11 5.44772 10.5523 5 10 5V5C9.44772 5 9 5.44772 9 6V13Z"/>
</svg>
