<svg width="8" height="9" viewBox="0 0 8 9" fill="none" xmlns="http://www.w3.org/2000/svg">
<path d="M3.41667 6.68746L6.35417 3.74996L5.77083 3.16663L3.41667 5.52079L2.22917 4.33329L1.64583 4.91663L3.41667 6.68746ZM1.08333 8.74996C0.854167 8.74996 0.657986 8.66836 0.494792 8.50517C0.331597 8.34197 0.25 8.14579 0.25 7.91663V2.08329C0.25 1.85413 0.331597 1.65795 0.494792 1.49475C0.657986 1.33156 0.854167 1.24996 1.08333 1.24996H2.83333C2.92361 0.999959 3.07465 0.79857 3.28646 0.645793C3.49826 0.493015 3.73611 0.416626 4 0.416626C4.26389 0.416626 4.50174 0.493015 4.71354 0.645793C4.92535 0.79857 5.07639 0.999959 5.16667 1.24996H6.91667C7.14583 1.24996 7.34201 1.33156 7.50521 1.49475C7.6684 1.65795 7.75 1.85413 7.75 2.08329V7.91663C7.75 8.14579 7.6684 8.34197 7.50521 8.50517C7.34201 8.66836 7.14583 8.74996 6.91667 8.74996H1.08333ZM1.08333 7.91663H6.91667V2.08329H1.08333V7.91663ZM4 1.77079C4.09028 1.77079 4.16493 1.74128 4.22396 1.68225C4.28299 1.62322 4.3125 1.54857 4.3125 1.45829C4.3125 1.36801 4.28299 1.29336 4.22396 1.23433C4.16493 1.17531 4.09028 1.14579 4 1.14579C3.90972 1.14579 3.83507 1.17531 3.77604 1.23433C3.71701 1.29336 3.6875 1.36801 3.6875 1.45829C3.6875 1.54857 3.71701 1.62322 3.77604 1.68225C3.83507 1.74128 3.90972 1.77079 4 1.77079Z"/>
</svg>
