<svg width="17" height="17" viewBox="0 0 17 17" fill="none" xmlns="http://www.w3.org/2000/svg">
<path d="M9.04496 11.7027C8.8497 11.8979 8.53311 11.8979 8.33785 11.7027L4.03881 7.40364C3.84597 7.2108 3.84323 6.89899 4.03266 6.70279L4.73796 5.9723C4.93215 5.77118 5.25353 5.76836 5.45122 5.96605L6.83785 7.35268C7.15284 7.66767 7.69141 7.44458 7.69141 6.99913V0.556236C7.69141 0.280094 7.91526 0.0562363 8.19141 0.0562363H9.19141C9.46755 0.0562363 9.69141 0.280094 9.69141 0.556236V6.99913C9.69141 7.44458 10.23 7.66767 10.545 7.35268L11.9316 5.96605C12.1293 5.76836 12.4507 5.77118 12.6449 5.9723L13.3501 6.70279C13.5396 6.89899 13.5368 7.2108 13.344 7.40364L9.04496 11.7027ZM2.69141 16.0562C2.14141 16.0562 1.67057 15.8604 1.27891 15.4687C0.88724 15.0771 0.691406 14.6062 0.691406 14.0562V11.5562C0.691406 11.2801 0.915264 11.0562 1.19141 11.0562H2.19141C2.46755 11.0562 2.69141 11.2801 2.69141 11.5562V13.5562C2.69141 13.8324 2.91526 14.0562 3.19141 14.0562H14.1914C14.4675 14.0562 14.6914 13.8324 14.6914 13.5562V11.5562C14.6914 11.2801 14.9153 11.0562 15.1914 11.0562H16.1914C16.4675 11.0562 16.6914 11.2801 16.6914 11.5562V14.0562C16.6914 14.6062 16.4956 15.0771 16.1039 15.4687C15.7122 15.8604 15.2414 16.0562 14.6914 16.0562H2.69141Z" fill="#FFFFFF"/>
</svg>
