<svg width="10" height="9" viewBox="0 0 10 9" fill="none" xmlns="http://www.w3.org/2000/svg">
<path d="M2.10337 8.08803C2.02195 8.43177 2.39353 8.70459 2.69712 8.52398L4.89774 7.21475C4.96076 7.17725 5.03924 7.17725 5.10226 7.21475L7.30288 8.52398C7.60647 8.70459 7.97804 8.43177 7.89663 8.08803L7.31458 5.63048C7.29728 5.55744 7.32233 5.48086 7.37945 5.43217L9.31648 3.78109C9.58715 3.55037 9.44465 3.10759 9.09022 3.07805L6.53807 2.86537C6.46433 2.85923 6.4 2.81287 6.37085 2.74485L5.36711 0.40278C5.22868 0.0797901 4.77091 0.0794601 4.63202 0.40225L3.62903 2.73326C3.59993 2.80091 3.53601 2.84708 3.46264 2.85346L0.905577 3.07582C0.55194 3.10657 0.410598 3.54846 0.680748 3.77873L2.62054 5.43217C2.67767 5.48086 2.70272 5.55744 2.68542 5.63048L2.10337 8.08803Z" />
</svg>
