<svg width="218" height="305" viewBox="0 0 218 305" fill="none" xmlns="http://www.w3.org/2000/svg">
<g filter="url(#filter0_d_1199_1422)">
<path d="M4 15C4 6.71573 10.7157 0 19 0H140.5L214 72.5V282C214 290.284 207.284 297 199 297H19C10.7157 297 4 290.284 4 282V15Z" fill="#FF0000"/>
<path d="M134 0H140.5L178 37L214 72.5V78H149C140.716 78 134 71.2843 134 63V0Z" fill="#FB8D8D"/>
<path d="M76.425 172.35H78.525V191.025H76.425L74.775 184.95C74.625 184.35 74.45 183.925 74.25 183.675C74.1 183.375 73.775 183.2 73.275 183.15C72.775 183.05 71.925 183 70.725 183H63V200.7C63 202.4 63.075 203.425 63.225 203.775C63.375 204.075 63.85 204.275 64.65 204.375L70.275 204.9V207H48.225V204.9L52.35 204.375C53.15 204.275 53.625 204.075 53.775 203.775C53.925 203.425 54 202.4 54 200.7V162.3C54 160.6 53.925 159.6 53.775 159.3C53.625 158.95 53.15 158.725 52.35 158.625L48.225 158.1V156H83.775V168.9H81.675L79.275 160.575C79.125 159.975 78.95 159.55 78.75 159.3C78.6 159 78.275 158.825 77.775 158.775C77.275 158.675 76.425 158.625 75.225 158.625H63V180.375H70.725C71.925 180.375 72.775 180.35 73.275 180.3C73.775 180.2 74.1 180.025 74.25 179.775C74.45 179.475 74.625 179.025 74.775 178.425L76.425 172.35ZM98.3033 162.525C96.7533 162.525 95.5033 162.05 94.5533 161.1C93.6033 160.1 93.1283 158.825 93.1283 157.275C93.1283 155.725 93.6033 154.475 94.5533 153.525C95.5033 152.575 96.7533 152.1 98.3033 152.1C99.8033 152.1 101.053 152.575 102.053 153.525C103.053 154.475 103.553 155.725 103.553 157.275C103.553 158.825 103.053 160.1 102.053 161.1C101.053 162.05 99.8033 162.525 98.3033 162.525ZM88.2533 171.075V168.975H102.653V200.7C102.653 202.4 102.728 203.425 102.878 203.775C103.028 204.075 103.503 204.275 104.303 204.375L108.428 204.9V207H88.2533V204.9L92.3783 204.375C93.1783 204.275 93.6533 204.075 93.8033 203.775C93.9533 203.425 94.0283 202.4 94.0283 200.7V175.275C94.0283 173.575 93.9533 172.575 93.8033 172.275C93.6533 171.925 93.1783 171.7 92.3783 171.6L88.2533 171.075ZM110.8 153.6V151.5H125.2V200.7C125.2 202.4 125.275 203.425 125.425 203.775C125.575 204.075 126.05 204.275 126.85 204.375L130.975 204.9V207H110.8V204.9L114.925 204.375C115.725 204.275 116.2 204.075 116.35 203.775C116.5 203.425 116.575 202.4 116.575 200.7V157.8C116.575 156.1 116.5 155.1 116.35 154.8C116.2 154.45 115.725 154.225 114.925 154.125L110.8 153.6ZM167.708 198.075C166.808 201.575 165.133 204.075 162.683 205.575C160.233 207.025 157.383 207.75 154.133 207.75C148.133 207.75 143.633 206.025 140.633 202.575C137.633 199.075 136.133 194.45 136.133 188.7V187.2C136.133 181.45 137.533 176.85 140.333 173.4C143.183 169.95 147.283 168.225 152.633 168.225C155.633 168.225 158.283 168.825 160.583 170.025C162.933 171.175 164.758 172.85 166.058 175.05C167.408 177.25 168.083 179.925 168.083 183.075C168.083 183.825 168.033 184.625 167.933 185.475C167.883 186.325 167.758 187.175 167.558 188.025H145.358V190.2C145.358 195.5 146.108 199.325 147.608 201.675C149.108 203.975 151.533 205.125 154.883 205.125C157.033 205.125 158.858 204.5 160.358 203.25C161.858 201.95 162.708 199.775 162.908 196.725L167.708 198.075ZM152.633 170.85C150.183 170.85 148.358 171.975 147.158 174.225C145.958 176.475 145.358 180.2 145.358 185.4H158.933C159.133 184.4 159.258 183.475 159.308 182.625C159.408 181.725 159.458 180.9 159.458 180.15C159.458 176.95 158.833 174.6 157.583 173.1C156.333 171.6 154.683 170.85 152.633 170.85Z" fill="white"/>
</g>
<defs>
<filter id="filter0_d_1199_1422" x="0" y="0" width="218" height="305" filterUnits="userSpaceOnUse" color-interpolation-filters="sRGB">
<feFlood flood-opacity="0" result="BackgroundImageFix"/>
<feColorMatrix in="SourceAlpha" type="matrix" values="0 0 0 0 0 0 0 0 0 0 0 0 0 0 0 0 0 0 127 0" result="hardAlpha"/>
<feOffset dy="4"/>
<feGaussianBlur stdDeviation="2"/>
<feComposite in2="hardAlpha" operator="out"/>
<feColorMatrix type="matrix" values="0 0 0 0 0 0 0 0 0 0 0 0 0 0 0 0 0 0 0.25 0"/>
<feBlend mode="normal" in2="BackgroundImageFix" result="effect1_dropShadow_1199_1422"/>
<feBlend mode="normal" in="SourceGraphic" in2="effect1_dropShadow_1199_1422" result="shape"/>
</filter>
</defs>
</svg>
