<svg width="16" height="17" viewBox="0 0 16 17" fill="none" xmlns="http://www.w3.org/2000/svg">
<path d="M1.99846 16.3203C1.44846 16.3203 0.977626 16.1245 0.585959 15.7328C0.194292 15.3411 -0.00154114 14.8703 -0.00154114 14.3203C-0.00154114 13.7703 0.194292 13.2995 0.585959 12.9078C0.977626 12.5161 1.44846 12.3203 1.99846 12.3203C2.54846 12.3203 3.01929 12.5161 3.41096 12.9078C3.80263 13.2995 3.99846 13.7703 3.99846 14.3203C3.99846 14.8703 3.80263 15.3411 3.41096 15.7328C3.01929 16.1245 2.54846 16.3203 1.99846 16.3203ZM7.99846 16.3203C7.44846 16.3203 6.97763 16.1245 6.58596 15.7328C6.19429 15.3411 5.99846 14.8703 5.99846 14.3203C5.99846 13.7703 6.19429 13.2995 6.58596 12.9078C6.97763 12.5161 7.44846 12.3203 7.99846 12.3203C8.54846 12.3203 9.01929 12.5161 9.41096 12.9078C9.80263 13.2995 9.99846 13.7703 9.99846 14.3203C9.99846 14.8703 9.80263 15.3411 9.41096 15.7328C9.01929 16.1245 8.54846 16.3203 7.99846 16.3203ZM13.9985 16.3203C13.4485 16.3203 12.9776 16.1245 12.586 15.7328C12.1943 15.3411 11.9985 14.8703 11.9985 14.3203C11.9985 13.7703 12.1943 13.2995 12.586 12.9078C12.9776 12.5161 13.4485 12.3203 13.9985 12.3203C14.5485 12.3203 15.0193 12.5161 15.411 12.9078C15.8026 13.2995 15.9985 13.7703 15.9985 14.3203C15.9985 14.8703 15.8026 15.3411 15.411 15.7328C15.0193 16.1245 14.5485 16.3203 13.9985 16.3203ZM1.99846 10.3203C1.44846 10.3203 0.977626 10.1245 0.585959 9.73281C0.194292 9.34115 -0.00154114 8.87031 -0.00154114 8.32031C-0.00154114 7.77031 0.194292 7.29948 0.585959 6.90781C0.977626 6.51615 1.44846 6.32031 1.99846 6.32031C2.54846 6.32031 3.01929 6.51615 3.41096 6.90781C3.80263 7.29948 3.99846 7.77031 3.99846 8.32031C3.99846 8.87031 3.80263 9.34115 3.41096 9.73281C3.01929 10.1245 2.54846 10.3203 1.99846 10.3203ZM7.99846 10.3203C7.44846 10.3203 6.97763 10.1245 6.58596 9.73281C6.19429 9.34115 5.99846 8.87031 5.99846 8.32031C5.99846 7.77031 6.19429 7.29948 6.58596 6.90781C6.97763 6.51615 7.44846 6.32031 7.99846 6.32031C8.54846 6.32031 9.01929 6.51615 9.41096 6.90781C9.80263 7.29948 9.99846 7.77031 9.99846 8.32031C9.99846 8.87031 9.80263 9.34115 9.41096 9.73281C9.01929 10.1245 8.54846 10.3203 7.99846 10.3203ZM13.9985 10.3203C13.4485 10.3203 12.9776 10.1245 12.586 9.73281C12.1943 9.34115 11.9985 8.87031 11.9985 8.32031C11.9985 7.77031 12.1943 7.29948 12.586 6.90781C12.9776 6.51615 13.4485 6.32031 13.9985 6.32031C14.5485 6.32031 15.0193 6.51615 15.411 6.90781C15.8026 7.29948 15.9985 7.77031 15.9985 8.32031C15.9985 8.87031 15.8026 9.34115 15.411 9.73281C15.0193 10.1245 14.5485 10.3203 13.9985 10.3203ZM1.99846 4.32031C1.44846 4.32031 0.977626 4.12448 0.585959 3.73281C0.194292 3.34115 -0.00154114 2.87031 -0.00154114 2.32031C-0.00154114 1.77031 0.194292 1.29948 0.585959 0.907813C0.977626 0.516146 1.44846 0.320312 1.99846 0.320312C2.54846 0.320312 3.01929 0.516146 3.41096 0.907813C3.80263 1.29948 3.99846 1.77031 3.99846 2.32031C3.99846 2.87031 3.80263 3.34115 3.41096 3.73281C3.01929 4.12448 2.54846 4.32031 1.99846 4.32031ZM7.99846 4.32031C7.44846 4.32031 6.97763 4.12448 6.58596 3.73281C6.19429 3.34115 5.99846 2.87031 5.99846 2.32031C5.99846 1.77031 6.19429 1.29948 6.58596 0.907813C6.97763 0.516146 7.44846 0.320312 7.99846 0.320312C8.54846 0.320312 9.01929 0.516146 9.41096 0.907813C9.80263 1.29948 9.99846 1.77031 9.99846 2.32031C9.99846 2.87031 9.80263 3.34115 9.41096 3.73281C9.01929 4.12448 8.54846 4.32031 7.99846 4.32031ZM13.9985 4.32031C13.4485 4.32031 12.9776 4.12448 12.586 3.73281C12.1943 3.34115 11.9985 2.87031 11.9985 2.32031C11.9985 1.77031 12.1943 1.29948 12.586 0.907813C12.9776 0.516146 13.4485 0.320312 13.9985 0.320312C14.5485 0.320312 15.0193 0.516146 15.411 0.907813C15.8026 1.29948 15.9985 1.77031 15.9985 2.32031C15.9985 2.87031 15.8026 3.34115 15.411 3.73281C15.0193 4.12448 14.5485 4.32031 13.9985 4.32031Z"/>
</svg>
