<svg width="145" height="145" viewBox="0 0 145 145" fill="none" xmlns="http://www.w3.org/2000/svg">
<circle cx="72.5" cy="72.5" r="72.5" fill="url(#paint0_linear_0_1)"/>
<path d="M58.482 29.2C58.482 30.88 58.47 32.2 58.446 33.16H60.282L60.462 31.918C61.074 31.918 61.668 32.068 62.244 32.368V35.932L61.056 36.022C60.768 35.59 60.6 35.212 60.552 34.888H58.428L58.392 38.272L60.174 38.47C60.174 38.938 60.036 39.448 59.76 40H54.846L54.684 39.01C55.464 38.71 55.968 38.536 56.196 38.488C56.184 37.78 56.172 36.784 56.16 35.5C56.112 32.62 56.07 30.442 56.034 28.966L54.54 28.498L54.684 27.4H63.522C63.558 27.724 63.576 28.138 63.576 28.642C63.576 29.134 63.486 29.812 63.306 30.676C63.042 30.76 62.64 30.802 62.1 30.802L61.704 30.784H61.614L61.2 29.2H58.482ZM68.304 30.784C68.532 30.784 68.676 30.79 68.736 30.802C68.736 31.39 68.634 31.936 68.43 32.44C68.382 35.032 68.352 36.976 68.34 38.272L69.744 38.434C69.744 38.926 69.606 39.448 69.33 40H64.848L64.686 39.01C65.43 38.734 65.97 38.554 66.306 38.47L66.108 32.638C65.4 32.566 64.878 32.476 64.542 32.368C64.542 32.068 64.584 31.636 64.668 31.072C65.376 30.88 66.588 30.784 68.304 30.784ZM68.304 27.382C68.412 27.922 68.466 28.336 68.466 28.624C68.466 28.9 68.442 29.212 68.394 29.56C67.914 29.668 67.506 29.722 67.17 29.722C66.846 29.722 66.45 29.704 65.982 29.668C65.874 29.128 65.82 28.72 65.82 28.444C65.82 28.156 65.844 27.838 65.892 27.49C66.372 27.382 66.774 27.328 67.098 27.328C67.434 27.328 67.836 27.346 68.304 27.382ZM76.0911 30.64C77.2911 30.64 78.1611 30.934 78.7011 31.522C79.2411 32.11 79.5111 32.932 79.5111 33.988C79.5111 35.044 79.4511 36.472 79.3311 38.272L80.7531 38.434C80.7531 38.926 80.6151 39.448 80.3391 40H75.8571L75.6951 39.01C76.2591 38.782 76.7811 38.602 77.2611 38.47C77.2251 37.09 77.1891 35.932 77.1531 34.996C77.1171 34.048 77.0271 33.406 76.8831 33.07C76.7391 32.734 76.4211 32.566 75.9291 32.566C75.1851 32.566 74.5191 32.698 73.9311 32.962C73.9191 33.478 73.8831 34.324 73.8231 35.5C73.7751 36.664 73.7451 37.588 73.7331 38.272L75.1371 38.434C75.1371 38.926 74.9991 39.448 74.7231 40H70.2411L70.0791 39.01C70.6791 38.782 71.2191 38.602 71.6991 38.47C71.6871 37.75 71.6451 36.754 71.5731 35.482C71.5131 34.21 71.4771 33.268 71.4651 32.656C71.0211 32.608 70.5471 32.518 70.0431 32.386L70.1331 31.09C70.9731 30.862 71.9211 30.748 72.9771 30.748C73.1091 30.832 73.2891 31.09 73.5171 31.522C73.9251 31.318 74.4231 31.12 75.0111 30.928C75.5991 30.736 75.9591 30.64 76.0911 30.64ZM89.2529 26.626C89.4809 26.626 89.6249 26.632 89.6849 26.644C89.6849 27.268 89.6069 27.814 89.4509 28.282C89.4029 29.578 89.3429 31.426 89.2709 33.826C89.2109 36.214 89.1689 37.792 89.1449 38.56C89.8529 38.656 90.3809 38.758 90.7289 38.866V39.73C89.9729 40.054 88.9349 40.216 87.6149 40.216C87.5429 40.084 87.4469 39.76 87.3269 39.244C86.2229 39.844 85.4249 40.168 84.9329 40.216C83.7089 40.216 82.7909 39.772 82.1789 38.884C81.5789 37.996 81.2789 36.856 81.2789 35.464C81.2789 34.06 81.5849 32.884 82.1969 31.936C82.8089 30.976 83.7149 30.496 84.9149 30.496C85.5749 30.496 86.2709 30.7 87.0029 31.108L86.9129 28.48C86.3489 28.42 85.8749 28.33 85.4909 28.21C85.4909 27.91 85.5329 27.478 85.6169 26.914C86.3249 26.722 87.5369 26.626 89.2529 26.626ZM85.2029 32.26C84.1709 32.26 83.6549 33.256 83.6549 35.248C83.6549 36.388 83.8589 37.246 84.2669 37.822C84.4949 38.158 84.7889 38.326 85.1489 38.326C85.7609 38.326 86.4509 38.116 87.2189 37.696L87.0569 33.052C86.3729 32.524 85.7549 32.26 85.2029 32.26Z" fill="#595959"/>
<path d="M28.8201 102.505C28.8081 102.505 28.8081 102.517 28.8201 102.541C28.8442 102.565 28.8682 102.619 28.8923 102.703C28.9284 102.775 28.9645 102.865 29.0006 102.973C29.0728 103.165 29.1212 103.483 29.1457 103.927C28.5338 104.024 28.1319 104.084 27.9399 104.108L27.8604 113.378L29.1026 113.539C29.1031 114.031 28.9657 114.553 28.6903 115.106L24.3163 115.11L24.1532 114.121C24.8249 113.844 25.3287 113.669 25.6646 113.597C25.6518 112.889 25.6327 111.893 25.6073 110.609C25.568 107.729 25.5295 105.551 25.4919 104.075L23.9973 103.609L24.1401 102.511L28.8201 102.505ZM42.6258 104.092L42.5842 115.09L40.2802 115.092L34.3293 105.415C34.2853 108.931 34.2583 111.583 34.2483 113.371L35.4905 113.532C35.491 114.024 35.3536 114.546 35.0782 115.098L30.7042 115.103L30.5411 114.113C31.2128 113.837 31.7166 113.662 32.0525 113.59C32.0525 113.554 31.9949 110.38 31.8798 104.068L30.3852 103.602L30.528 102.503L35.208 102.498L40.4566 111.888L40.1778 104.059L38.6832 103.592L38.826 102.494L43.506 102.489C43.494 102.489 43.494 102.501 43.506 102.525C43.5301 102.549 43.5541 102.603 43.5782 102.687C43.6143 102.759 43.6504 102.849 43.6865 102.957C43.7587 103.148 43.8071 103.466 43.8316 103.91C43.2197 104.007 42.8178 104.068 42.6258 104.092ZM49.2811 113.354C50.6731 113.353 51.3684 112.758 51.3671 111.57C51.3665 111.066 51.102 110.64 50.5736 110.293C50.1893 110.029 49.661 109.748 48.9887 109.449C48.3283 109.137 47.83 108.892 47.4938 108.712C47.1696 108.533 46.7913 108.281 46.359 107.958C45.5303 107.322 45.1154 106.531 45.1143 105.583C45.1132 104.635 45.4783 103.849 46.2096 103.224C46.9529 102.587 47.9545 102.268 49.2145 102.266C50.4745 102.265 51.819 102.665 53.2479 103.468C53.2489 104.332 53.1599 105.268 52.9811 106.276C52.5972 106.396 52.0273 106.457 51.2713 106.458L50.7469 104.317C50.3027 104.185 49.8166 104.12 49.2886 104.12C48.7606 104.121 48.3528 104.235 48.065 104.464C47.7773 104.692 47.6337 105.034 47.6342 105.49C47.6347 105.934 47.8571 106.336 48.3016 106.695C48.7579 107.043 49.3043 107.366 49.9407 107.665C50.577 107.953 51.0152 108.156 51.2553 108.276C51.4955 108.396 51.8017 108.575 52.174 108.815C52.5462 109.055 52.8285 109.282 53.0207 109.498C53.5134 110.073 53.7601 110.715 53.7609 111.423C53.7623 112.671 53.3494 113.632 52.5222 114.305C51.6949 114.978 50.6153 115.315 49.2833 115.316C48.5753 115.317 47.7952 115.198 46.9429 114.959C46.1026 114.708 45.3883 114.391 44.7998 114.007C44.823 113.275 44.9179 112.285 45.0845 111.037C45.5644 110.94 46.1403 110.892 46.8123 110.891L47.1927 113.051C47.853 113.254 48.5491 113.355 49.2811 113.354ZM54.9469 105.752C54.7539 104.924 54.6572 104.27 54.6566 103.79C54.6561 103.31 54.6736 102.872 54.7091 102.476L65.1671 102.464C65.2158 103.04 65.2402 103.43 65.2405 103.634C65.241 104.15 65.1458 104.852 64.9548 105.741C64.607 105.837 64.037 105.886 63.245 105.886L62.829 104.069L61.299 104.071C61.2875 104.527 61.237 107.617 61.1474 113.341L62.4436 113.501C62.4442 114.053 62.3068 114.576 62.0314 115.068L57.6574 115.073L57.4943 114.083C58.3219 113.77 58.8437 113.595 59.0597 113.559C59.0596 113.511 58.9841 110.355 58.833 104.091L57.051 104.093L56.657 105.858C55.949 105.859 55.3789 105.823 54.9469 105.752ZM73.4635 102.653L73.4817 102.833C73.4823 103.325 73.4048 103.745 73.2492 104.093C73.0933 104.213 72.8474 104.31 72.5115 104.382L75.5275 113.271L77.2378 113.485C77.2383 113.977 77.1009 114.499 76.8256 115.051L72.4516 115.056L72.2884 114.066C72.7922 113.874 73.1221 113.747 73.278 113.687L72.5557 111.654L68.5057 111.659C68.1469 112.727 67.9555 113.285 67.9316 113.333L69.1738 113.494C69.1741 113.746 69.1264 114.04 69.0308 114.376C68.9351 114.7 68.8454 114.928 68.7616 115.06L64.3876 115.065L64.2244 114.075C64.7642 113.847 65.25 113.678 65.6819 113.57L68.6954 104.314C67.8913 104.195 67.2851 104.04 66.8769 103.848C66.8765 103.5 66.9301 103.194 67.0378 102.93C67.2897 102.846 67.8776 102.749 68.8015 102.64C69.7374 102.519 70.6253 102.458 71.4653 102.457C72.3173 102.456 72.9834 102.521 73.4635 102.653ZM71.1471 107.606L70.6224 105.23L70.4424 105.23L69.8693 107.715L69.0258 109.966L72.0318 109.963L71.1471 107.606ZM85.8445 111.765C86.1324 111.717 86.3484 111.692 86.4924 111.692C86.6484 111.692 86.9784 111.734 87.4825 111.817C87.5307 111.913 87.597 112.219 87.6816 112.735C87.7782 113.251 87.8266 113.671 87.827 113.995C87.8274 114.307 87.7918 114.655 87.7202 115.039L78.9902 115.049L78.8271 114.059C79.4148 113.818 79.9186 113.644 80.3385 113.535C80.3384 113.499 80.2809 110.325 80.1657 104.013L78.6712 103.547L78.8139 102.449L83.4939 102.444C83.4819 102.444 83.482 102.456 83.494 102.48C83.518 102.504 83.5421 102.558 83.5662 102.641C83.6022 102.713 83.6384 102.803 83.6745 102.911C83.7467 103.103 83.795 103.421 83.8196 103.865C83.2077 103.962 82.8057 104.022 82.6138 104.047C82.5704 108.187 82.5439 111.277 82.5342 113.317L85.4502 113.313L85.8445 111.765ZM96.4968 111.753C96.7848 111.705 97.0007 111.68 97.1447 111.68C97.3007 111.68 97.6308 111.722 98.1349 111.805C98.183 111.901 98.2493 112.207 98.3339 112.723C98.4305 113.239 98.479 113.659 98.4793 113.983C98.4797 114.295 98.4441 114.643 98.3725 115.027L89.6425 115.037L89.4794 114.047C90.0671 113.806 90.5709 113.632 90.9908 113.523C90.9908 113.487 90.9332 110.313 90.8181 104.001L89.3235 103.535L89.4663 102.437L94.1463 102.432C94.1343 102.432 94.1343 102.444 94.1463 102.468C94.1703 102.491 94.1944 102.545 94.2185 102.629C94.2546 102.701 94.2907 102.791 94.3268 102.899C94.399 103.091 94.4474 103.409 94.4719 103.853C93.86 103.95 93.4581 104.01 93.2661 104.035C93.2228 108.175 93.1963 111.265 93.1866 113.305L96.1026 113.301L96.4968 111.753ZM103.217 104.221C103.218 105.589 103.208 106.765 103.185 107.749L105.021 107.747L105.199 106.505C105.811 106.504 106.405 106.654 106.982 106.953L106.986 110.553L105.798 110.608C105.509 110.177 105.341 109.799 105.293 109.475L103.169 109.477C103.146 111.157 103.136 112.423 103.137 113.275L106.215 113.272L106.609 111.705C107.353 111.705 107.917 111.74 108.301 111.812C108.482 112.495 108.573 113.119 108.573 113.683C108.574 114.235 108.556 114.679 108.521 115.015L99.5929 115.025L99.4297 114.036C100.209 113.735 100.713 113.56 100.941 113.512C100.928 112.804 100.915 111.808 100.902 110.524C100.851 107.644 100.806 105.466 100.768 103.99L99.2739 103.524L99.4166 102.426L108.255 102.416C108.291 102.74 108.309 103.148 108.31 103.64C108.311 104.12 108.221 104.792 108.042 105.656C107.67 105.776 107.106 105.837 106.35 105.838L105.935 104.218L103.217 104.221ZM114.496 102.409C116.596 102.406 117.988 102.705 118.673 103.304C119.297 103.843 119.61 104.677 119.612 105.805C119.614 107.557 118.703 108.752 116.88 109.39L119.476 113.293L121.024 113.453C121.025 113.969 120.887 114.485 120.612 115.002L118.002 115.005L114.468 109.627L113.892 109.627L113.842 113.299L115.156 113.442C115.157 113.934 115.019 114.456 114.744 115.008L110.298 115.013L110.135 114.023C110.854 113.735 111.358 113.56 111.646 113.5C111.621 112.024 111.589 110.242 111.55 108.154C111.512 106.066 111.486 104.668 111.473 103.96L109.979 103.512C109.991 103.236 110.044 102.87 110.14 102.413L114.496 102.409ZM115.92 104.333C115.548 104.249 115.05 104.208 114.426 104.209L113.922 104.209C113.9 105.865 113.889 107.107 113.89 107.935L114.772 107.916C115.48 107.903 116.038 107.759 116.445 107.482C116.865 107.194 117.074 106.642 117.074 105.826C117.073 105.01 116.688 104.512 115.92 104.333Z" fill="#595959"/>
<path d="M73 73C70.8 73 68.9167 72.2167 67.35 70.65C65.7833 69.0833 65 67.2 65 65C65 62.8 65.7833 60.9167 67.35 59.35C68.9167 57.7833 70.8 57 73 57C75.2 57 77.0833 57.7833 78.65 59.35C80.2167 60.9167 81 62.8 81 65C81 67.2 80.2167 69.0833 78.65 70.65C77.0833 72.2167 75.2 73 73 73ZM57 89V83.4C57 82.2667 57.2917 81.225 57.875 80.275C58.4583 79.325 59.2333 78.6 60.2 78.1C62.2667 77.0667 64.3667 76.2917 66.5 75.775C68.6333 75.2583 70.8 75 73 75C75.2 75 77.3667 75.2583 79.5 75.775C81.6333 76.2917 83.7333 77.0667 85.8 78.1C86.7667 78.6 87.5417 79.325 88.125 80.275C88.7083 81.225 89 82.2667 89 83.4V89H57ZM61 85H85V83.4C85 83.0333 84.9083 82.7 84.725 82.4C84.5417 82.1 84.3 81.8667 84 81.7C82.2 80.8 80.3833 80.125 78.55 79.675C76.7167 79.225 74.8667 79 73 79C71.1333 79 69.2833 79.225 67.45 79.675C65.6167 80.125 63.8 80.8 62 81.7C61.7 81.8667 61.4583 82.1 61.275 82.4C61.0917 82.7 61 83.0333 61 83.4V85ZM73 69C74.1 69 75.0417 68.6083 75.825 67.825C76.6083 67.0417 77 66.1 77 65C77 63.9 76.6083 62.9583 75.825 62.175C75.0417 61.3917 74.1 61 73 61C71.9 61 70.9583 61.3917 70.175 62.175C69.3917 62.9583 69 63.9 69 65C69 66.1 69.3917 67.0417 70.175 67.825C70.9583 68.6083 71.9 69 73 69Z" fill="#595959"/>
<defs>
<linearGradient id="paint0_linear_0_1" x1="0" y1="79" x2="145" y2="79" gradientUnits="userSpaceOnUse">
<stop stop-color="#94802D"/>
<stop offset="0.506512" stop-color="#FAD94C"/>
<stop offset="1" stop-color="#94802D"/>
</linearGradient>
</defs>
</svg>
