<svg width="8" height="9" viewBox="0 0 8 9" fill="none" xmlns="http://www.w3.org/2000/svg">
<path d="M1.08333 8.75002C0.854167 8.75002 0.657986 8.66842 0.494792 8.50523C0.331597 8.34203 0.25 8.14585 0.25 7.91669V2.08335C0.25 1.85419 0.331597 1.65801 0.494792 1.49481C0.657986 1.33162 0.854167 1.25002 1.08333 1.25002H2.83333C2.92361 1.00002 3.07465 0.798631 3.28646 0.645854C3.49826 0.493076 3.73611 0.416687 4 0.416687C4.26389 0.416687 4.50174 0.493076 4.71354 0.645854C4.92535 0.798631 5.07639 1.00002 5.16667 1.25002H6.91667C7.14583 1.25002 7.34201 1.33162 7.50521 1.49481C7.6684 1.65801 7.75 1.85419 7.75 2.08335V7.91669C7.75 8.14585 7.6684 8.34203 7.50521 8.50523C7.34201 8.66842 7.14583 8.75002 6.91667 8.75002H1.08333ZM1.08333 7.91669H6.91667V2.08335H1.08333V7.91669ZM1.91667 7.08335H4.83333V6.25002H1.91667V7.08335ZM1.91667 5.41669H6.08333V4.58335H1.91667V5.41669ZM1.91667 3.75002H6.08333V2.91669H1.91667V3.75002ZM4 1.77085C4.09028 1.77085 4.16493 1.74134 4.22396 1.68231C4.28299 1.62328 4.3125 1.54863 4.3125 1.45835C4.3125 1.36808 4.28299 1.29342 4.22396 1.2344C4.16493 1.17537 4.09028 1.14585 4 1.14585C3.90972 1.14585 3.83507 1.17537 3.77604 1.2344C3.71701 1.29342 3.6875 1.36808 3.6875 1.45835C3.6875 1.54863 3.71701 1.62328 3.77604 1.68231C3.83507 1.74134 3.90972 1.77085 4 1.77085Z"/>
</svg>
