<svg width="19" height="17" viewBox="0 0 19 17" fill="none" xmlns="http://www.w3.org/2000/svg">
<path d="M6.60938 15.3261V13.3261H18.6094V15.3261H6.60938ZM6.60938 9.32614V7.32614H18.6094V9.32614H6.60938ZM6.60938 3.32614V1.32614H18.6094V3.32614H6.60938ZM2.60938 16.3261C2.05937 16.3261 1.58854 16.1303 1.19688 15.7386C0.805208 15.347 0.609375 14.8761 0.609375 14.3261C0.609375 13.7761 0.805208 13.3053 1.19688 12.9136C1.58854 12.522 2.05937 12.3261 2.60938 12.3261C3.15938 12.3261 3.63021 12.522 4.02188 12.9136C4.41354 13.3053 4.60938 13.7761 4.60938 14.3261C4.60938 14.8761 4.41354 15.347 4.02188 15.7386C3.63021 16.1303 3.15938 16.3261 2.60938 16.3261ZM2.60938 10.3261C2.05937 10.3261 1.58854 10.1303 1.19688 9.73864C0.805208 9.34698 0.609375 8.87614 0.609375 8.32614C0.609375 7.77614 0.805208 7.30531 1.19688 6.91364C1.58854 6.52197 2.05937 6.32614 2.60938 6.32614C3.15938 6.32614 3.63021 6.52197 4.02188 6.91364C4.41354 7.30531 4.60938 7.77614 4.60938 8.32614C4.60938 8.87614 4.41354 9.34698 4.02188 9.73864C3.63021 10.1303 3.15938 10.3261 2.60938 10.3261ZM2.60938 4.32614C2.05937 4.32614 1.58854 4.13031 1.19688 3.73864C0.805208 3.34697 0.609375 2.87614 0.609375 2.32614C0.609375 1.77614 0.805208 1.30531 1.19688 0.913641C1.58854 0.521975 2.05937 0.326141 2.60938 0.326141C3.15938 0.326141 3.63021 0.521975 4.02188 0.913641C4.41354 1.30531 4.60938 1.77614 4.60938 2.32614C4.60938 2.87614 4.41354 3.34697 4.02188 3.73864C3.63021 4.13031 3.15938 4.32614 2.60938 4.32614Z" />
</svg>
