<svg width="614" height="541" viewBox="0 0 614 541" fill="none" xmlns="http://www.w3.org/2000/svg">
<rect x="57" y="29" width="512" height="512" rx="30" fill="white"/>
<path d="M153.576 434.636V471H146.935L131.115 448.113H130.849V471H123.161V434.636H129.908L145.604 457.506H145.923V434.636H153.576ZM172.108 471.533C169.35 471.533 166.965 470.947 164.953 469.775C162.952 468.591 161.408 466.946 160.319 464.839C159.23 462.72 158.685 460.264 158.685 457.47C158.685 454.653 159.23 452.191 160.319 450.084C161.408 447.965 162.952 446.32 164.953 445.148C166.965 443.964 169.35 443.372 172.108 443.372C174.867 443.372 177.246 443.964 179.246 445.148C181.259 446.32 182.809 447.965 183.898 450.084C184.987 452.191 185.532 454.653 185.532 457.47C185.532 460.264 184.987 462.72 183.898 464.839C182.809 466.946 181.259 468.591 179.246 469.775C177.246 470.947 174.867 471.533 172.108 471.533ZM172.144 465.673C173.399 465.673 174.446 465.318 175.287 464.608C176.127 463.886 176.76 462.903 177.187 461.661C177.625 460.418 177.844 459.003 177.844 457.417C177.844 455.831 177.625 454.416 177.187 453.173C176.76 451.93 176.127 450.948 175.287 450.226C174.446 449.504 173.399 449.143 172.144 449.143C170.877 449.143 169.812 449.504 168.948 450.226C168.096 450.948 167.451 451.93 167.013 453.173C166.586 454.416 166.373 455.831 166.373 457.417C166.373 459.003 166.586 460.418 167.013 461.661C167.451 462.903 168.096 463.886 168.948 464.608C169.812 465.318 170.877 465.673 172.144 465.673ZM209.853 434.636V471H202.164V434.636H209.853ZM216.036 471V443.727H223.245V448.539H223.564C224.133 446.941 225.08 445.68 226.405 444.757C227.731 443.834 229.317 443.372 231.164 443.372C233.034 443.372 234.626 443.84 235.94 444.775C237.254 445.698 238.13 446.953 238.568 448.539H238.852C239.408 446.977 240.415 445.728 241.871 444.793C243.338 443.846 245.073 443.372 247.073 443.372C249.618 443.372 251.684 444.183 253.27 445.805C254.868 447.415 255.667 449.699 255.667 452.658V471H248.121V454.15C248.121 452.635 247.718 451.498 246.913 450.741C246.108 449.983 245.102 449.604 243.895 449.604C242.522 449.604 241.45 450.042 240.681 450.918C239.912 451.782 239.527 452.925 239.527 454.345V471H232.194V453.99C232.194 452.652 231.809 451.587 231.04 450.794C230.282 450.001 229.282 449.604 228.039 449.604C227.198 449.604 226.441 449.817 225.766 450.244C225.103 450.658 224.577 451.244 224.186 452.001C223.795 452.747 223.6 453.623 223.6 454.629V471H216.036ZM269.419 471.515C267.678 471.515 266.128 471.213 264.767 470.609C263.405 469.994 262.328 469.088 261.535 467.893C260.754 466.685 260.363 465.182 260.363 463.383C260.363 461.868 260.641 460.595 261.198 459.565C261.754 458.536 262.512 457.707 263.47 457.08C264.429 456.452 265.518 455.979 266.737 455.659C267.968 455.339 269.259 455.115 270.608 454.984C272.194 454.819 273.473 454.665 274.443 454.523C275.414 454.369 276.118 454.144 276.556 453.848C276.994 453.552 277.213 453.114 277.213 452.534V452.428C277.213 451.303 276.858 450.433 276.148 449.817C275.45 449.202 274.455 448.894 273.165 448.894C271.804 448.894 270.721 449.196 269.916 449.8C269.111 450.392 268.578 451.137 268.318 452.037L261.322 451.469C261.677 449.812 262.375 448.379 263.417 447.172C264.459 445.953 265.802 445.018 267.448 444.366C269.105 443.704 271.022 443.372 273.2 443.372C274.716 443.372 276.166 443.55 277.551 443.905C278.947 444.26 280.184 444.81 281.262 445.556C282.351 446.302 283.209 447.261 283.836 448.433C284.463 449.593 284.777 450.983 284.777 452.605V471H277.604V467.218H277.391C276.953 468.07 276.367 468.822 275.633 469.473C274.899 470.112 274.017 470.615 272.987 470.982C271.958 471.337 270.768 471.515 269.419 471.515ZM271.585 466.295C272.697 466.295 273.68 466.076 274.532 465.638C275.384 465.188 276.053 464.584 276.539 463.827C277.024 463.069 277.267 462.211 277.267 461.252V458.358C277.03 458.512 276.704 458.654 276.29 458.784C275.887 458.902 275.432 459.015 274.923 459.121C274.414 459.216 273.905 459.305 273.396 459.388C272.887 459.459 272.425 459.524 272.011 459.583C271.123 459.713 270.348 459.92 269.685 460.205C269.022 460.489 268.507 460.873 268.14 461.359C267.773 461.832 267.59 462.424 267.59 463.134C267.59 464.164 267.963 464.951 268.708 465.496C269.466 466.028 270.425 466.295 271.585 466.295ZM302.932 481.795C300.482 481.795 298.381 481.458 296.629 480.783C294.889 480.121 293.504 479.215 292.474 478.067C291.444 476.919 290.776 475.628 290.468 474.196L297.464 473.255C297.677 473.799 298.014 474.308 298.476 474.782C298.937 475.255 299.547 475.634 300.305 475.918C301.074 476.214 302.009 476.362 303.11 476.362C304.755 476.362 306.111 475.96 307.176 475.155C308.253 474.362 308.792 473.03 308.792 471.16V466.17H308.472C308.141 466.928 307.644 467.644 306.981 468.319C306.318 468.994 305.465 469.544 304.424 469.97C303.382 470.396 302.139 470.609 300.695 470.609C298.647 470.609 296.783 470.136 295.102 469.189C293.433 468.23 292.101 466.768 291.107 464.803C290.125 462.826 289.633 460.329 289.633 457.31C289.633 454.221 290.136 451.64 291.143 449.569C292.149 447.497 293.486 445.947 295.155 444.917C296.836 443.887 298.677 443.372 300.677 443.372C302.204 443.372 303.483 443.633 304.513 444.153C305.542 444.662 306.371 445.302 306.998 446.071C307.638 446.829 308.129 447.574 308.472 448.308H308.756V443.727H316.267V471.266C316.267 473.586 315.699 475.528 314.562 477.09C313.426 478.653 311.852 479.825 309.839 480.606C307.839 481.399 305.537 481.795 302.932 481.795ZM303.092 464.928C304.311 464.928 305.341 464.626 306.182 464.022C307.034 463.406 307.685 462.531 308.135 461.394C308.596 460.246 308.827 458.873 308.827 457.275C308.827 455.677 308.602 454.292 308.153 453.12C307.703 451.936 307.052 451.019 306.199 450.368C305.347 449.717 304.311 449.391 303.092 449.391C301.849 449.391 300.802 449.729 299.949 450.403C299.097 451.066 298.452 451.99 298.014 453.173C297.576 454.357 297.357 455.724 297.357 457.275C297.357 458.849 297.576 460.21 298.014 461.359C298.464 462.495 299.109 463.377 299.949 464.004C300.802 464.62 301.849 464.928 303.092 464.928ZM334.715 471.533C331.91 471.533 329.495 470.964 327.471 469.828C325.458 468.68 323.908 467.058 322.819 464.963C321.73 462.856 321.185 460.364 321.185 457.488C321.185 454.683 321.73 452.22 322.819 450.102C323.908 447.983 325.441 446.331 327.417 445.148C329.406 443.964 331.738 443.372 334.413 443.372C336.212 443.372 337.887 443.662 339.438 444.242C341.001 444.81 342.362 445.669 343.522 446.817C344.694 447.965 345.605 449.409 346.256 451.149C346.907 452.877 347.233 454.902 347.233 457.222V459.299H324.204V454.612H340.113C340.113 453.522 339.876 452.558 339.403 451.717C338.929 450.877 338.272 450.22 337.432 449.746C336.603 449.261 335.638 449.018 334.537 449.018C333.389 449.018 332.371 449.285 331.483 449.817C330.608 450.338 329.921 451.043 329.424 451.93C328.927 452.806 328.672 453.783 328.66 454.86V459.317C328.66 460.666 328.909 461.832 329.406 462.815C329.915 463.797 330.631 464.555 331.555 465.087C332.478 465.62 333.573 465.886 334.839 465.886C335.68 465.886 336.449 465.768 337.148 465.531C337.846 465.295 338.444 464.939 338.941 464.466C339.438 463.992 339.817 463.412 340.077 462.726L347.073 463.188C346.718 464.868 345.99 466.336 344.889 467.591C343.8 468.834 342.391 469.804 340.663 470.503C338.947 471.189 336.964 471.533 334.715 471.533ZM363.883 471V434.636H387.96V440.975H371.571V449.64H386.362V455.979H371.571V471H363.883ZM403.31 471.533C400.552 471.533 398.166 470.947 396.154 469.775C394.154 468.591 392.609 466.946 391.52 464.839C390.431 462.72 389.886 460.264 389.886 457.47C389.886 454.653 390.431 452.191 391.52 450.084C392.609 447.965 394.154 446.32 396.154 445.148C398.166 443.964 400.552 443.372 403.31 443.372C406.068 443.372 408.447 443.964 410.447 445.148C412.46 446.32 414.01 447.965 415.099 450.084C416.188 452.191 416.733 454.653 416.733 457.47C416.733 460.264 416.188 462.72 415.099 464.839C414.01 466.946 412.46 468.591 410.447 469.775C408.447 470.947 406.068 471.533 403.31 471.533ZM403.345 465.673C404.6 465.673 405.647 465.318 406.488 464.608C407.328 463.886 407.962 462.903 408.388 461.661C408.826 460.418 409.045 459.003 409.045 457.417C409.045 455.831 408.826 454.416 408.388 453.173C407.962 451.93 407.328 450.948 406.488 450.226C405.647 449.504 404.6 449.143 403.345 449.143C402.079 449.143 401.013 449.504 400.149 450.226C399.297 450.948 398.652 451.93 398.214 453.173C397.788 454.416 397.575 455.831 397.575 457.417C397.575 459.003 397.788 460.418 398.214 461.661C398.652 462.903 399.297 463.886 400.149 464.608C401.013 465.318 402.079 465.673 403.345 465.673ZM439.141 459.388V443.727H446.705V471H439.442V466.046H439.158C438.543 467.644 437.519 468.929 436.087 469.899C434.666 470.87 432.932 471.355 430.884 471.355C429.061 471.355 427.457 470.941 426.072 470.112C424.688 469.284 423.604 468.106 422.823 466.579C422.054 465.052 421.663 463.223 421.651 461.092V443.727H429.215V459.743C429.227 461.353 429.659 462.625 430.511 463.56C431.364 464.496 432.506 464.963 433.938 464.963C434.85 464.963 435.702 464.756 436.495 464.342C437.288 463.915 437.927 463.288 438.413 462.46C438.91 461.631 439.152 460.607 439.141 459.388ZM460.319 455.233V471H452.755V443.727H459.964V448.539H460.283C460.887 446.953 461.899 445.698 463.319 444.775C464.74 443.84 466.462 443.372 468.486 443.372C470.38 443.372 472.032 443.786 473.44 444.615C474.849 445.444 475.944 446.627 476.725 448.166C477.506 449.693 477.897 451.516 477.897 453.635V471H470.333V454.984C470.345 453.315 469.919 452.013 469.055 451.078C468.19 450.131 467.001 449.658 465.486 449.658C464.468 449.658 463.568 449.877 462.787 450.315C462.017 450.753 461.414 451.392 460.976 452.232C460.55 453.061 460.331 454.061 460.319 455.233ZM493.908 471.444C491.837 471.444 489.96 470.911 488.279 469.846C486.61 468.769 485.285 467.188 484.302 465.105C483.332 463.01 482.846 460.441 482.846 457.399C482.846 454.274 483.349 451.676 484.355 449.604C485.362 447.521 486.699 445.964 488.368 444.935C490.049 443.893 491.89 443.372 493.89 443.372C495.417 443.372 496.69 443.633 497.708 444.153C498.738 444.662 499.566 445.302 500.194 446.071C500.833 446.829 501.318 447.574 501.65 448.308H501.88V434.636H509.426V471H501.969V466.632H501.65C501.294 467.39 500.791 468.141 500.14 468.887C499.501 469.621 498.667 470.231 497.637 470.716C496.619 471.201 495.376 471.444 493.908 471.444ZM496.305 465.425C497.524 465.425 498.554 465.093 499.395 464.43C500.247 463.756 500.898 462.815 501.348 461.607C501.809 460.4 502.04 458.985 502.04 457.364C502.04 455.742 501.815 454.333 501.365 453.138C500.916 451.942 500.265 451.019 499.412 450.368C498.56 449.717 497.524 449.391 496.305 449.391C495.062 449.391 494.015 449.729 493.162 450.403C492.31 451.078 491.665 452.013 491.227 453.209C490.789 454.404 490.57 455.789 490.57 457.364C490.57 458.95 490.789 460.353 491.227 461.572C491.677 462.779 492.322 463.726 493.162 464.413C494.015 465.087 495.062 465.425 496.305 465.425Z" fill="#818182"/>
<rect x="256.146" y="120.901" width="289.586" height="251.556" rx="12" transform="rotate(6.33064 256.146 120.901)" fill="#D9D9D9"/>
<rect x="274.255" y="140.734" width="248.863" height="216.181" rx="25" transform="rotate(6.33064 274.255 140.734)" fill="white"/>
<path d="M453.092 353.073L314.676 337.716C301.211 336.223 294.818 320.348 303.489 309.939L349.186 255.086C355.035 248.065 365.387 246.924 372.624 252.502L401.365 274.651C408.416 280.084 418.463 279.159 424.403 272.53L451.458 242.337C462.496 230.019 482.839 239.118 481.015 255.556L480.193 262.972L471.863 338.051C470.828 347.382 462.424 354.108 453.092 353.073Z" fill="#D9D9D9" stroke="#D9D9D9" stroke-width="17"/>
<ellipse cx="409.235" cy="242.215" rx="14.14" ry="12.283" transform="rotate(6.33064 409.235 242.215)" fill="#D9D9D9"/>
<rect x="72.9246" y="184.922" width="289.586" height="251.556" rx="12" transform="rotate(-20.4066 72.9246 184.922)" fill="#D9D9D9"/>
<rect x="98.0203" y="194.487" width="248.863" height="216.181" rx="25" transform="rotate(-20.4066 98.0203 194.487)" fill="white"/>
<path d="M353.267 303.664L222.741 352.223C210.044 356.947 197.192 345.646 200.254 332.448L216.386 262.901C218.451 254 227.183 248.323 236.156 250.049L271.789 256.899C280.53 258.579 289.087 253.233 291.409 244.64L301.987 205.503C306.303 189.537 328.565 188.51 334.332 204.011L336.933 211.004L363.272 281.803C366.546 290.603 362.066 300.39 353.267 303.664Z" fill="#D9D9D9" stroke="#D9D9D9" stroke-width="17"/>
<ellipse cx="264.224" cy="224.39" rx="14.14" ry="12.283" transform="rotate(-20.4066 264.224 224.39)" fill="#D9D9D9"/>
</svg>
