<svg width="19" height="19" viewBox="0 0 19 19" fill="none" xmlns="http://www.w3.org/2000/svg">
<path d="M1.37793 18.5475C0.825645 18.5475 0.37793 18.0998 0.37793 17.5475V5.5475C0.37793 4.99522 0.825645 4.5475 1.37793 4.5475H3.37793C3.93021 4.5475 4.37793 4.09979 4.37793 3.5475V1.5475C4.37793 0.995216 4.82564 0.547501 5.37793 0.547501H13.3779C13.9302 0.547501 14.3779 0.995216 14.3779 1.5475V7.5475C14.3779 8.09979 14.8256 8.5475 15.3779 8.5475H17.3779C17.9302 8.5475 18.3779 8.99522 18.3779 9.5475V17.5475C18.3779 18.0998 17.9302 18.5475 17.3779 18.5475H11.3779C10.8256 18.5475 10.3779 18.0998 10.3779 17.5475V15.5475C10.3779 14.9952 9.93021 14.5475 9.37793 14.5475V14.5475C8.82564 14.5475 8.37793 14.9952 8.37793 15.5475V17.5475C8.37793 18.0998 7.93021 18.5475 7.37793 18.5475H1.37793ZM2.37793 15.5475C2.37793 16.0998 2.82564 16.5475 3.37793 16.5475V16.5475C3.93021 16.5475 4.37793 16.0998 4.37793 15.5475V15.5475C4.37793 14.9952 3.93021 14.5475 3.37793 14.5475V14.5475C2.82564 14.5475 2.37793 14.9952 2.37793 15.5475V15.5475ZM2.37793 11.5475C2.37793 12.0998 2.82564 12.5475 3.37793 12.5475V12.5475C3.93021 12.5475 4.37793 12.0998 4.37793 11.5475V11.5475C4.37793 10.9952 3.93021 10.5475 3.37793 10.5475V10.5475C2.82564 10.5475 2.37793 10.9952 2.37793 11.5475V11.5475ZM2.37793 7.5475C2.37793 8.09979 2.82564 8.5475 3.37793 8.5475V8.5475C3.93021 8.5475 4.37793 8.09979 4.37793 7.5475V7.5475C4.37793 6.99522 3.93021 6.5475 3.37793 6.5475V6.5475C2.82564 6.5475 2.37793 6.99522 2.37793 7.5475V7.5475ZM6.37793 11.5475C6.37793 12.0998 6.82564 12.5475 7.37793 12.5475V12.5475C7.93021 12.5475 8.37793 12.0998 8.37793 11.5475V11.5475C8.37793 10.9952 7.93021 10.5475 7.37793 10.5475V10.5475C6.82564 10.5475 6.37793 10.9952 6.37793 11.5475V11.5475ZM6.37793 7.5475C6.37793 8.09979 6.82564 8.5475 7.37793 8.5475V8.5475C7.93021 8.5475 8.37793 8.09979 8.37793 7.5475V7.5475C8.37793 6.99522 7.93021 6.5475 7.37793 6.5475V6.5475C6.82564 6.5475 6.37793 6.99522 6.37793 7.5475V7.5475ZM6.37793 3.5475C6.37793 4.09979 6.82564 4.5475 7.37793 4.5475V4.5475C7.93021 4.5475 8.37793 4.09979 8.37793 3.5475V3.5475C8.37793 2.99522 7.93021 2.5475 7.37793 2.5475V2.5475C6.82564 2.5475 6.37793 2.99522 6.37793 3.5475V3.5475ZM10.3779 11.5475C10.3779 12.0998 10.8256 12.5475 11.3779 12.5475V12.5475C11.9302 12.5475 12.3779 12.0998 12.3779 11.5475V11.5475C12.3779 10.9952 11.9302 10.5475 11.3779 10.5475V10.5475C10.8256 10.5475 10.3779 10.9952 10.3779 11.5475V11.5475ZM10.3779 7.5475C10.3779 8.09979 10.8256 8.5475 11.3779 8.5475V8.5475C11.9302 8.5475 12.3779 8.09979 12.3779 7.5475V7.5475C12.3779 6.99522 11.9302 6.5475 11.3779 6.5475V6.5475C10.8256 6.5475 10.3779 6.99522 10.3779 7.5475V7.5475ZM10.3779 3.5475C10.3779 4.09979 10.8256 4.5475 11.3779 4.5475V4.5475C11.9302 4.5475 12.3779 4.09979 12.3779 3.5475V3.5475C12.3779 2.99522 11.9302 2.5475 11.3779 2.5475V2.5475C10.8256 2.5475 10.3779 2.99522 10.3779 3.5475V3.5475ZM14.3779 15.5475C14.3779 16.0998 14.8256 16.5475 15.3779 16.5475V16.5475C15.9302 16.5475 16.3779 16.0998 16.3779 15.5475V15.5475C16.3779 14.9952 15.9302 14.5475 15.3779 14.5475V14.5475C14.8256 14.5475 14.3779 14.9952 14.3779 15.5475V15.5475ZM14.3779 11.5475C14.3779 12.0998 14.8256 12.5475 15.3779 12.5475V12.5475C15.9302 12.5475 16.3779 12.0998 16.3779 11.5475V11.5475C16.3779 10.9952 15.9302 10.5475 15.3779 10.5475V10.5475C14.8256 10.5475 14.3779 10.9952 14.3779 11.5475V11.5475Z"/>
</svg>
