<svg width="258" height="181" viewBox="0 0 258 181" fill="none" xmlns="http://www.w3.org/2000/svg">
<path d="M203.92 110.723C204.357 113.042 209.609 120.596 211.546 124.846C211.098 124.293 210.577 123.64 210.063 123.037C209.659 122.334 209.299 121.548 208.895 120.945C208.27 120.009 207.611 119.096 206.897 118.227C205.803 116.848 204.551 115.602 203.167 114.514C201.567 113.208 199.621 112.398 197.566 112.184C197.013 112.145 193.853 111.907 194.589 113.18C194.724 113.375 194.905 113.535 195.115 113.645C197.057 114.835 199.205 115.471 201.252 116.412C204.318 117.845 208.369 121.664 210.057 123.324L210.915 124.459C207.899 121.647 202.973 120.031 201.285 120.823C199.199 121.775 203.687 122.749 207.495 123.734C209.199 124.121 210.782 124.917 212.11 126.053C212.841 127.038 213.665 128.145 214.49 129.279C214.59 129.456 214.689 129.622 214.789 129.788C214.204 129.109 213.543 128.5 212.819 127.973C210.871 126.639 205.508 125.831 204.944 127.635C204.379 129.44 208.181 128.615 211.452 129.135C213.222 129.462 214.849 130.326 216.112 131.609L216.327 131.841C216.698 132.395 217.052 132.876 217.384 133.363C218.165 134.503 218.906 135.577 219.598 136.612C218.498 135.17 217.193 133.897 215.724 132.832C212.869 130.873 209.055 130.458 207.666 131.509C206.277 132.561 212.686 133.513 215.835 134.62C217.65 135.31 219.257 136.453 220.506 137.94C221.541 139.407 222.564 140.835 223.666 142.329C221.911 140.775 220.032 139.366 218.049 138.117C214.822 136.003 211.479 136.291 210.588 137.564C209.697 138.837 212.426 138.92 217.501 140.01C220.177 140.578 222.658 141.837 224.695 143.663L226.151 145.6C226.704 146.358 227.396 147.133 228.099 147.896C227.241 147.509 225.974 146.955 224.568 146.352C222.997 145.707 221.477 144.941 220.024 144.061C218.364 143.021 216.106 141.919 214.119 142.805C213.969 142.854 213.83 142.934 213.713 143.041C213.596 143.148 213.504 143.279 213.442 143.425C213.38 143.571 213.35 143.728 213.354 143.887C213.359 144.045 213.397 144.201 213.466 144.343C213.686 144.744 214.03 145.062 214.446 145.251C216.659 146.463 219.388 146.784 221.806 147.321C224.026 147.817 226.276 148.167 228.541 148.367C229.2 149.058 229.886 149.739 230.567 150.381L229.549 150.569C228.348 150.796 222.493 149.175 219.587 148.815C216.682 148.455 214.33 150.364 217.484 151.471C220.639 152.578 228.492 150.995 228.492 150.995L230.761 150.569C233.456 153.109 235.952 155.052 235.952 155.052L237.003 154.344C237.003 154.344 234.828 153.746 231.176 150.293C231.09 149.61 231.079 148.919 231.143 148.234C231.375 144.36 234.568 139.988 232.117 136.241C231.524 135.334 230.246 134.836 229.538 135.832C229.028 136.551 229.056 137.763 229.217 138.599C229.77 141.338 230.628 143.768 230.418 146.623C230.418 146.751 230.418 148.665 230.55 149.706C230.052 149.213 229.538 148.677 228.995 148.084C228.549 147.008 228.189 145.898 227.922 144.764C227.219 141.748 227.922 138.549 227.418 135.477C227.258 134.537 225.791 132.306 225.071 134.243C224.756 135.101 225.16 136.728 225.215 137.641C225.381 140.226 225.636 142.927 226.654 145.339L226.217 144.786C225.341 142.378 224.66 139.904 224.18 137.387C223.4 133.231 223.533 129.694 222.194 128.587C220.854 127.481 220.926 132.107 222.194 136.972C222.775 139.189 223.719 141.295 224.988 143.203C223.561 141.377 222.138 139.501 220.782 137.669C219.524 135.674 218.738 133.418 218.486 131.072C218.248 127.381 218.026 124.365 216.322 122.533C214.617 120.701 214.54 122.074 215.885 126.241C216.809 129.097 217.916 132.937 219.205 135.522C218.148 134.088 217.158 132.727 216.267 131.493C215.674 130.214 214.236 126.911 213.787 124.055C213.234 120.424 212.525 118.521 211.574 119.484C210.915 120.159 212.127 124.564 213.892 128.15C213.145 127.093 212.586 126.28 212.232 125.798C212.085 125.577 211.919 125.344 211.734 125.101C210.876 122.17 209.831 119.298 208.607 116.501C206.465 111.608 203.449 108.194 203.92 110.723Z" fill="#92E3A9"/>
<g opacity="0.6">
<path d="M203.92 110.723C204.357 113.042 209.609 120.596 211.546 124.846C211.098 124.293 210.577 123.64 210.063 123.037C209.659 122.334 209.299 121.548 208.895 120.945C208.27 120.009 207.611 119.096 206.897 118.227C205.803 116.848 204.551 115.602 203.167 114.514C201.567 113.208 199.621 112.398 197.566 112.184C197.013 112.145 193.853 111.907 194.589 113.18C194.724 113.375 194.905 113.535 195.115 113.645C197.057 114.835 199.205 115.471 201.252 116.412C204.318 117.845 208.369 121.664 210.057 123.324L210.915 124.459C207.899 121.647 202.973 120.031 201.285 120.823C199.199 121.775 203.687 122.749 207.495 123.734C209.199 124.121 210.782 124.917 212.11 126.053C212.841 127.038 213.665 128.145 214.49 129.279C214.59 129.456 214.689 129.622 214.789 129.788C214.204 129.109 213.543 128.5 212.819 127.973C210.871 126.639 205.508 125.831 204.944 127.635C204.379 129.44 208.181 128.615 211.452 129.135C213.222 129.462 214.849 130.326 216.112 131.609L216.327 131.841C216.698 132.395 217.052 132.876 217.384 133.363C218.165 134.503 218.906 135.577 219.598 136.612C218.498 135.17 217.193 133.897 215.724 132.832C212.869 130.873 209.055 130.458 207.666 131.509C206.277 132.561 212.686 133.513 215.835 134.62C217.65 135.31 219.257 136.453 220.506 137.94C221.541 139.407 222.564 140.835 223.666 142.329C221.911 140.775 220.032 139.366 218.049 138.117C214.822 136.003 211.479 136.291 210.588 137.564C209.697 138.837 212.426 138.92 217.501 140.01C220.177 140.578 222.658 141.837 224.695 143.663L226.151 145.6C226.704 146.358 227.396 147.133 228.099 147.896C227.241 147.509 225.974 146.955 224.568 146.352C222.997 145.707 221.477 144.941 220.024 144.061C218.364 143.021 216.106 141.919 214.119 142.805C213.969 142.854 213.83 142.934 213.713 143.041C213.596 143.148 213.504 143.279 213.442 143.425C213.38 143.571 213.35 143.728 213.354 143.887C213.359 144.045 213.397 144.201 213.466 144.343C213.686 144.744 214.03 145.062 214.446 145.251C216.659 146.463 219.388 146.784 221.806 147.321C224.026 147.817 226.276 148.167 228.541 148.367C229.2 149.058 229.886 149.739 230.567 150.381L229.549 150.569C228.348 150.796 222.493 149.175 219.587 148.815C216.682 148.455 214.33 150.364 217.484 151.471C220.639 152.578 228.492 150.995 228.492 150.995L230.761 150.569C233.456 153.109 235.952 155.052 235.952 155.052L237.003 154.344C237.003 154.344 234.828 153.746 231.176 150.293C231.09 149.61 231.079 148.919 231.143 148.234C231.375 144.36 234.568 139.988 232.117 136.241C231.524 135.334 230.246 134.836 229.538 135.832C229.028 136.551 229.056 137.763 229.217 138.599C229.77 141.338 230.628 143.768 230.418 146.623C230.418 146.751 230.418 148.665 230.55 149.706C230.052 149.213 229.538 148.677 228.995 148.084C228.549 147.008 228.189 145.898 227.922 144.764C227.219 141.748 227.922 138.549 227.418 135.477C227.258 134.537 225.791 132.306 225.071 134.243C224.756 135.101 225.16 136.728 225.215 137.641C225.381 140.226 225.636 142.927 226.654 145.339L226.217 144.786C225.341 142.378 224.66 139.904 224.18 137.387C223.4 133.231 223.533 129.694 222.194 128.587C220.854 127.481 220.926 132.107 222.194 136.972C222.775 139.189 223.719 141.295 224.988 143.203C223.561 141.377 222.138 139.501 220.782 137.669C219.524 135.674 218.738 133.418 218.486 131.072C218.248 127.381 218.026 124.365 216.322 122.533C214.617 120.701 214.54 122.074 215.885 126.241C216.809 129.097 217.916 132.937 219.205 135.522C218.148 134.088 217.158 132.727 216.267 131.493C215.674 130.214 214.236 126.911 213.787 124.055C213.234 120.424 212.525 118.521 211.574 119.484C210.915 120.159 212.127 124.564 213.892 128.15C213.145 127.093 212.586 126.28 212.232 125.798C212.085 125.577 211.919 125.344 211.734 125.101C210.876 122.17 209.831 119.298 208.607 116.501C206.465 111.608 203.449 108.194 203.92 110.723Z" fill="white"/>
</g>
<path d="M243.146 99.9367C241.862 101.912 240.457 111.005 238.929 115.433C239.007 114.702 239.062 113.894 239.101 113.103C239.294 112.317 239.577 111.503 239.704 110.778C239.892 109.671 240.042 108.565 240.13 107.458C240.29 105.704 240.242 103.937 239.986 102.195C239.723 100.151 238.871 98.2284 237.535 96.6605C237.186 96.2676 235.039 93.8934 234.695 95.3268C234.658 95.5606 234.679 95.8003 234.756 96.0241C235.337 98.2378 236.455 100.169 237.28 102.278C238.509 105.432 238.807 110.989 238.885 113.346C238.841 113.728 238.785 114.209 238.724 114.757C238.481 110.645 236.013 106.085 234.258 105.482C232.089 104.74 234.668 108.537 236.749 111.874C237.713 113.329 238.311 114.996 238.492 116.733C238.343 117.956 238.171 119.323 237.988 120.712C237.939 120.911 237.894 121.1 237.856 121.293C237.899 120.397 237.839 119.498 237.678 118.615C237.186 116.307 233.86 112.023 232.205 112.942C230.55 113.861 233.865 115.886 235.885 118.515C236.941 119.974 237.521 121.723 237.546 123.524C237.546 123.629 237.546 123.734 237.546 123.839C237.452 124.475 237.357 125.09 237.263 125.671C237.042 127.032 236.843 128.316 236.649 129.545C236.847 127.745 236.783 125.925 236.461 124.143C235.736 120.756 233.262 117.823 231.53 117.63C229.798 117.436 233.782 122.538 235.304 125.516C236.148 127.261 236.529 129.193 236.411 131.128C236.151 132.899 235.907 134.642 235.675 136.485C235.473 134.148 235.084 131.831 234.513 129.556C233.633 125.804 231.01 123.701 229.471 124.022C227.933 124.343 229.87 126.269 232.792 130.558C234.332 132.811 235.255 135.429 235.47 138.15C235.376 138.925 235.282 139.722 235.188 140.552C235.083 141.499 235.028 142.522 235.016 143.563C234.657 142.689 234.125 141.41 233.522 140.01C232.83 138.459 232.259 136.856 231.812 135.217C231.314 133.308 230.451 130.962 228.403 130.237C228.26 130.168 228.104 130.131 227.946 130.128C227.788 130.125 227.631 130.156 227.485 130.219C227.34 130.282 227.21 130.376 227.104 130.493C226.998 130.611 226.918 130.75 226.87 130.901C226.752 131.342 226.779 131.81 226.948 132.234C227.7 134.625 229.471 136.75 230.849 138.809C232.118 140.698 233.508 142.502 235.011 144.21C235.011 145.168 235.039 146.131 235.088 147.066L234.22 146.513C233.19 145.849 230.074 140.635 228.22 138.377C226.366 136.119 223.345 135.87 224.861 138.848C226.378 141.825 233.163 146.092 233.163 146.092L235.099 147.354C235.304 151.051 235.769 154.178 235.769 154.178L237.02 154.388C237.02 154.388 235.858 152.456 235.592 147.442C236.001 146.887 236.471 146.378 236.992 145.926C239.826 143.281 245.155 142.318 245.963 137.907C246.157 136.844 245.581 135.605 244.375 135.837C243.511 136.003 242.715 136.905 242.25 137.608C240.75 139.96 239.704 142.323 237.59 144.249C237.496 144.338 236.184 145.732 235.559 146.574C235.559 145.876 235.531 145.129 235.559 144.327C235.98 143.237 236.487 142.182 237.075 141.172C238.647 138.505 241.364 136.678 243.113 134.099C243.666 133.308 244.12 130.685 242.266 131.592C241.442 131.996 240.606 133.452 240.053 134.149C238.392 136.136 236.732 138.272 235.78 140.718C235.78 140.486 235.824 140.253 235.841 140.021C236.869 137.674 238.083 135.412 239.472 133.258C241.774 129.711 244.303 127.237 244.098 125.51C243.893 123.784 240.778 127.171 238.304 131.598C237.197 133.605 236.43 135.782 236.035 138.04C236.262 135.726 236.522 133.391 236.787 131.144C237.248 128.831 238.237 126.655 239.676 124.785C242.045 121.946 243.965 119.611 243.993 117.109C244.021 114.608 243.019 115.543 241.121 119.489C239.82 122.195 237.977 125.743 237.114 128.493C237.341 126.728 237.562 125.057 237.773 123.551C238.221 122.217 239.433 118.831 241.093 116.456C243.185 113.435 243.993 111.57 242.637 111.619C241.696 111.653 239.516 115.659 238.343 119.489C238.531 118.211 238.686 117.237 238.785 116.661C238.83 116.403 238.868 116.121 238.901 115.814C240.292 113.083 241.508 110.266 242.543 107.38C244.38 102.328 244.541 97.7895 243.146 99.9367Z" fill="#92E3A9"/>
<g opacity="0.6">
<path d="M243.146 99.9367C241.862 101.912 240.457 111.005 238.929 115.433C239.007 114.702 239.062 113.894 239.101 113.103C239.294 112.317 239.577 111.503 239.704 110.778C239.892 109.671 240.042 108.565 240.13 107.458C240.29 105.704 240.242 103.937 239.986 102.195C239.723 100.151 238.871 98.2284 237.535 96.6605C237.186 96.2676 235.039 93.8934 234.695 95.3268C234.658 95.5606 234.679 95.8003 234.756 96.0241C235.337 98.2378 236.455 100.169 237.28 102.278C238.509 105.432 238.807 110.989 238.885 113.346C238.841 113.728 238.785 114.209 238.724 114.757C238.481 110.645 236.013 106.085 234.258 105.482C232.089 104.74 234.668 108.537 236.749 111.874C237.713 113.329 238.311 114.996 238.492 116.733C238.343 117.956 238.171 119.323 237.988 120.712C237.939 120.911 237.894 121.1 237.856 121.293C237.899 120.397 237.839 119.498 237.678 118.615C237.186 116.307 233.86 112.023 232.205 112.942C230.55 113.861 233.865 115.886 235.885 118.515C236.941 119.974 237.521 121.723 237.546 123.524C237.546 123.629 237.546 123.734 237.546 123.839C237.452 124.475 237.357 125.09 237.263 125.671C237.042 127.032 236.843 128.316 236.649 129.545C236.847 127.745 236.783 125.925 236.461 124.143C235.736 120.756 233.262 117.823 231.53 117.63C229.798 117.436 233.782 122.538 235.304 125.516C236.148 127.261 236.529 129.193 236.411 131.128C236.151 132.899 235.907 134.642 235.675 136.485C235.473 134.148 235.084 131.831 234.513 129.556C233.633 125.804 231.01 123.701 229.471 124.022C227.933 124.343 229.87 126.269 232.792 130.558C234.332 132.811 235.255 135.429 235.47 138.15C235.376 138.925 235.282 139.722 235.188 140.552C235.083 141.499 235.028 142.522 235.016 143.563C234.657 142.689 234.125 141.41 233.522 140.01C232.83 138.459 232.259 136.856 231.812 135.217C231.314 133.308 230.451 130.962 228.403 130.237C228.26 130.168 228.104 130.131 227.946 130.128C227.788 130.125 227.631 130.156 227.485 130.219C227.34 130.282 227.21 130.376 227.104 130.493C226.998 130.611 226.918 130.75 226.87 130.901C226.752 131.342 226.779 131.81 226.948 132.234C227.7 134.625 229.471 136.75 230.849 138.809C232.118 140.698 233.508 142.502 235.011 144.21C235.011 145.168 235.039 146.131 235.088 147.066L234.22 146.513C233.19 145.849 230.074 140.635 228.22 138.377C226.366 136.119 223.345 135.87 224.861 138.848C226.378 141.825 233.163 146.092 233.163 146.092L235.099 147.354C235.304 151.051 235.769 154.178 235.769 154.178L237.02 154.388C237.02 154.388 235.858 152.456 235.592 147.442C236.001 146.887 236.471 146.378 236.992 145.926C239.826 143.281 245.155 142.318 245.963 137.907C246.157 136.844 245.581 135.605 244.375 135.837C243.511 136.003 242.715 136.905 242.25 137.608C240.75 139.96 239.704 142.323 237.59 144.249C237.496 144.338 236.184 145.732 235.559 146.574C235.559 145.876 235.531 145.129 235.559 144.327C235.98 143.237 236.487 142.182 237.075 141.172C238.647 138.505 241.364 136.678 243.113 134.099C243.666 133.308 244.12 130.685 242.266 131.592C241.442 131.996 240.606 133.452 240.053 134.149C238.392 136.136 236.732 138.272 235.78 140.718C235.78 140.486 235.824 140.253 235.841 140.021C236.869 137.674 238.083 135.412 239.472 133.258C241.774 129.711 244.303 127.237 244.098 125.51C243.893 123.784 240.778 127.171 238.304 131.598C237.197 133.605 236.43 135.782 236.035 138.04C236.262 135.726 236.522 133.391 236.787 131.144C237.248 128.831 238.237 126.655 239.676 124.785C242.045 121.946 243.965 119.611 243.993 117.109C244.021 114.608 243.019 115.543 241.121 119.489C239.82 122.195 237.977 125.743 237.114 128.493C237.341 126.728 237.562 125.057 237.773 123.551C238.221 122.217 239.433 118.831 241.093 116.456C243.185 113.435 243.993 111.57 242.637 111.619C241.696 111.653 239.516 115.659 238.343 119.489C238.531 118.211 238.686 117.237 238.785 116.661C238.83 116.403 238.868 116.121 238.901 115.814C240.292 113.083 241.508 110.266 242.543 107.38C244.38 102.328 244.541 97.7895 243.146 99.9367Z" fill="white"/>
</g>
<path d="M7.10665 119.816C7.36676 121.553 11.0691 127.348 12.3863 130.569C12.0708 130.12 11.7056 129.644 11.3348 129.18C11.0525 128.626 10.809 128.045 10.5213 127.58C10.0841 126.866 9.61918 126.169 9.11557 125.499C8.337 124.438 7.4361 123.472 6.43148 122.621C5.27708 121.602 3.84971 120.942 2.3251 120.723C1.93217 120.679 -0.442008 120.408 0.0726734 121.376C0.165533 121.528 0.297392 121.652 0.454533 121.736C1.87129 122.682 3.44854 123.219 4.95384 124C7.20073 125.128 10.1062 128.117 11.3237 129.384L11.927 130.253C9.76307 128.067 6.13263 126.733 4.8487 127.259C3.26591 127.912 6.58644 128.77 9.39782 129.617C10.6584 129.951 11.8176 130.589 12.7737 131.476C13.2939 132.229 13.8805 133.087 14.4339 133.956C14.5004 134.088 14.5723 134.216 14.6442 134.343C14.2289 133.819 13.7534 133.345 13.2275 132.932C11.8107 131.88 7.83163 131.122 7.35569 132.45C6.87975 133.778 9.74647 133.275 12.1705 133.756C13.4827 134.052 14.6726 134.744 15.5795 135.738C15.6293 135.804 15.6791 135.859 15.7345 135.92C15.9946 136.319 16.2436 136.712 16.4761 137.082C17.0295 137.957 17.5442 138.776 18.0589 139.567C17.2791 138.466 16.3475 137.48 15.2917 136.64C13.2164 135.096 10.3774 134.675 9.3148 135.422C8.25223 136.169 13.0006 137.082 15.3194 137.979C16.6529 138.541 17.8206 139.434 18.7119 140.574C19.4369 141.681 20.1619 142.788 20.9256 143.939C19.6604 142.723 18.2982 141.613 16.8524 140.619C14.5059 138.958 12.0044 139.064 11.3182 140.004C10.6319 140.945 12.6519 141.073 16.4041 142.03C18.3809 142.532 20.1916 143.543 21.6561 144.963C21.9826 145.445 22.3257 145.937 22.6855 146.452C23.1168 147.063 23.5786 147.652 24.069 148.217C23.4381 147.907 22.5139 147.453 21.479 146.966C20.3269 146.438 19.2168 145.822 18.1585 145.124C16.9354 144.299 15.2973 143.414 13.7864 144.017C13.6723 144.045 13.5656 144.098 13.4738 144.171C13.3819 144.245 13.3071 144.337 13.2545 144.443C13.2019 144.548 13.1727 144.663 13.169 144.781C13.1653 144.898 13.1872 145.015 13.233 145.124C13.391 145.45 13.6542 145.713 13.9801 145.871C15.5851 146.839 17.6217 147.155 19.4147 147.625C21.0519 148.058 22.7157 148.384 24.3955 148.599C24.8715 149.152 25.364 149.662 25.851 150.16L25.0873 150.276C24.1797 150.409 19.863 149.031 17.7102 148.671C15.5574 148.311 13.7422 149.678 16.0499 150.597C18.3577 151.516 24.2738 150.558 24.2738 150.558L25.9838 150.309C27.9208 152.279 29.725 153.801 29.725 153.801L30.5274 153.303C30.5274 153.303 28.928 152.794 26.2993 150.115C26.2564 149.603 26.2694 149.087 26.338 148.577C26.6203 145.694 29.1051 142.523 27.4061 139.656C26.9911 138.964 26.0558 138.549 25.4913 139.279C25.1414 139.899 25.0293 140.625 25.1758 141.322C25.4968 143.38 26.0779 145.196 25.8455 147.337C25.8455 147.437 25.7901 148.865 25.8455 149.639C25.4913 149.263 25.1205 148.848 24.7386 148.389C24.437 147.569 24.2002 146.727 24.0303 145.871C23.5986 143.602 24.2184 141.233 23.9251 138.931C23.831 138.222 22.8183 136.518 22.2095 137.94C21.9494 138.571 22.2095 139.8 22.2095 140.48C22.1698 142.442 22.4579 144.397 23.0618 146.264C22.9566 146.125 22.8515 145.987 22.7519 145.843C22.1771 144.03 21.7477 142.174 21.4679 140.292C21.0086 137.171 21.2078 134.537 20.2393 133.651C19.2708 132.766 19.1934 136.247 19.9848 139.905C20.3575 141.578 21.0025 143.178 21.8941 144.642C20.8813 143.231 19.8741 141.798 18.9167 140.403C18.0339 138.881 17.5131 137.177 17.3947 135.422C17.3228 132.655 17.2398 130.408 16.0223 128.991C14.8047 127.575 14.7051 128.593 15.5906 131.758C16.1994 133.917 16.9133 136.811 17.8043 138.781C17.0627 137.675 16.3599 136.634 15.7345 135.688C14.946 133.891 14.3881 132.002 14.0742 130.065C13.7588 127.342 13.2939 125.898 12.5523 126.595C12.0432 127.077 12.8014 130.397 14.0355 133.125C13.4821 132.312 13.1113 131.692 12.8844 131.321C12.7811 131.155 12.6648 130.971 12.5357 130.768C11.9787 128.552 11.2838 126.372 10.4549 124.243C8.99935 120.518 6.82994 117.895 7.10665 119.816Z" fill="#92E3A9"/>
<path opacity="0.6" d="M7.10665 119.816C7.36676 121.553 11.0691 127.348 12.3863 130.569C12.0708 130.12 11.7056 129.644 11.3348 129.18C11.0525 128.626 10.809 128.045 10.5213 127.58C10.0841 126.866 9.61918 126.169 9.11557 125.499C8.337 124.438 7.4361 123.472 6.43148 122.621C5.27708 121.602 3.84971 120.942 2.3251 120.723C1.93217 120.679 -0.442008 120.408 0.0726734 121.376C0.165533 121.528 0.297392 121.652 0.454533 121.736C1.87129 122.682 3.44854 123.219 4.95384 124C7.20073 125.128 10.1062 128.117 11.3237 129.384L11.927 130.253C9.76307 128.067 6.13263 126.733 4.8487 127.259C3.26591 127.912 6.58644 128.77 9.39782 129.617C10.6584 129.951 11.8176 130.589 12.7737 131.476C13.2939 132.229 13.8805 133.087 14.4339 133.956C14.5004 134.088 14.5723 134.216 14.6442 134.343C14.2289 133.819 13.7534 133.345 13.2275 132.932C11.8107 131.88 7.83163 131.122 7.35569 132.45C6.87975 133.778 9.74647 133.275 12.1705 133.756C13.4827 134.052 14.6726 134.744 15.5795 135.738C15.6293 135.804 15.6791 135.859 15.7345 135.92C15.9946 136.319 16.2436 136.712 16.4761 137.082C17.0295 137.957 17.5442 138.776 18.0589 139.567C17.2791 138.466 16.3475 137.48 15.2917 136.64C13.2164 135.096 10.3774 134.675 9.3148 135.422C8.25223 136.169 13.0006 137.082 15.3194 137.979C16.6529 138.541 17.8206 139.434 18.7119 140.574C19.4369 141.681 20.1619 142.788 20.9256 143.939C19.6604 142.723 18.2982 141.613 16.8524 140.619C14.5059 138.958 12.0044 139.064 11.3182 140.004C10.6319 140.945 12.6519 141.073 16.4041 142.03C18.3809 142.532 20.1916 143.543 21.6561 144.963C21.9826 145.445 22.3257 145.937 22.6855 146.452C23.1168 147.063 23.5786 147.652 24.069 148.217C23.4381 147.907 22.5139 147.453 21.479 146.966C20.3269 146.438 19.2168 145.822 18.1585 145.124C16.9354 144.299 15.2973 143.414 13.7864 144.017C13.6723 144.045 13.5656 144.098 13.4738 144.171C13.3819 144.245 13.3071 144.337 13.2545 144.443C13.2019 144.548 13.1727 144.663 13.169 144.781C13.1653 144.898 13.1872 145.015 13.233 145.124C13.391 145.45 13.6542 145.713 13.9801 145.871C15.5851 146.839 17.6217 147.155 19.4147 147.625C21.0519 148.058 22.7157 148.384 24.3955 148.599C24.8715 149.152 25.364 149.662 25.851 150.16L25.0873 150.276C24.1797 150.409 19.863 149.031 17.7102 148.671C15.5574 148.311 13.7422 149.678 16.0499 150.597C18.3577 151.516 24.2738 150.558 24.2738 150.558L25.9838 150.309C27.9208 152.279 29.725 153.801 29.725 153.801L30.5274 153.303C30.5274 153.303 28.928 152.794 26.2993 150.115C26.2564 149.603 26.2694 149.087 26.338 148.577C26.6203 145.694 29.1051 142.523 27.4061 139.656C26.9911 138.964 26.0558 138.549 25.4913 139.279C25.1414 139.899 25.0293 140.625 25.1758 141.322C25.4968 143.38 26.0779 145.196 25.8455 147.337C25.8455 147.437 25.7901 148.865 25.8455 149.639C25.4913 149.263 25.1205 148.848 24.7386 148.389C24.437 147.569 24.2002 146.727 24.0303 145.871C23.5986 143.602 24.2184 141.233 23.9251 138.931C23.831 138.222 22.8183 136.518 22.2095 137.94C21.9494 138.571 22.2095 139.8 22.2095 140.48C22.1698 142.442 22.4579 144.397 23.0618 146.264C22.9566 146.125 22.8515 145.987 22.7519 145.843C22.1771 144.03 21.7477 142.174 21.4679 140.292C21.0086 137.171 21.2078 134.537 20.2393 133.651C19.2708 132.766 19.1934 136.247 19.9848 139.905C20.3575 141.578 21.0025 143.178 21.8941 144.642C20.8813 143.231 19.8741 141.798 18.9167 140.403C18.0339 138.881 17.5131 137.177 17.3947 135.422C17.3228 132.655 17.2398 130.408 16.0223 128.991C14.8047 127.575 14.7051 128.593 15.5906 131.758C16.1994 133.917 16.9133 136.811 17.8043 138.781C17.0627 137.675 16.3599 136.634 15.7345 135.688C14.946 133.891 14.3881 132.002 14.0742 130.065C13.7588 127.342 13.2939 125.898 12.5523 126.595C12.0432 127.077 12.8014 130.397 14.0355 133.125C13.4821 132.312 13.1113 131.692 12.8844 131.321C12.7811 131.155 12.6648 130.971 12.5357 130.768C11.9787 128.552 11.2838 126.372 10.4549 124.243C8.99935 120.518 6.82994 117.895 7.10665 119.816Z" fill="white"/>
<path d="M47.1854 118.443C45.7078 119.395 41.9611 125.156 39.5703 127.691C39.8471 127.215 40.1238 126.684 40.4005 126.158C40.7713 125.676 41.214 125.211 41.5073 124.758C41.9777 124.06 42.4205 123.346 42.8245 122.61C43.4682 121.465 43.9753 120.249 44.3353 118.985C44.7915 117.513 44.803 115.938 44.3685 114.459C44.2523 114.082 43.5162 111.808 42.8466 112.682C42.7474 112.828 42.6882 112.998 42.675 113.175C42.3928 114.835 42.5588 116.495 42.4703 118.205C42.343 120.729 40.8432 124.603 40.168 126.241C40.0241 126.484 39.8415 126.794 39.6146 127.148C40.7215 124.276 40.4281 120.419 39.4209 119.467C38.1702 118.294 38.7623 121.681 39.1553 124.581C39.3659 125.868 39.2615 127.188 38.8509 128.427C38.375 129.207 37.8381 130.087 37.2903 130.978L37.0191 131.332C37.3454 130.739 37.5999 130.109 37.7773 129.456C38.1481 127.735 37.2238 123.8 35.7905 123.922C34.3571 124.044 36.0284 126.435 36.5874 128.842C36.8636 130.16 36.7244 131.53 36.1889 132.766L36.0893 132.982C35.8292 133.386 35.5802 133.773 35.3367 134.138C34.7833 135.001 34.2298 135.798 33.7207 136.601C34.4065 135.437 34.921 134.181 35.2481 132.871C35.8015 130.342 35.0102 127.586 33.8922 126.922C32.7743 126.257 33.8922 130.956 34.0417 133.446C34.0797 134.894 33.7463 136.326 33.0732 137.608C32.3537 138.715 31.6564 139.822 30.9314 141.028C31.5047 139.373 31.9433 137.674 32.2431 135.948C32.7965 133.125 31.6564 130.89 30.5053 130.641C29.3542 130.391 30.0847 132.301 30.7599 136.108C31.1185 138.116 30.9449 140.182 30.2563 142.102C29.9519 142.6 29.6475 143.115 29.3265 143.651C29.0055 144.188 28.6181 144.941 28.2861 145.649C28.2861 144.941 28.3414 143.912 28.358 142.772C28.365 141.502 28.4667 140.235 28.6624 138.981C28.9115 137.531 29.0443 135.66 27.871 134.553C27.7952 134.462 27.7001 134.388 27.5925 134.337C27.4848 134.286 27.3674 134.26 27.2484 134.26C27.1295 134.26 27.012 134.286 26.9044 134.337C26.7968 134.388 26.7016 134.462 26.6258 134.553C26.4091 134.816 26.2847 135.143 26.2716 135.483C26.0503 137.348 26.6037 139.357 26.9081 141.161C27.1929 142.845 27.5867 144.509 28.0869 146.142C27.7935 146.789 27.5334 147.459 27.2623 148.106L26.8417 147.459C26.3491 146.69 25.8234 142.185 25.2589 140.076C24.6944 137.968 22.7021 136.878 22.8238 139.368C22.9456 141.858 26.255 146.85 26.255 146.85L27.1903 148.3C26.1942 150.874 25.5301 153.148 25.5301 153.148L26.3104 153.674C26.3104 153.674 26.1167 152.014 27.4726 148.51C27.9283 148.235 28.415 148.014 28.9225 147.852C31.6896 146.922 35.5636 147.896 37.4895 145.146C37.9488 144.482 37.9378 143.485 37.0467 143.247C36.3372 143.181 35.6282 143.378 35.0544 143.801C33.3112 144.941 31.8778 146.23 29.8467 146.889C29.7527 146.922 28.4355 147.47 27.7493 147.846C27.9485 147.37 28.1754 146.856 28.4355 146.319C29.0542 145.711 29.7225 145.156 30.4334 144.659C32.3205 143.325 34.7334 142.915 36.7147 141.692C37.3179 141.322 38.4469 139.678 36.9084 139.728C36.2221 139.728 35.2094 140.486 34.6006 140.785C32.7963 141.557 31.1334 142.625 29.6807 143.945C29.7637 143.795 29.8467 143.64 29.9353 143.491C31.3462 142.199 32.8581 141.022 34.4567 139.971C37.1132 138.267 39.5925 137.359 39.9909 136.097C40.3894 134.835 37.2238 136.213 34.1911 138.449C32.82 139.476 31.6288 140.724 30.6658 142.141C31.5291 140.635 32.4257 139.124 33.2946 137.68C34.3239 136.252 35.6684 135.079 37.2238 134.254C39.7142 133.048 41.7342 132.041 42.5201 130.38C43.3059 128.72 42.3375 129.019 39.836 131.122C38.1204 132.566 35.7794 134.409 34.3461 136.02C35.0434 134.913 35.7075 133.806 36.3107 132.86C37.6195 131.407 39.1071 130.126 40.7381 129.047C43.0901 127.635 44.2135 126.612 43.2727 126.23C42.6197 125.964 39.9079 128.023 37.9322 130.27L39.0999 128.482C39.2106 128.316 39.3268 128.134 39.4431 127.929C41.2253 126.507 42.9165 124.975 44.5069 123.341C47.3016 120.447 48.8014 117.408 47.1854 118.443Z" fill="#92E3A9"/>
<path opacity="0.6" d="M47.1854 118.443C45.7078 119.395 41.9611 125.156 39.5703 127.691C39.8471 127.215 40.1238 126.684 40.4005 126.158C40.7713 125.676 41.214 125.211 41.5073 124.758C41.9777 124.06 42.4205 123.346 42.8245 122.61C43.4682 121.465 43.9753 120.249 44.3353 118.985C44.7915 117.513 44.803 115.938 44.3685 114.459C44.2523 114.082 43.5162 111.808 42.8466 112.682C42.7474 112.828 42.6882 112.998 42.675 113.175C42.3928 114.835 42.5588 116.495 42.4703 118.205C42.343 120.729 40.8432 124.603 40.168 126.241C40.0241 126.484 39.8415 126.794 39.6146 127.148C40.7215 124.276 40.4281 120.419 39.4209 119.467C38.1702 118.294 38.7623 121.681 39.1553 124.581C39.3659 125.868 39.2615 127.188 38.8509 128.427C38.375 129.207 37.8381 130.087 37.2903 130.978L37.0191 131.332C37.3454 130.739 37.5999 130.109 37.7773 129.456C38.1481 127.735 37.2238 123.8 35.7905 123.922C34.3571 124.044 36.0284 126.435 36.5874 128.842C36.8636 130.16 36.7244 131.53 36.1889 132.766L36.0893 132.982C35.8292 133.386 35.5802 133.773 35.3367 134.138C34.7833 135.001 34.2298 135.798 33.7207 136.601C34.4065 135.437 34.921 134.181 35.2481 132.871C35.8015 130.342 35.0102 127.586 33.8922 126.922C32.7743 126.257 33.8922 130.956 34.0417 133.446C34.0797 134.894 33.7463 136.326 33.0732 137.608C32.3537 138.715 31.6564 139.822 30.9314 141.028C31.5047 139.373 31.9433 137.674 32.2431 135.948C32.7965 133.125 31.6564 130.89 30.5053 130.641C29.3542 130.391 30.0847 132.301 30.7599 136.108C31.1185 138.116 30.9449 140.182 30.2563 142.102C29.9519 142.6 29.6475 143.115 29.3265 143.651C29.0055 144.188 28.6181 144.941 28.2861 145.649C28.2861 144.941 28.3414 143.912 28.358 142.772C28.365 141.502 28.4667 140.235 28.6624 138.981C28.9115 137.531 29.0443 135.66 27.871 134.553C27.7952 134.462 27.7001 134.388 27.5925 134.337C27.4848 134.286 27.3674 134.26 27.2484 134.26C27.1295 134.26 27.012 134.286 26.9044 134.337C26.7968 134.388 26.7016 134.462 26.6258 134.553C26.4091 134.816 26.2847 135.143 26.2716 135.483C26.0503 137.348 26.6037 139.357 26.9081 141.161C27.1929 142.845 27.5867 144.509 28.0869 146.142C27.7935 146.789 27.5334 147.459 27.2623 148.106L26.8417 147.459C26.3491 146.69 25.8234 142.185 25.2589 140.076C24.6944 137.968 22.7021 136.878 22.8238 139.368C22.9456 141.858 26.255 146.85 26.255 146.85L27.1903 148.3C26.1942 150.874 25.5301 153.148 25.5301 153.148L26.3104 153.674C26.3104 153.674 26.1167 152.014 27.4726 148.51C27.9283 148.235 28.415 148.014 28.9225 147.852C31.6896 146.922 35.5636 147.896 37.4895 145.146C37.9488 144.482 37.9378 143.485 37.0467 143.247C36.3372 143.181 35.6282 143.378 35.0544 143.801C33.3112 144.941 31.8778 146.23 29.8467 146.889C29.7527 146.922 28.4355 147.47 27.7493 147.846C27.9485 147.37 28.1754 146.856 28.4355 146.319C29.0542 145.711 29.7225 145.156 30.4334 144.659C32.3205 143.325 34.7334 142.915 36.7147 141.692C37.3179 141.322 38.4469 139.678 36.9084 139.728C36.2221 139.728 35.2094 140.486 34.6006 140.785C32.7963 141.557 31.1334 142.625 29.6807 143.945C29.7637 143.795 29.8467 143.64 29.9353 143.491C31.3462 142.199 32.8581 141.022 34.4567 139.971C37.1132 138.267 39.5925 137.359 39.9909 136.097C40.3894 134.835 37.2238 136.213 34.1911 138.449C32.82 139.476 31.6288 140.724 30.6658 142.141C31.5291 140.635 32.4257 139.124 33.2946 137.68C34.3239 136.252 35.6684 135.079 37.2238 134.254C39.7142 133.048 41.7342 132.041 42.5201 130.38C43.3059 128.72 42.3375 129.019 39.836 131.122C38.1204 132.566 35.7794 134.409 34.3461 136.02C35.0434 134.913 35.7075 133.806 36.3107 132.86C37.6195 131.407 39.1071 130.126 40.7381 129.047C43.0901 127.635 44.2135 126.612 43.2727 126.23C42.6197 125.964 39.9079 128.023 37.9322 130.27L39.0999 128.482C39.2106 128.316 39.3268 128.134 39.4431 127.929C41.2253 126.507 42.9165 124.975 44.5069 123.341C47.3016 120.447 48.8014 117.408 47.1854 118.443Z" fill="white"/>
<path d="M63.4117 118.593C61.9286 119.55 58.1819 125.311 55.7911 127.84C56.0678 127.37 56.3445 126.839 56.6212 126.307C56.992 125.831 57.4348 125.361 57.7281 124.913C58.1985 124.215 58.6412 123.501 59.0452 122.765C59.688 121.62 60.195 120.403 60.5561 119.141C61.0115 117.668 61.0249 116.094 60.5948 114.614C60.4731 114.237 59.737 111.963 59.0674 112.832C58.9688 112.98 58.9098 113.152 58.8958 113.33C58.6191 114.99 58.7796 116.65 58.691 118.355C58.5637 120.884 57.064 124.758 56.3888 126.396C56.2449 126.639 56.0623 126.949 55.8354 127.303C56.9422 124.426 56.6544 120.568 55.6417 119.622C54.391 118.449 54.9831 121.836 55.376 124.736C55.59 126.021 55.4855 127.34 55.0717 128.576C54.5957 129.362 54.0589 130.237 53.511 131.133C53.4169 131.249 53.3284 131.371 53.2398 131.487C53.5471 130.892 53.783 130.262 53.9427 129.611C54.319 127.89 53.3893 123.955 51.9559 124.077C50.5225 124.199 52.1939 126.59 52.7528 128.997C53.0297 130.313 52.8904 131.682 52.3544 132.915L52.2548 133.137C51.9946 133.535 51.7456 133.928 51.5021 134.293C50.9487 135.151 50.3953 135.953 49.8861 136.756C50.5729 135.591 51.0874 134.333 51.4136 133.02C51.967 130.497 51.1756 127.741 50.0577 127.077C48.9398 126.412 50.0853 131.111 50.2071 133.601C50.2451 135.049 49.9117 136.481 49.2386 137.763C48.5192 138.87 47.8218 139.977 47.0969 141.183C47.6767 139.53 48.1227 137.833 48.4306 136.108C48.984 133.286 47.844 131.05 46.6929 130.801C45.5418 130.552 46.2723 132.461 46.953 136.269C47.307 138.277 47.1315 140.343 46.4438 142.262C46.1395 142.761 45.8351 143.275 45.5141 143.812C45.1931 144.349 44.8057 145.101 44.4737 145.804C44.4737 145.101 44.529 144.072 44.5456 142.927C44.5528 141.659 44.6545 140.394 44.85 139.141C45.099 137.691 45.2318 135.821 44.0586 134.714C43.9828 134.622 43.8877 134.548 43.78 134.498C43.6724 134.447 43.5549 134.421 43.436 134.421C43.317 134.421 43.1996 134.447 43.0919 134.498C42.9843 134.548 42.8892 134.622 42.8134 134.714C42.5967 134.977 42.4723 135.303 42.4592 135.644C42.2378 137.503 42.7913 139.517 43.0956 141.322C43.3808 142.995 43.7746 144.647 44.2744 146.269C43.9811 146.922 43.721 147.586 43.4498 148.239L43.0292 147.586C42.5367 146.817 42.0109 142.318 41.4464 140.209C40.8819 138.101 38.8896 137.01 39.0114 139.501C39.1331 141.991 42.4426 146.978 42.4426 146.978L43.3779 148.428C42.3817 151.006 41.7176 153.281 41.7176 153.281L42.4979 153.807C42.4979 153.807 42.3042 152.147 43.6601 148.643C44.1084 148.389 44.5836 148.185 45.0769 148.035C47.844 147.105 51.7179 148.084 53.6438 145.334C54.1032 144.664 54.0921 143.646 53.2011 143.436C52.4914 143.367 51.7814 143.564 51.2088 143.989C49.4655 145.129 48.0321 146.419 46.0011 147.077C45.907 147.105 44.5899 147.658 43.9036 148.035C44.1029 147.553 44.3298 147.044 44.5899 146.502C45.2099 145.895 45.878 145.34 46.5877 144.841C48.4804 143.508 50.8878 143.098 52.869 141.875C53.4778 141.504 54.6013 139.861 53.0627 139.905C52.3765 139.905 51.3637 140.669 50.755 140.962C48.9515 141.738 47.289 142.808 45.8351 144.127L46.0896 143.668C47.5091 142.385 49.0284 141.218 50.6332 140.176C53.2896 138.466 55.769 137.564 56.1674 136.302C56.5659 135.04 53.4003 136.418 50.3676 138.654C48.9965 139.681 47.8053 140.929 46.8423 142.345C47.7056 140.84 48.6022 139.329 49.471 137.879C50.4953 136.448 51.8337 135.271 53.3837 134.437C55.8741 133.231 57.8941 132.223 58.68 130.535C59.4658 128.848 58.4973 129.168 55.9959 131.277C54.2803 132.716 51.9393 134.564 50.5059 136.175C51.2033 135.04 51.8674 133.961 52.4706 133.009C53.7813 131.56 55.2687 130.281 56.898 129.202C59.25 127.785 60.3734 126.767 59.4326 126.385C58.7796 126.119 56.0678 128.178 54.0921 130.425C54.6455 129.611 55.0219 128.997 55.2598 128.637C55.3705 128.471 55.4867 128.289 55.603 128.084C57.3864 126.663 59.0794 125.133 60.6723 123.501C63.5169 120.602 65.0166 117.563 63.4117 118.593Z" fill="#92E3A9"/>
<path opacity="0.6" d="M63.4117 118.593C61.9286 119.55 58.1819 125.311 55.7911 127.84C56.0678 127.37 56.3445 126.839 56.6212 126.307C56.992 125.831 57.4348 125.361 57.7281 124.913C58.1985 124.215 58.6412 123.501 59.0452 122.765C59.688 121.62 60.195 120.403 60.5561 119.141C61.0115 117.668 61.0249 116.094 60.5948 114.614C60.4731 114.237 59.737 111.963 59.0674 112.832C58.9688 112.98 58.9098 113.152 58.8958 113.33C58.6191 114.99 58.7796 116.65 58.691 118.355C58.5637 120.884 57.064 124.758 56.3888 126.396C56.2449 126.639 56.0623 126.949 55.8354 127.303C56.9422 124.426 56.6544 120.568 55.6417 119.622C54.391 118.449 54.9831 121.836 55.376 124.736C55.59 126.021 55.4855 127.34 55.0717 128.576C54.5957 129.362 54.0589 130.237 53.511 131.133C53.4169 131.249 53.3284 131.371 53.2398 131.487C53.5471 130.892 53.783 130.262 53.9427 129.611C54.319 127.89 53.3893 123.955 51.9559 124.077C50.5225 124.199 52.1939 126.59 52.7528 128.997C53.0297 130.313 52.8904 131.682 52.3544 132.915L52.2548 133.137C51.9946 133.535 51.7456 133.928 51.5021 134.293C50.9487 135.151 50.3953 135.953 49.8861 136.756C50.5729 135.591 51.0874 134.333 51.4136 133.02C51.967 130.497 51.1756 127.741 50.0577 127.077C48.9398 126.412 50.0853 131.111 50.2071 133.601C50.2451 135.049 49.9117 136.481 49.2386 137.763C48.5192 138.87 47.8218 139.977 47.0969 141.183C47.6767 139.53 48.1227 137.833 48.4306 136.108C48.984 133.286 47.844 131.05 46.6929 130.801C45.5418 130.552 46.2723 132.461 46.953 136.269C47.307 138.277 47.1315 140.343 46.4438 142.262C46.1395 142.761 45.8351 143.275 45.5141 143.812C45.1931 144.349 44.8057 145.101 44.4737 145.804C44.4737 145.101 44.529 144.072 44.5456 142.927C44.5528 141.659 44.6545 140.394 44.85 139.141C45.099 137.691 45.2318 135.821 44.0586 134.714C43.9828 134.622 43.8877 134.548 43.78 134.498C43.6724 134.447 43.5549 134.421 43.436 134.421C43.317 134.421 43.1996 134.447 43.0919 134.498C42.9843 134.548 42.8892 134.622 42.8134 134.714C42.5967 134.977 42.4723 135.303 42.4592 135.644C42.2378 137.503 42.7913 139.517 43.0956 141.322C43.3808 142.995 43.7746 144.647 44.2744 146.269C43.9811 146.922 43.721 147.586 43.4498 148.239L43.0292 147.586C42.5367 146.817 42.0109 142.318 41.4464 140.209C40.8819 138.101 38.8896 137.01 39.0114 139.501C39.1331 141.991 42.4426 146.978 42.4426 146.978L43.3779 148.428C42.3817 151.006 41.7176 153.281 41.7176 153.281L42.4979 153.807C42.4979 153.807 42.3042 152.147 43.6601 148.643C44.1084 148.389 44.5836 148.185 45.0769 148.035C47.844 147.105 51.7179 148.084 53.6438 145.334C54.1032 144.664 54.0921 143.646 53.2011 143.436C52.4914 143.367 51.7814 143.564 51.2088 143.989C49.4655 145.129 48.0321 146.419 46.0011 147.077C45.907 147.105 44.5899 147.658 43.9036 148.035C44.1029 147.553 44.3298 147.044 44.5899 146.502C45.2099 145.895 45.878 145.34 46.5877 144.841C48.4804 143.508 50.8878 143.098 52.869 141.875C53.4778 141.504 54.6013 139.861 53.0627 139.905C52.3765 139.905 51.3637 140.669 50.755 140.962C48.9515 141.738 47.289 142.808 45.8351 144.127L46.0896 143.668C47.5091 142.385 49.0284 141.218 50.6332 140.176C53.2896 138.466 55.769 137.564 56.1674 136.302C56.5659 135.04 53.4003 136.418 50.3676 138.654C48.9965 139.681 47.8053 140.929 46.8423 142.345C47.7056 140.84 48.6022 139.329 49.471 137.879C50.4953 136.448 51.8337 135.271 53.3837 134.437C55.8741 133.231 57.8941 132.223 58.68 130.535C59.4658 128.848 58.4973 129.168 55.9959 131.277C54.2803 132.716 51.9393 134.564 50.5059 136.175C51.2033 135.04 51.8674 133.961 52.4706 133.009C53.7813 131.56 55.2687 130.281 56.898 129.202C59.25 127.785 60.3734 126.767 59.4326 126.385C58.7796 126.119 56.0678 128.178 54.0921 130.425C54.6455 129.611 55.0219 128.997 55.2598 128.637C55.3705 128.471 55.4867 128.289 55.603 128.084C57.3864 126.663 59.0794 125.133 60.6723 123.501C63.5169 120.602 65.0166 117.563 63.4117 118.593Z" fill="white"/>
<path d="M235.598 13.7747C235.598 13.7747 233.478 7.68706 227.379 7.41588C221.281 7.14471 222.343 12.9833 218.104 14.5716C213.865 16.1599 212.271 11.6551 208.557 12.7177C204.844 13.7802 207.235 16.6912 204.053 17.7538C200.87 18.8164 201.136 15.8998 196.366 18.3072C191.595 20.7146 190.532 21.4894 189.47 21.755C188.407 22.0207 178.866 23.609 178.866 23.609H244.878C244.878 23.609 246.738 17.7759 243.024 15.3907C239.311 13.0054 239.577 15.8998 235.598 13.7747Z" fill="#92E3A9"/>
<path opacity="0.7" d="M235.598 13.7747C235.598 13.7747 233.478 7.68706 227.379 7.41588C221.281 7.14471 222.343 12.9833 218.104 14.5716C213.865 16.1599 212.271 11.6551 208.557 12.7177C204.844 13.7802 207.235 16.6912 204.053 17.7538C200.87 18.8164 201.136 15.8998 196.366 18.3072C191.595 20.7146 190.532 21.4894 189.47 21.755C188.407 22.0207 178.866 23.609 178.866 23.609H244.878C244.878 23.609 246.738 17.7759 243.024 15.3907C239.311 13.0054 239.577 15.8998 235.598 13.7747Z" fill="white"/>
<path d="M114.299 3.92381C114.299 3.92381 113.009 0.226954 109.318 0.0498598C105.627 -0.127235 106.269 3.4202 103.695 4.38868C101.122 5.35717 100.159 2.61773 97.9064 3.28184C95.654 3.94595 97.104 5.69475 95.1781 6.33672C93.2522 6.97869 93.4071 5.22988 90.5127 6.65771C87.6183 8.08553 86.9819 8.58914 86.3344 8.74964C85.6869 8.91013 79.9092 9.85648 79.9092 9.85648H119.927C119.927 9.85648 121.034 6.32012 118.82 4.87569C116.607 3.43126 116.706 5.20774 114.299 3.92381Z" fill="#92E3A9"/>
<path opacity="0.8" d="M114.299 3.92381C114.299 3.92381 113.009 0.226954 109.318 0.0498598C105.627 -0.127235 106.269 3.4202 103.695 4.38868C101.122 5.35717 100.159 2.61773 97.9064 3.28184C95.654 3.94595 97.104 5.69475 95.1781 6.33672C93.2522 6.97869 93.4071 5.22988 90.5127 6.65771C87.6183 8.08553 86.9819 8.58914 86.3344 8.74964C85.6869 8.91013 79.9092 9.85648 79.9092 9.85648H119.927C119.927 9.85648 121.034 6.32012 118.82 4.87569C116.607 3.43126 116.706 5.20774 114.299 3.92381Z" fill="white"/>
<path d="M46.9806 68.901C46.9806 68.901 45.2484 63.9202 40.2731 63.7099C35.2979 63.4996 36.1557 68.2535 32.6968 69.554C29.2379 70.8546 27.9318 67.1688 24.9046 68.0376C21.8774 68.9065 23.7978 71.2807 21.2244 72.1496C18.651 73.0184 18.8447 70.6332 14.9486 72.5812C11.0525 74.5293 10.1892 75.1768 9.3203 75.3981C8.45143 75.6195 0.664795 76.909 0.664795 76.909H54.5569C54.5569 76.909 56.0678 72.1496 53.0406 70.2015C50.0133 68.2535 50.2236 70.6443 46.9806 68.901Z" fill="#92E3A9"/>
<g opacity="0.7">
<path d="M46.9806 68.901C46.9806 68.901 45.2484 63.9202 40.2731 63.7099C35.2979 63.4996 36.1557 68.2535 32.6968 69.554C29.2379 70.8546 27.9318 67.1688 24.9046 68.0376C21.8774 68.9065 23.7978 71.2807 21.2244 72.1496C18.651 73.0184 18.8447 70.6332 14.9486 72.5812C11.0525 74.5293 10.1892 75.1768 9.3203 75.3981C8.45143 75.6195 0.664795 76.909 0.664795 76.909H54.5569C54.5569 76.909 56.0678 72.1496 53.0406 70.2015C50.0133 68.2535 50.2236 70.6443 46.9806 68.901Z" fill="white"/>
</g>
<path d="M110.995 167.687C143.412 167.687 169.691 165.823 169.691 163.525C169.691 161.226 143.412 159.363 110.995 159.363C78.578 159.363 52.299 161.226 52.299 163.525C52.299 165.823 78.578 167.687 110.995 167.687Z" fill="#92E3A9"/>
<path d="M165.994 160.758C184.372 160.758 199.271 159.826 199.271 158.677C199.271 157.528 184.372 156.596 165.994 156.596C147.615 156.596 132.717 157.528 132.717 158.677C132.717 159.826 147.615 160.758 165.994 160.758Z" fill="#92E3A9"/>
<g opacity="0.6">
<path d="M110.995 167.687C143.412 167.687 169.691 165.823 169.691 163.525C169.691 161.226 143.412 159.363 110.995 159.363C78.578 159.363 52.299 161.226 52.299 163.525C52.299 165.823 78.578 167.687 110.995 167.687Z" fill="white"/>
<path d="M165.994 160.758C184.372 160.758 199.271 159.826 199.271 158.677C199.271 157.528 184.372 156.596 165.994 156.596C147.615 156.596 132.717 157.528 132.717 158.677C132.717 159.826 147.615 160.758 165.994 160.758Z" fill="white"/>
</g>
<path d="M110.569 101.47L120.89 94.076" stroke="#263238" stroke-width="0.835087" stroke-linecap="round" stroke-linejoin="round"/>
<path d="M143.193 152.833L142.612 159.391C142.612 159.391 139.673 160.68 139.679 161.112C139.684 161.544 140.232 162.136 142.628 162.136C145.025 162.136 145.805 161.228 145.805 160.547C145.805 159.867 150.908 154.194 150.908 154.194C151.033 153.854 151.067 153.486 151.008 153.129C150.949 152.771 150.798 152.434 150.57 152.152C149.773 151.244 147.05 151.134 147.05 151.134L143.193 152.833Z" fill="#92E3A9"/>
<path d="M139.684 161.549C139.684 161.549 143.674 161.289 144.742 160.68C145.811 160.071 149.613 154.283 149.917 153.823C150.116 153.448 150.221 153.03 150.221 152.606" stroke="#263238" stroke-width="0.417543" stroke-linecap="round" stroke-linejoin="round"/>
<path d="M148.306 151.228C148.306 151.228 151.544 151.842 151.234 153.231C150.924 154.62 145.844 160.78 145.075 161.532C144.305 162.285 139.54 162.302 139.684 161.532C139.828 160.763 142.612 159.374 142.612 159.374L143.536 153.84" stroke="#263238" stroke-width="0.835087" stroke-linecap="round" stroke-linejoin="round"/>
<path d="M80.125 158.162L70.5951 162.816C70.5951 162.816 69.3499 163.724 71.8458 163.724C74.3418 163.724 87.4966 163.835 87.4966 163.835C87.4966 163.835 88.9742 164.178 89.3118 163.497C89.8652 162.39 90.1087 161.682 89.7656 161.339C89.4225 160.996 80.125 158.162 80.125 158.162Z" fill="#92E3A9"/>
<path d="M71.4916 162.656H88.3986" stroke="#263238" stroke-width="0.417543" stroke-linecap="round" stroke-linejoin="round"/>
<path d="M79.4831 158.754C79.4831 158.754 69.7761 162.916 69.931 163.375C70.086 163.835 79.7875 163.84 83.4843 163.84C87.1812 163.84 89.8044 163.995 89.8044 163.071" stroke="#263238" stroke-width="0.835087" stroke-linecap="round" stroke-linejoin="round"/>
<path d="M148.306 151.228L116.269 127.813L115.162 104.242C113.981 105.282 112.649 106.134 111.211 106.772C109.229 107.53 97.7515 113.33 97.7515 113.33C97.7515 113.33 102.837 131.354 103.762 132.899C104.686 134.443 143.508 153.845 143.508 153.845L148.306 151.228Z" fill="#263238"/>
<path d="M89.7988 162.147C89.7988 162.147 88.5647 161.837 87.1811 161.527C85.7976 161.217 79.4775 158.76 79.4775 158.76C79.3524 158.257 79.3002 157.739 79.3225 157.221C79.3388 156.888 79.4304 156.562 79.5905 156.269C79.7505 155.975 79.9749 155.722 80.2468 155.528C80.2468 155.528 56.2117 123.485 55.5974 122.561C54.9831 121.636 55.4424 120.092 59.6042 116.86C63.7659 113.628 90.9942 97.0092 90.9942 97.0092C89.9482 95.7695 91.9184 95.0058 91.9184 95.0058L94.3867 95.775L110.563 101.475L117.033 97.1641C117.033 97.1641 118.112 101.165 114.105 104.248C110.098 107.33 73.4674 123.618 73.4674 123.618L72.8586 123.656L89.3395 159.662C89.3395 159.662 90.4463 161.632 89.7988 162.147Z" fill="#263238"/>
<path d="M69.361 119.561L72.4048 123.369L71.1872 118.344" stroke="white" stroke-width="0.835087" stroke-linecap="round" stroke-linejoin="round"/>
<path d="M99.3619 113.623C99.3619 113.623 105.605 123.369 107.89 125.35" stroke="white" stroke-width="0.835087" stroke-linecap="round" stroke-linejoin="round"/>
<path d="M100.275 113.318C101.996 114.824 103.827 116.199 105.754 117.43" stroke="white" stroke-width="0.835087" stroke-linecap="round" stroke-linejoin="round"/>
<g style="mix-blend-mode:multiply">
<path d="M111.222 61.723L89.6051 76.4551L94.3313 95.9355L110.375 101.315L131.781 86.0625L129.197 66.4658L111.222 61.723Z" fill="#92E3A9"/>
</g>
<path d="M89.7214 76.4551L91.0939 82.5427" stroke="#263238" stroke-width="0.835087" stroke-linecap="round" stroke-linejoin="round"/>
<path d="M92.2339 86.9867L94.3922 95.7695L110.569 101.47L108.565 86.9867" stroke="#263238" stroke-width="0.835087" stroke-linecap="round" stroke-linejoin="round"/>
<path d="M108.41 85.7581L107.796 82.0613" stroke="#263238" stroke-width="0.835087" stroke-linecap="round" stroke-linejoin="round"/>
<path d="M127.514 89.4549L131.826 86.2174L129.667 67.8881" stroke="#263238" stroke-width="0.835087" stroke-linecap="round" stroke-linejoin="round"/>
<path d="M109.949 80.9821L121.659 72.1993" stroke="#263238" stroke-width="0.835087" stroke-linecap="round" stroke-linejoin="round"/>
<path d="M121.045 64.3407L111.338 61.723L90.0756 76.206" stroke="#263238" stroke-width="0.835087" stroke-linecap="round" stroke-linejoin="round"/>
<path d="M90.2305 76.8204L93.468 77.7446" stroke="#263238" stroke-width="0.835087" stroke-linecap="round" stroke-linejoin="round"/>
<path d="M99.0132 78.9787L107.796 81.4414" stroke="#263238" stroke-width="0.835087" stroke-linecap="round" stroke-linejoin="round"/>
<path d="M119.501 64.0364L106.252 74.2027" stroke="#263238" stroke-width="0.417543" stroke-linecap="round" stroke-linejoin="round"/>
<path d="M105.173 75.1269L100.397 78.8237" stroke="#263238" stroke-width="0.417543" stroke-linecap="round" stroke-linejoin="round"/>
<path d="M119.833 55.5358C119.833 55.5358 123.198 83.2899 123.198 84.524C123.198 85.7581 120.115 86.3724 120.115 87.9109C120.029 89.1726 119.77 90.4165 119.346 91.6078C119.346 91.6078 118.732 92.2276 118.732 92.7146C118.732 93.2016 119.811 93.0246 120.735 92.5652C121.659 92.1059 121.964 90.4069 121.964 90.4069C121.752 91.4248 121.599 92.454 121.504 93.4894L120.89 94.1037C120.89 94.1037 119.042 95.7972 120.27 95.9522C121.499 96.1071 127.205 93.9488 127.514 92.5652C127.824 91.1817 126.74 84.5517 126.74 84.5517C126.74 84.5517 131.211 53.2779 131.211 50.3503C131.233 49.5321 131.009 48.7261 130.57 48.0359C130.13 47.3456 129.494 46.8025 128.743 46.4763" fill="white"/>
<mask id="mask0_1522_4065" style="mask-type:luminance" maskUnits="userSpaceOnUse" x="118" y="46" width="14" height="50">
<path d="M119.833 55.5358C119.833 55.5358 123.198 83.2899 123.198 84.524C123.198 85.7581 120.115 86.3724 120.115 87.9109C120.029 89.1726 119.77 90.4165 119.346 91.6078C119.346 91.6078 118.732 92.2276 118.732 92.7146C118.732 93.2016 119.811 93.0246 120.735 92.5652C121.659 92.1059 121.964 90.4069 121.964 90.4069C121.752 91.4248 121.599 92.454 121.504 93.4894L120.89 94.1037C120.89 94.1037 119.042 95.7972 120.27 95.9522C121.499 96.1071 127.205 93.9488 127.514 92.5652C127.824 91.1817 126.74 84.5517 126.74 84.5517C126.74 84.5517 131.211 53.2779 131.211 50.3503C131.233 49.5321 131.009 48.7261 130.57 48.0359C130.13 47.3456 129.494 46.8025 128.743 46.4763" fill="white"/>
</mask>
<g mask="url(#mask0_1522_4065)">
<g style="mix-blend-mode:multiply" opacity="0.3">
<path d="M131.189 54.2464C130.542 51.7837 129.839 47.312 129.839 47.312L126.906 46.421L123.032 51.0753L126.092 49.1937V86.1234C126.092 88.0051 123.74 95.2936 123.74 95.2936C123.74 95.2936 128.605 94.2698 127.819 89.8424C127.033 85.4151 126.092 86.1234 127.503 77.1857C128.915 68.2479 131.859 56.7257 131.189 54.2464Z" fill="#92E3A9"/>
</g>
</g>
<path d="M119.833 55.5358C119.833 55.5358 123.198 83.2899 123.198 84.524C123.198 85.7581 120.115 86.3724 120.115 87.9109C120.029 89.1726 119.77 90.4165 119.346 91.6078C119.346 91.6078 118.732 92.2276 118.732 92.7146C118.732 93.2016 119.811 93.0246 120.735 92.5652C121.659 92.1059 121.964 90.4069 121.964 90.4069C121.752 91.4248 121.599 92.454 121.504 93.4894L120.89 94.1037C120.89 94.1037 119.042 95.7972 120.27 95.9522C121.499 96.1071 127.205 93.9488 127.514 92.5652C127.824 91.1817 126.74 84.5517 126.74 84.5517C126.74 84.5517 131.211 53.2779 131.211 50.3503C131.233 49.5321 131.009 48.7261 130.57 48.0359C130.13 47.3456 129.494 46.8025 128.743 46.4763" stroke="#263238" stroke-width="0.835087" stroke-linecap="round" stroke-linejoin="round"/>
<path d="M123.557 92.3051C123.725 92.9627 123.671 93.6573 123.403 94.2808C123.1 94.7758 122.743 95.236 122.34 95.6532" stroke="#263238" stroke-width="0.417543" stroke-linecap="round" stroke-linejoin="round"/>
<path d="M125.4 92.3051C125.31 92.9278 125.156 93.5397 124.941 94.1313" stroke="#263238" stroke-width="0.417543" stroke-linecap="round" stroke-linejoin="round"/>
<path d="M126.773 91.8457C126.68 92.468 126.526 93.0797 126.314 93.672" stroke="#263238" stroke-width="0.417543" stroke-linecap="round" stroke-linejoin="round"/>
<path d="M77.0037 34.1683C76.8266 32.5744 73.6389 29.5638 69.2116 28.6783C64.7842 27.7928 59.9971 27.7928 58.2262 29.2317C57.5621 29.7575 57.1193 30.9806 56.8315 32.2977C57.147 31.6225 57.7834 30.2556 58.442 29.7077C61.7017 26.9904 62.6093 28.6008 63.1516 30.975C63.694 33.3492 62.969 39.8298 62.969 39.8298C62.969 39.8298 55.5421 42.0047 56.6268 38.1972C56.4675 37.6546 56.3564 37.099 56.2947 36.5369C56.2947 36.8191 56.2947 36.9907 56.2947 36.9907L55.9405 39.2929L52.9299 39.8464L42.4703 39.5143C42.4703 39.5143 47.7942 42.8348 50.8048 42.8348C52.7503 42.7547 54.6145 42.0327 56.1066 40.7816L75.4763 42.2593C75.4763 42.2593 77.1808 35.7621 77.0037 34.1683Z" fill="#92E3A9"/>
<path d="M54.4241 39.6913L42.4481 39.5087C42.4481 39.5087 45.7686 42.641 50.196 42.641C54.6234 42.641 56.0955 40.7981 56.0955 40.7981L75.4652 42.2758C75.4652 42.2758 77.9943 37.4555 76.7049 33.2218C75.4154 28.9881 63.7936 27.5658 60.5616 28.3462C56.5659 29.3146 56.3002 32.6905 56.3002 34.5334C56.2711 35.8926 56.1472 37.248 55.9295 38.59" stroke="#263238" stroke-width="0.835087" stroke-linecap="round" stroke-linejoin="round"/>
<mask id="mask1_1522_4065" style="mask-type:luminance" maskUnits="userSpaceOnUse" x="54" y="41" width="23" height="24">
<path d="M55.3483 41.3516C55.3483 41.3516 53.3173 46.1442 54.2415 46.8858C55.1657 47.6274 55.7136 47.9926 55.7136 47.9926C55.7136 47.9926 56.267 54.44 57.1857 55.5468C58.1044 56.6536 64.0039 54.8108 64.0039 54.8108C64.0039 54.8108 75.9633 66.7813 76.3507 64.5676C76.7381 62.3539 75.2438 54.0526 75.2438 53.145C75.2438 52.2374 72.6649 49.8244 72.6649 49.8244" fill="white"/>
</mask>
<g mask="url(#mask1_1522_4065)">
<g style="mix-blend-mode:multiply" opacity="0.3">
<path d="M65.6199 41.6228L57.8 41.7611C57.8 41.7611 55.5864 45.054 56.1398 46.0169C56.5681 46.6827 57.1342 47.2489 57.8 47.6772C57.8 47.6772 57.2466 52.0714 57.9384 53.5822C58.6302 55.093 64.1146 54.4013 64.1146 54.4013C62.9009 55.1189 61.5365 55.5434 60.1299 55.6409C57.5233 55.9121 56.7043 55.3642 56.2892 53.8534C55.8741 52.3425 55.7358 48.0037 55.7358 48.0037L53.8265 46.0169L55.199 42.309L56.7098 40.8037L65.6199 41.6228Z" fill="#92E3A9"/>
</g>
</g>
<path d="M55.3483 41.3516C55.3483 41.3516 53.3173 46.1442 54.2415 46.8858C55.1657 47.6274 55.7136 47.9926 55.7136 47.9926C55.7136 47.9926 56.267 54.44 57.1857 55.5468C58.1044 56.6536 64.0039 54.8108 64.0039 54.8108C64.0039 54.8108 75.9633 66.7813 76.3507 64.5676C76.7381 62.3539 75.2438 54.0526 75.2438 53.145C75.2438 52.2374 72.6649 49.8244 72.6649 49.8244" stroke="#263238" stroke-width="0.835087" stroke-linecap="round" stroke-linejoin="round"/>
<path d="M66.0349 41.5342C66.0349 41.5342 66.4002 43.1944 67.507 43.3771C68.6139 43.5597 69.5325 41.7168 69.5325 41.7168L66.0349 41.5342Z" fill="#263238"/>
<path d="M75.4099 42.2759C75.4099 42.2759 76.5167 45.5964 75.2217 47.4338C73.9267 49.2711 73.3843 49.2766 73.3843 49.2766C72.2775 51.1195 69.3278 47.063 69.3278 47.063C69.3278 47.063 71.5414 46.9633 72.0949 45.4912C72.6483 44.0191 71.8735 41.8663 71.8735 41.8663L75.4099 42.2759Z" fill="#263238"/>
<path d="M72.0893 42.2759C72.0893 42.2759 72.6428 44.8548 72.0893 46.1498C71.5359 47.4448 69.3222 47.0685 69.3222 47.0685L68.2154 49.8356" stroke="#263238" stroke-width="0.835087" stroke-linecap="round" stroke-linejoin="round"/>
<path d="M57.0253 49.0552C57.0253 49.0552 59.1615 49.5146 60.5284 47.074" stroke="#263238" stroke-width="0.626315" stroke-linecap="round" stroke-linejoin="round"/>
<path d="M94.9549 61.0425L90.4265 62.7104L92.9838 69.6537L97.5122 67.9858L94.9549 61.0425Z" fill="#263238"/>
<path d="M94.1624 62.5957L91.9968 63.3934L93.1827 66.6131L95.3483 65.8155L94.1624 62.5957Z" fill="white"/>
<path d="M92.5661 59.9832L91.6106 60.3351L92.3891 62.4488L93.3446 62.0968L92.5661 59.9832Z" fill="white" stroke="#263238" stroke-width="0.417543" stroke-linecap="round" stroke-linejoin="round"/>
<path d="M87.8231 90.3239L91.924 95.0003" stroke="#263238" stroke-width="0.835087" stroke-linecap="round" stroke-linejoin="round"/>
<mask id="mask2_1522_4065" style="mask-type:luminance" maskUnits="userSpaceOnUse" x="111" y="0" width="114" height="151">
<path d="M112.052 42.2537L113.087 42.6522L127.852 45.3528C127.852 45.3528 130.259 46.6202 131.106 47.9705C131.953 49.3209 131.189 54.2463 131.189 54.2463L129.645 65.835L132.119 86.6104L127.802 89.8479L127.968 91.9011C128.084 91.9343 127.941 94.6405 121.537 95.775C121.537 95.775 120.209 96.4391 119.822 96.1458C118.842 95.4098 119.628 95.4706 119.628 95.4706L117.038 97.1309C117.176 98.4367 117.036 99.7568 116.629 101.005C115.953 103.219 115.489 103.65 115.489 103.65L116.667 124.243L119.506 128.288L156.586 150.796H224.944V0H111.216V41.9382L112.052 42.2537Z" fill="white"/>
</mask>
<g mask="url(#mask2_1522_4065)">
<path d="M129.949 32.6242L125.882 34.9707L123.585 30.9584L127.647 28.6174L129.949 32.6242Z" stroke="#263238" stroke-width="0.835087" stroke-linecap="round" stroke-linejoin="round"/>
<path d="M128.577 28.0585L122.174 31.7553L118.361 24.6937L124.764 20.9968L128.577 28.0585Z" stroke="#263238" stroke-width="0.835087" stroke-linecap="round" stroke-linejoin="round"/>
<path d="M190.226 117.782C209.452 98.5559 209.452 67.3837 190.226 48.1573C170.999 28.9309 139.827 28.9309 120.601 48.1573C101.374 67.3837 101.374 98.5559 120.601 117.782C139.827 137.009 170.999 137.009 190.226 117.782Z" fill="white"/>
<path d="M155.844 25.2914C144.603 25.2881 133.614 28.6184 124.266 34.861C114.918 41.1037 107.631 49.9783 103.327 60.3625C99.0234 70.7466 97.8956 82.1739 100.087 93.1991C102.278 104.224 107.689 114.352 115.636 122.302C123.583 130.251 133.71 135.666 144.734 137.86C155.759 140.054 167.186 138.929 177.572 134.629C187.957 130.328 196.834 123.044 203.079 113.697C209.325 104.351 212.658 93.363 212.658 82.1222C212.658 67.0526 206.673 52.6 196.019 41.9426C185.364 31.2852 170.914 25.2958 155.844 25.2914ZM155.844 131.354C146.102 131.354 136.58 128.466 128.48 123.054C120.38 117.641 114.067 109.949 110.339 100.949C106.611 91.9488 105.635 82.0454 107.536 72.491C109.436 62.9365 114.127 54.1602 121.016 47.2719C127.904 40.3835 136.681 35.6925 146.235 33.792C155.789 31.8915 165.693 32.8669 174.693 36.5949C183.693 40.3228 191.385 46.6359 196.798 54.7357C202.21 62.8356 205.098 72.3584 205.098 82.1C205.098 88.5682 203.824 94.9731 201.349 100.949C198.874 106.925 195.246 112.354 190.672 116.928C186.098 121.502 180.669 125.13 174.693 127.605C168.717 130.08 162.312 131.354 155.844 131.354Z" fill="#263238" stroke="#263238" stroke-width="0.835087" stroke-linecap="round" stroke-linejoin="round"/>
<path d="M190.715 39.2541C185.051 34.6393 178.528 31.195 171.522 29.121" stroke="white" stroke-width="1.67017" stroke-linecap="round" stroke-linejoin="round"/>
<path d="M166.282 27.8482C164.269 27.4663 162.236 27.1947 160.194 27.0347" stroke="white" stroke-width="1.67017" stroke-linecap="round" stroke-linejoin="round"/>
<path d="M197.295 112.505C203.935 103.438 207.421 92.4465 207.221 81.2107C207.022 69.9748 203.146 59.1138 196.188 50.2893" stroke="white" stroke-width="0.835087" stroke-linecap="round" stroke-linejoin="round"/>
<path d="M190.112 120.413C191.726 118.972 193.245 117.428 194.661 115.792" stroke="white" stroke-width="0.835087" stroke-linecap="round" stroke-linejoin="round"/>
<path d="M134.952 129.085C143.59 132.921 153.116 134.305 162.488 133.085C171.859 131.864 180.714 128.087 188.081 122.168" stroke="white" stroke-width="0.835087" stroke-linecap="round" stroke-linejoin="round"/>
<path d="M127.62 125.073C129.157 126.081 130.747 127.004 132.385 127.84" stroke="white" stroke-width="0.835087" stroke-linecap="round" stroke-linejoin="round"/>
<path d="M122.107 120.889C123.404 122.017 124.756 123.079 126.159 124.071" stroke="white" stroke-width="0.835087" stroke-linecap="round" stroke-linejoin="round"/>
<path d="M141.632 32.7238C132.899 35.2385 124.989 40.0236 118.708 46.5913C112.427 53.159 107.999 61.2746 105.876 70.111C103.754 78.9473 104.011 88.1885 106.623 96.8928C109.236 105.597 114.109 113.453 120.746 119.661" stroke="white" stroke-width="0.835087" stroke-linecap="round" stroke-linejoin="round"/>
<path d="M192.182 45.7845C186.17 39.7805 178.765 35.3582 170.629 32.9121C162.492 30.4661 153.876 30.0725 145.55 31.7664" stroke="white" stroke-width="0.835087" stroke-linecap="round" stroke-linejoin="round"/>
<path d="M163.21 100.324H148.423V104.331H163.21V100.324Z" fill="#92E3A9"/>
<path d="M159.973 82.1222C159.972 81.1564 159.633 80.2212 159.014 79.4799C158.395 78.7385 157.536 78.238 156.586 78.0656L156.148 51.0199H155.534L155.102 78.0656C154.162 78.2346 153.309 78.7253 152.69 79.4537C152.071 80.1821 151.724 81.103 151.709 82.0587C151.694 83.0144 152.012 83.9457 152.607 84.6932C153.203 85.4407 154.04 85.958 154.975 86.1566L154.82 95.7529H156.868L156.713 86.1566C157.635 85.957 158.461 85.448 159.054 84.7142C159.647 83.9803 159.971 83.0656 159.973 82.1222ZM155.844 84.3358C155.406 84.3358 154.978 84.206 154.614 83.9628C154.25 83.7195 153.966 83.3738 153.799 82.9693C153.631 82.5648 153.587 82.1197 153.673 81.6903C153.758 81.2609 153.969 80.8664 154.279 80.5568C154.588 80.2472 154.983 80.0364 155.412 79.951C155.842 79.8656 156.287 79.9094 156.691 80.077C157.096 80.2445 157.441 80.5283 157.685 80.8923C157.928 81.2563 158.058 81.6843 158.058 82.1222C158.058 82.4129 158 82.7007 157.889 82.9693C157.778 83.2379 157.615 83.4819 157.409 83.6875C157.204 83.893 156.96 84.0561 156.691 84.1673C156.423 84.2786 156.135 84.3358 155.844 84.3358Z" fill="#263238"/>
<path d="M155.844 84.3967C157.1 84.3967 158.119 83.3783 158.119 82.1221C158.119 80.8659 157.1 79.8475 155.844 79.8475C154.588 79.8475 153.569 80.8659 153.569 82.1221C153.569 83.3783 154.588 84.3967 155.844 84.3967Z" fill="#92E3A9"/>
<path d="M155.844 35.6514V43.8475" stroke="#263238" stroke-width="3.34035" stroke-linecap="round" stroke-linejoin="round"/>
<path d="M155.844 120.679V128.875" stroke="#263238" stroke-width="3.34035" stroke-linecap="round" stroke-linejoin="round"/>
<path d="M132.539 41.8995L136.635 48.9944" stroke="#263238" stroke-width="3.34035" stroke-linecap="round" stroke-linejoin="round"/>
<path d="M175.053 115.532L179.149 122.633" stroke="#263238" stroke-width="3.34035" stroke-linecap="round" stroke-linejoin="round"/>
<path d="M115.477 58.9559L122.572 63.0568" stroke="#263238" stroke-width="3.34035" stroke-linecap="round" stroke-linejoin="round"/>
<path d="M189.11 101.47L196.211 105.571" stroke="#263238" stroke-width="3.34035" stroke-linecap="round" stroke-linejoin="round"/>
<path d="M202.453 82.266H194.257" stroke="#263238" stroke-width="3.34035" stroke-linecap="round" stroke-linejoin="round"/>
<path d="M117.426 82.266H109.229" stroke="#263238" stroke-width="3.34035" stroke-linecap="round" stroke-linejoin="round"/>
<path d="M202.453 82.266H194.257" stroke="#263238" stroke-width="3.34035" stroke-linecap="round" stroke-linejoin="round"/>
<path d="M117.426 82.266H109.229" stroke="#263238" stroke-width="3.34035" stroke-linecap="round" stroke-linejoin="round"/>
<path d="M196.211 58.9559L189.11 63.0568" stroke="#263238" stroke-width="3.34035" stroke-linecap="round" stroke-linejoin="round"/>
<path d="M122.572 101.47L115.477 105.571" stroke="#263238" stroke-width="3.34035" stroke-linecap="round" stroke-linejoin="round"/>
<path d="M179.149 41.8995L175.053 48.9944" stroke="#263238" stroke-width="3.34035" stroke-linecap="round" stroke-linejoin="round"/>
<path d="M136.635 115.532L132.539 122.633" stroke="#263238" stroke-width="3.34035" stroke-linecap="round" stroke-linejoin="round"/>
<path d="M158.19 23.5038H153.497V27.6544H158.19V23.5038Z" stroke="#263238" stroke-width="0.835087" stroke-linecap="round" stroke-linejoin="round"/>
<path d="M159.541 12.4132H152.147V23.2658H159.541V12.4132Z" stroke="#263238" stroke-width="0.835087" stroke-linecap="round" stroke-linejoin="round"/>
<path d="M161.079 4.776H150.376V12.1697H161.079V4.776Z" fill="#92E3A9"/>
<path d="M161.196 4.776H150.492V12.1697H161.196V4.776Z" stroke="#263238" stroke-width="0.835087" stroke-linecap="round" stroke-linejoin="round"/>
<path d="M151.682 9.37492V4.94202" stroke="#263238" stroke-width="0.835087" stroke-linecap="round" stroke-linejoin="round"/>
<path d="M151.682 12.3081V10.3988" stroke="#263238" stroke-width="0.835087" stroke-linecap="round" stroke-linejoin="round"/>
<path d="M153.044 12.308V4.94202" stroke="#263238" stroke-width="0.835087" stroke-linecap="round" stroke-linejoin="round"/>
<path d="M154.405 6.78491V4.94202" stroke="#263238" stroke-width="0.835087" stroke-linecap="round" stroke-linejoin="round"/>
<path d="M154.405 12.3081V7.67041" stroke="#263238" stroke-width="0.835087" stroke-linecap="round" stroke-linejoin="round"/>
<path d="M156.658 12.308V4.94202" stroke="#263238" stroke-width="0.835087" stroke-linecap="round" stroke-linejoin="round"/>
</g>
<g style="mix-blend-mode:multiply" opacity="0.3">
<path d="M77.6955 63.4442L81.6746 63.7209L81.5418 62.2101C81.5418 62.2101 77.9722 61.9334 77.6955 63.4442Z" fill="#92E3A9"/>
</g>
<mask id="mask3_1522_4065" style="mask-type:luminance" maskUnits="userSpaceOnUse" x="62" y="62" width="13" height="36">
<path d="M68.9736 62.6472C68.9736 62.6472 62.5041 67.8881 62.5041 69.2883C62.5041 70.6884 62.0392 96.7103 62.3491 97.3246C62.6591 97.9389 74.8565 89.4549 74.8565 89.4549L73.6223 78.2094" fill="white"/>
</mask>
<g mask="url(#mask3_1522_4065)">
<g style="mix-blend-mode:multiply" opacity="0.3">
<path d="M66.7323 94.8397L74.8565 89.455L64.4798 93.4119C64.4798 93.4119 63.539 72.2436 64.2474 70.5999C64.9558 68.9562 69.4219 65.8958 69.4219 65.8958C69.4219 65.8958 69.1562 64.1913 70.5951 63.5438C71.582 63.1751 72.6687 63.1751 73.6556 63.5438L74.6794 63.9312C73.5006 63.2671 71.5968 61.9223 68.6692 59.1884H68.6028L69.3112 59.8691L69.0013 62.6362L65.8911 65.1764C65.1882 65.8848 62.5318 69.2606 62.5318 69.2606L62.3768 97.2969L66.5994 94.5796L66.7323 94.8397Z" fill="#92E3A9"/>
</g>
</g>
<path d="M68.9736 62.6472C68.9736 62.6472 62.5041 67.8881 62.5041 69.2883C62.5041 70.6884 62.0392 96.7103 62.3491 97.3246C62.6591 97.9389 74.8565 89.4549 74.8565 89.4549L73.6223 78.2094" stroke="#263238" stroke-width="0.835087" stroke-linecap="round" stroke-linejoin="round"/>
<path d="M70.2077 75.4368L83.3016 85.9131" stroke="#263238" stroke-width="0.835087" stroke-linecap="round" stroke-linejoin="round"/>
<mask id="mask4_1522_4065" style="mask-type:luminance" maskUnits="userSpaceOnUse" x="79" y="39" width="49" height="20">
<path d="M79.0735 51.7449C79.0735 51.7449 91.7745 39.6748 93.313 39.6748C94.8515 39.6748 120.27 44.7552 122.119 45.0651C123.967 45.375 127.05 45.9893 127.05 45.9893C127.05 45.9893 121.659 52.7687 119.811 55.0765C117.962 57.3843 117.044 58.7734 117.044 58.7734L96.2461 49.2268" fill="white"/>
</mask>
<g mask="url(#mask4_1522_4065)">
<g style="mix-blend-mode:multiply" opacity="0.3">
<path d="M126.906 46.421L119.019 43.997L93.313 39.6748L86.7992 46.8195C86.7992 46.8195 92.4441 43.2942 94.0877 43.2942C95.7314 43.2942 120.525 50.3448 122.866 51.0033L126.906 46.421Z" fill="#92E3A9"/>
</g>
</g>
<path d="M79.0735 51.7449C79.0735 51.7449 91.7745 39.6748 93.313 39.6748C94.8515 39.6748 120.27 44.7552 122.119 45.0651C123.967 45.375 127.05 45.9893 127.05 45.9893C127.05 45.9893 121.659 52.7687 119.811 55.0765C117.962 57.3843 117.044 58.7734 117.044 58.7734L96.2461 49.2268" stroke="#263238" stroke-width="0.835087" stroke-linecap="round" stroke-linejoin="round"/>
<path d="M99.7825 51.5566L105.023 65.4198" stroke="#263238" stroke-width="0.835087" stroke-linecap="round" stroke-linejoin="round"/>
<path d="M83.761 72.3543L82.5268 73.5884L76.5222 65.8848" stroke="#263238" stroke-width="0.835087" stroke-linecap="round" stroke-linejoin="round"/>
<path d="M93.8775 52.1046L99.9707 51.0365L94.7907 54.6891" stroke="#263238" stroke-width="0.417543" stroke-linecap="round" stroke-linejoin="round"/>
<path d="M73.5947 78.2095L65.8578 77.075" stroke="#263238" stroke-width="0.417543" stroke-linecap="round" stroke-linejoin="round"/>
<path d="M69.2835 59.8746C68.7274 61.2509 68.6726 62.7787 69.1286 64.1913C69.8978 66.4991 72.5155 70.5058 72.5155 70.5058L75.9024 65.7298" stroke="#263238" stroke-width="0.835087" stroke-linecap="round" stroke-linejoin="round"/>
<path d="M76.9816 63.8814C76.9816 63.8814 78.6806 62.3429 80.2191 62.3429H82.8368C82.8368 62.3429 82.3775 56.3328 80.2191 53.0953C78.0608 49.8577 75.1332 51.5568 75.1332 51.5568" stroke="#263238" stroke-width="0.835087" stroke-linecap="round" stroke-linejoin="round"/>
<path d="M74.209 90.3792L92.6988 81.7514L94.2373 76.361L100.552 74.9886C100.552 74.9886 101.786 73.7544 101.631 74.9886C101.476 76.2227 99.7826 76.682 99.1683 77.9162C98.554 79.1503 98.5484 81.613 97.7792 82.6922C97.0099 83.7714 94.2373 85.0055 94.2373 85.0055C94.2373 85.0055 73.4397 102.411 71.9012 103.335C70.3627 104.259 67.2802 95.4762 67.2802 95.4762" fill="white"/>
<mask id="mask5_1522_4065" style="mask-type:luminance" maskUnits="userSpaceOnUse" x="67" y="74" width="35" height="30">
<path d="M74.209 90.3792L92.6988 81.7514L94.2373 76.361L100.552 74.9886C100.552 74.9886 101.786 73.7544 101.631 74.9886C101.476 76.2227 99.7826 76.682 99.1683 77.9162C98.554 79.1503 98.5484 81.613 97.7792 82.6922C97.0099 83.7714 94.2373 85.0055 94.2373 85.0055C94.2373 85.0055 73.4397 102.411 71.9012 103.335C70.3627 104.259 67.2802 95.4762 67.2802 95.4762" fill="white"/>
</mask>
<g mask="url(#mask5_1522_4065)">
<g style="mix-blend-mode:multiply" opacity="0.3">
<path d="M66.7322 94.8398C67.4462 95.9853 70.3627 100.728 70.5674 102.588C70.8054 104.707 72.687 102.588 72.687 102.588L89.6217 88.481C89.6217 88.481 72.9195 99.0568 71.5359 98.5864C70.1524 98.116 69.8757 94.5907 69.8757 94.5907L74.8565 89.455L66.7322 94.8398Z" fill="#92E3A9"/>
</g>
</g>
<path d="M74.209 90.3792L92.6988 81.7514L94.2373 76.361L100.552 74.9886C100.552 74.9886 101.786 73.7544 101.631 74.9886C101.476 76.2227 99.7826 76.682 99.1683 77.9162C98.554 79.1503 98.5484 81.613 97.7792 82.6922C97.0099 83.7714 94.2373 85.0055 94.2373 85.0055C94.2373 85.0055 73.4397 102.411 71.9012 103.335C70.3627 104.259 67.2802 95.4762 67.2802 95.4762" stroke="#263238" stroke-width="0.835087" stroke-linecap="round" stroke-linejoin="round"/>
<path d="M100.552 74.9885C100.552 74.9885 97.5356 76.7871 97.84 77.3959" stroke="#263238" stroke-width="0.417543" stroke-linecap="round" stroke-linejoin="round"/>
<path d="M98.1444 75.553L95.8588 76.7706" stroke="#263238" stroke-width="0.417543" stroke-linecap="round" stroke-linejoin="round"/>
<path d="M15 180H257.444" stroke="#263238" stroke-linecap="round" stroke-linejoin="round"/>
</svg>
