<svg width="246" height="234" viewBox="0 0 246 234" fill="none" xmlns="http://www.w3.org/2000/svg">
<path d="M3.54089 232.622H244.922" stroke="#263238" stroke-linecap="round" stroke-linejoin="round"/>
<path d="M16.462 136.069L24.0798 209.041" stroke="#263238" stroke-width="2" stroke-miterlimit="10"/>
<path d="M22.8535 195.08L19.3976 191.433" stroke="#263238" stroke-width="2" stroke-miterlimit="10"/>
<path d="M20.4487 192.526C20.4408 191.968 20.3141 191.418 20.0771 190.913C19.84 190.408 19.4979 189.959 19.0737 189.596C18.1872 188.805 13.521 186.841 13.0804 188.486C12.5973 190.27 17.375 193.779 20.4487 192.526Z" fill="#92E3A9" stroke="#263238" stroke-miterlimit="10"/>
<path d="M20.4488 192.526L16.0055 189.755" stroke="#263238" stroke-width="0.5" stroke-miterlimit="10"/>
<path d="M23.7188 203.377L20.2629 199.73" stroke="#263238" stroke-width="2" stroke-miterlimit="10"/>
<path d="M21.3141 200.823C21.3079 200.265 21.182 199.715 20.9448 199.209C20.7076 198.703 20.3647 198.255 19.9392 197.893C19.0526 197.102 14.3917 195.143 13.9458 196.784C13.468 198.573 18.2404 202.076 21.3141 200.823Z" fill="#92E3A9" stroke="#263238" stroke-miterlimit="10"/>
<path d="M21.3141 200.824L16.8761 198.058" stroke="#263238" stroke-width="0.5" stroke-miterlimit="10"/>
<path d="M20.7354 174.827L17.2848 171.18" stroke="#263238" stroke-width="2" stroke-miterlimit="10"/>
<path d="M18.3359 172.274C18.3281 171.716 18.2014 171.166 17.9643 170.661C17.7272 170.155 17.3852 169.706 16.961 169.344C16.0745 168.553 11.4082 166.588 10.9676 168.234C10.4845 169.997 15.2569 173.527 18.3359 172.274Z" fill="#92E3A9" stroke="#263238" stroke-miterlimit="10"/>
<path d="M18.3359 172.274L13.8926 169.503" stroke="#263238" stroke-width="0.5" stroke-miterlimit="10"/>
<path d="M21.606 183.125L18.1501 179.478" stroke="#263238" stroke-width="2" stroke-miterlimit="10"/>
<path d="M19.2277 180.571C19.2199 180.013 19.0932 179.463 18.8561 178.958C18.619 178.453 18.277 178.004 17.8528 177.641C16.9663 176.85 12.3 174.891 11.8594 176.531C11.3498 178.32 16.1275 181.829 19.2277 180.571Z" fill="#92E3A9" stroke="#263238" stroke-miterlimit="10"/>
<path d="M19.2012 180.571L14.7579 177.805" stroke="#263238" stroke-width="0.5" stroke-miterlimit="10"/>
<path d="M19.3286 161.344L15.8781 157.697" stroke="#263238" stroke-width="2" stroke-miterlimit="10"/>
<path d="M16.9292 158.79C16.9213 158.232 16.7946 157.682 16.5576 157.177C16.3205 156.672 15.9784 156.223 15.5543 155.86C14.6677 155.069 10.0015 153.11 9.56087 154.75C9.07779 156.539 13.8502 160.048 16.9292 158.79Z" fill="#92E3A9" stroke="#263238" stroke-miterlimit="10"/>
<path d="M16.9291 158.79L12.4858 156.024" stroke="#263238" stroke-width="0.5" stroke-miterlimit="10"/>
<path d="M17.9165 147.807L14.4659 144.16" stroke="#263238" stroke-width="2" stroke-miterlimit="10"/>
<path d="M15.5118 145.248C15.5055 144.691 15.3801 144.142 15.1438 143.637C14.9076 143.133 14.566 142.684 14.1421 142.323C13.2556 141.532 8.58937 139.568 8.14876 141.213C7.66568 142.997 12.4381 146.506 15.5118 145.248Z" fill="#92E3A9" stroke="#263238" stroke-miterlimit="10"/>
<path d="M15.5117 145.248L11.0737 142.482" stroke="#263238" stroke-width="0.5" stroke-miterlimit="10"/>
<path d="M22.2696 190.169L24.8973 185.885" stroke="#263238" stroke-width="2" stroke-miterlimit="10"/>
<path d="M24.0957 187.17C23.9869 186.623 23.9965 186.059 24.1237 185.516C24.251 184.973 24.4931 184.464 24.8336 184.022C25.5396 183.066 29.6963 180.184 30.4713 181.697C31.3101 183.348 27.3605 187.764 24.0957 187.17Z" fill="#92E3A9" stroke="#263238" stroke-miterlimit="10"/>
<path d="M24.0957 187.17L28.0931 183.353" stroke="#263238" stroke-width="0.5" stroke-miterlimit="10"/>
<path d="M19.9922 168.33L22.6146 164.046" stroke="#263238" stroke-width="2" stroke-miterlimit="10"/>
<path d="M21.8184 165.33C21.7096 164.783 21.7191 164.219 21.8464 163.676C21.9737 163.133 22.2157 162.624 22.5563 162.182C23.257 161.227 27.4189 158.344 28.1887 159.857C29.0274 161.503 25.0672 165.925 21.8184 165.33Z" fill="#92E3A9" stroke="#263238" stroke-miterlimit="10"/>
<path d="M21.8184 165.33L25.8157 161.513" stroke="#263238" stroke-width="0.5" stroke-miterlimit="10"/>
<path d="M18.9889 158.732L21.6166 154.448" stroke="#263238" stroke-width="2" stroke-miterlimit="10"/>
<path d="M20.8204 155.738C20.7118 155.19 20.7215 154.625 20.8487 154.081C20.976 153.538 21.2179 153.027 21.5582 152.584C22.2643 151.629 26.4209 148.746 27.196 150.259C28.0294 151.91 24.0798 156.327 20.8204 155.738Z" fill="#92E3A9" stroke="#263238" stroke-miterlimit="10"/>
<path d="M20.815 155.738L24.8124 151.916" stroke="#263238" stroke-width="0.5" stroke-miterlimit="10"/>
<path d="M17.5237 144.659L20.1461 140.38" stroke="#263238" stroke-width="2" stroke-miterlimit="10"/>
<path d="M19.3445 141.665C19.2361 141.117 19.2463 140.553 19.3745 140.01C19.5027 139.467 19.7459 138.958 20.0877 138.517C20.7884 137.561 24.9451 134.673 25.7201 136.192C26.5589 137.843 22.6146 142.259 19.3445 141.665Z" fill="#92E3A9" stroke="#263238" stroke-miterlimit="10"/>
<path d="M19.3446 141.665L23.342 137.843" stroke="#263238" stroke-width="0.5" stroke-miterlimit="10"/>
<path d="M16.3983 135.666C16.2897 135.118 16.2994 134.553 16.4267 134.01C16.5539 133.466 16.7958 132.955 17.1362 132.513C17.8422 131.557 21.9988 128.675 22.7739 130.193C23.6127 131.839 19.6684 136.261 16.3983 135.666Z" fill="#92E3A9" stroke="#263238" stroke-miterlimit="10"/>
<path d="M16.3983 135.666L20.3957 131.844" stroke="#263238" stroke-width="0.5" stroke-miterlimit="10"/>
<path d="M16.6319 135.831C16.0761 135.881 15.516 135.812 14.9888 135.629C14.4616 135.446 13.9794 135.153 13.5742 134.769C12.6983 133.967 10.2669 129.529 11.8542 128.929C13.5848 128.255 17.5662 132.64 16.6319 135.831Z" fill="#92E3A9" stroke="#263238" stroke-miterlimit="10"/>
<path d="M16.6318 135.831L13.2502 131.451" stroke="#263238" stroke-width="0.5" stroke-miterlimit="10"/>
<path d="M36.5496 146.119L28.9743 219.096" stroke="#263238" stroke-width="2" stroke-miterlimit="10"/>
<path d="M30.6518 205.177L28.024 200.898" stroke="#263238" stroke-width="2" stroke-miterlimit="10"/>
<path d="M28.8257 202.182C28.9341 201.635 28.9238 201.071 28.7956 200.528C28.6674 199.985 28.4242 199.476 28.0825 199.034C27.3764 198.079 23.2198 195.196 22.4501 196.715C21.6113 198.366 25.5556 202.782 28.8257 202.182Z" fill="#92E3A9" stroke="#263238" stroke-miterlimit="10"/>
<path d="M28.8257 202.182L25.0513 198.562" stroke="#263238" stroke-width="0.5" stroke-miterlimit="10"/>
<path d="M32.754 184.924L30.1263 180.646" stroke="#263238" stroke-width="2" stroke-miterlimit="10"/>
<path d="M30.9067 181.93C31.0151 181.383 31.0048 180.819 30.8766 180.276C30.7484 179.733 30.5052 179.223 30.1635 178.782C29.4574 177.827 25.3008 174.944 24.5257 176.462C23.7082 178.113 27.6578 182.525 30.9067 181.93Z" fill="#92E3A9" stroke="#263238" stroke-miterlimit="10"/>
<path d="M30.9278 181.93L27.1534 178.31" stroke="#263238" stroke-width="0.5" stroke-miterlimit="10"/>
<path d="M31.8887 193.227L29.261 188.948" stroke="#263238" stroke-width="2" stroke-miterlimit="10"/>
<path d="M30.0626 190.233C30.1699 189.685 30.1586 189.121 30.0295 188.578C29.9004 188.035 29.6564 187.526 29.314 187.085C28.608 186.124 24.4461 183.247 23.6763 184.76C22.8482 186.411 26.7978 190.827 30.0626 190.233Z" fill="#92E3A9" stroke="#263238" stroke-miterlimit="10"/>
<path d="M30.0625 190.233L26.2881 186.607" stroke="#263238" stroke-width="0.5" stroke-miterlimit="10"/>
<path d="M34.1501 171.446L31.5224 167.162" stroke="#263238" stroke-width="2" stroke-miterlimit="10"/>
<path d="M32.324 168.452C32.4326 167.904 32.4229 167.339 32.2956 166.795C32.1684 166.252 31.9265 165.741 31.5861 165.298C30.8801 164.343 26.7181 161.466 25.9484 162.979C25.1096 164.63 29.0592 169.046 32.324 168.452Z" fill="#92E3A9" stroke="#263238" stroke-miterlimit="10"/>
<path d="M32.324 168.452L28.5496 164.826" stroke="#263238" stroke-width="0.5" stroke-miterlimit="10"/>
<path d="M35.5569 157.904L32.9292 153.625" stroke="#263238" stroke-width="2" stroke-miterlimit="10"/>
<path d="M33.7308 154.91C33.8396 154.362 33.8295 153.798 33.7013 153.255C33.5731 152.712 33.3297 152.203 32.9876 151.762C32.2869 150.801 28.1249 147.924 27.3552 149.436C26.5164 151.087 30.4607 155.504 33.7308 154.91Z" fill="#92E3A9" stroke="#263238" stroke-miterlimit="10"/>
<path d="M33.7308 154.91L29.9564 151.284" stroke="#263238" stroke-width="0.5" stroke-miterlimit="10"/>
<path d="M31.0924 200.255L34.543 196.603" stroke="#263238" stroke-width="2" stroke-miterlimit="10"/>
<path d="M33.4972 197.697C33.5031 197.14 33.6284 196.59 33.8647 196.086C34.1009 195.581 34.4427 195.133 34.8668 194.772C35.7533 193.975 40.4196 192.011 40.8602 193.657C41.3433 195.441 36.5709 198.955 33.4972 197.697Z" fill="#92E3A9" stroke="#263238" stroke-miterlimit="10"/>
<path d="M33.4972 197.697L38.1953 194.782" stroke="#263238" stroke-width="0.5" stroke-miterlimit="10"/>
<path d="M33.3592 178.411L36.8098 174.764" stroke="#263238" stroke-width="2" stroke-miterlimit="10"/>
<path d="M35.764 175.836C35.7698 175.278 35.8951 174.728 36.1313 174.222C36.3675 173.717 36.7093 173.268 37.1336 172.906C38.0201 172.115 42.6811 170.151 43.127 171.791C43.6101 173.601 38.8376 177.11 35.764 175.836Z" fill="#92E3A9" stroke="#263238" stroke-miterlimit="10"/>
<path d="M35.764 175.857L40.4621 172.943" stroke="#263238" stroke-width="0.5" stroke-miterlimit="10"/>
<path d="M34.3572 168.813L37.8078 165.166" stroke="#263238" stroke-width="2" stroke-miterlimit="10"/>
<path d="M36.7461 166.281C36.7539 165.723 36.8806 165.173 37.1177 164.667C37.3548 164.162 37.6968 163.713 38.121 163.35C39.0075 162.559 43.6685 160.595 44.1144 162.235C44.6028 164.003 39.8357 167.512 36.7461 166.281Z" fill="#92E3A9" stroke="#263238" stroke-miterlimit="10"/>
<path d="M36.7567 166.259L41.4601 163.345" stroke="#263238" stroke-width="0.5" stroke-miterlimit="10"/>
<path d="M35.8171 154.745L39.2677 151.093" stroke="#263238" stroke-width="2" stroke-miterlimit="10"/>
<path d="M38.2166 152.186C38.2245 151.629 38.3512 151.08 38.5883 150.575C38.8254 150.071 39.1674 149.623 39.5915 149.261C40.478 148.465 45.1389 146.501 45.5849 148.146C46.0679 149.93 41.2955 153.444 38.2166 152.186Z" fill="#92E3A9" stroke="#263238" stroke-miterlimit="10"/>
<path d="M38.2166 152.186L42.92 149.272" stroke="#263238" stroke-width="0.5" stroke-miterlimit="10"/>
<path d="M36.5709 145.71C36.5767 145.152 36.7019 144.602 36.9382 144.096C37.1744 143.591 37.5162 143.142 37.9405 142.78C38.827 141.989 43.4932 140.024 43.9339 141.665C44.4169 143.454 39.6445 146.963 36.5709 145.71Z" fill="#92E3A9" stroke="#263238" stroke-miterlimit="10"/>
<path d="M36.5709 145.71L41.269 142.795" stroke="#263238" stroke-width="0.5" stroke-miterlimit="10"/>
<path d="M36.7461 145.917C36.1922 145.852 35.6588 145.67 35.1816 145.381C34.7045 145.093 34.2948 144.705 33.9803 144.245C33.2849 143.284 31.8197 138.437 33.4972 138.172C35.3393 137.88 38.3386 142.992 36.7461 145.917Z" fill="#92E3A9" stroke="#263238" stroke-miterlimit="10"/>
<path d="M36.762 145.917L34.3572 140.937" stroke="#263238" stroke-width="0.5" stroke-miterlimit="10"/>
<path d="M27.8701 116.401V208.686" stroke="#263238" stroke-width="2" stroke-miterlimit="10"/>
<path d="M27.9445 194.814L24.892 190.827" stroke="#263238" stroke-width="2" stroke-miterlimit="10"/>
<path d="M25.821 192.022C25.872 191.467 25.8036 190.907 25.6205 190.381C25.4374 189.854 25.1437 189.373 24.7593 188.969C23.9577 188.088 19.5197 185.652 18.9198 187.239C18.2456 188.969 22.6305 192.951 25.821 192.022Z" fill="#92E3A9" stroke="#263238" stroke-miterlimit="10"/>
<path d="M25.821 192.022L21.6909 188.81" stroke="#263238" stroke-width="0.5" stroke-miterlimit="10"/>
<path d="M27.9445 177.471L24.892 173.484" stroke="#263238" stroke-width="2" stroke-miterlimit="10"/>
<path d="M25.821 174.679C25.872 174.124 25.8036 173.564 25.6205 173.038C25.4374 172.511 25.1437 172.03 24.7593 171.626C23.9577 170.745 19.5197 168.308 18.9198 169.896C18.2456 171.626 22.6305 175.608 25.821 174.679Z" fill="#92E3A9" stroke="#263238" stroke-miterlimit="10"/>
<path d="M25.821 174.679L21.6909 171.467" stroke="#263238" stroke-width="0.5" stroke-miterlimit="10"/>
<path d="M27.9445 157.107L24.892 153.121" stroke="#263238" stroke-width="2" stroke-miterlimit="10"/>
<path d="M25.821 154.32C25.8721 153.764 25.8038 153.204 25.6207 152.677C25.4376 152.149 25.1439 151.667 24.7593 151.263C23.9577 150.381 19.5197 147.95 18.9198 149.537C18.2456 151.263 22.6305 155.249 25.821 154.32Z" fill="#92E3A9" stroke="#263238" stroke-miterlimit="10"/>
<path d="M25.821 154.32L21.6909 151.103" stroke="#263238" stroke-width="0.5" stroke-miterlimit="10"/>
<path d="M27.9445 143.555L24.892 139.568" stroke="#263238" stroke-width="2" stroke-miterlimit="10"/>
<path d="M25.821 140.762C25.872 140.207 25.8036 139.648 25.6205 139.121C25.4374 138.595 25.1437 138.113 24.7593 137.71C23.9577 136.829 19.5197 134.392 18.9198 135.979C18.2456 137.71 22.6305 141.691 25.821 140.762Z" fill="#92E3A9" stroke="#263238" stroke-miterlimit="10"/>
<path d="M25.821 140.762L21.6909 137.551" stroke="#263238" stroke-width="0.5" stroke-miterlimit="10"/>
<path d="M27.9445 129.938L24.892 125.951" stroke="#263238" stroke-width="2" stroke-miterlimit="10"/>
<path d="M25.821 127.151C25.8721 126.595 25.8038 126.035 25.6207 125.507C25.4376 124.98 25.1439 124.498 24.7593 124.093C23.9577 123.217 19.5197 120.781 18.9198 122.368C18.2456 124.093 22.6305 128.059 25.821 127.151Z" fill="#92E3A9" stroke="#263238" stroke-miterlimit="10"/>
<path d="M25.821 127.151L21.6909 123.934" stroke="#263238" stroke-width="0.5" stroke-miterlimit="10"/>
<path d="M27.8754 200.107L30.9332 196.12" stroke="#263238" stroke-width="2" stroke-miterlimit="10"/>
<path d="M30.0042 197.32C29.9531 196.764 30.0214 196.204 30.2045 195.676C30.3876 195.149 30.6813 194.667 31.0659 194.262C31.8622 193.386 36.3002 190.95 36.9053 192.537C37.5742 194.262 33.1893 198.249 30.0042 197.32Z" fill="#92E3A9" stroke="#263238" stroke-miterlimit="10"/>
<path d="M30.0042 197.32L34.3784 193.933" stroke="#263238" stroke-width="0.5" stroke-miterlimit="10"/>
<path d="M27.8754 172.523L30.9332 168.542" stroke="#263238" stroke-width="2" stroke-miterlimit="10"/>
<path d="M30.0042 169.736C29.9531 169.181 30.0214 168.62 30.2045 168.093C30.3876 167.565 30.6813 167.083 31.0659 166.679C31.8622 165.803 36.3002 163.366 36.9053 164.953C37.5742 166.679 33.1893 170.665 30.0042 169.736Z" fill="#92E3A9" stroke="#263238" stroke-miterlimit="10"/>
<path d="M30.0042 169.736L34.3784 166.35" stroke="#263238" stroke-width="0.5" stroke-miterlimit="10"/>
<path d="M27.8754 158.912L30.9332 154.926" stroke="#263238" stroke-width="2" stroke-miterlimit="10"/>
<path d="M30.0042 156.12C29.9532 155.565 30.0215 155.005 30.2047 154.479C30.3878 153.952 30.6814 153.471 31.0659 153.067C31.8622 152.186 36.3002 149.75 36.9053 151.337C37.5742 153.068 33.1893 157.049 30.0042 156.12Z" fill="#92E3A9" stroke="#263238" stroke-miterlimit="10"/>
<path d="M30.0042 156.12L34.3784 152.738" stroke="#263238" stroke-width="0.5" stroke-miterlimit="10"/>
<path d="M27.8754 140.916L30.9332 136.929" stroke="#263238" stroke-width="2" stroke-miterlimit="10"/>
<path d="M30.0042 138.145C29.9531 137.589 30.0214 137.029 30.2045 136.501C30.3876 135.974 30.6813 135.492 31.0659 135.087C31.8622 134.211 36.3002 131.775 36.9053 133.362C37.5742 135.071 33.1893 139.058 30.0042 138.145Z" fill="#92E3A9" stroke="#263238" stroke-miterlimit="10"/>
<path d="M30.0042 138.129L34.3784 134.742" stroke="#263238" stroke-width="0.5" stroke-miterlimit="10"/>
<path d="M27.8754 126.769L30.9332 122.787" stroke="#263238" stroke-width="2" stroke-miterlimit="10"/>
<path d="M30.0042 123.982C29.9531 123.426 30.0214 122.866 30.2045 122.338C30.3876 121.811 30.6813 121.329 31.0659 120.924C31.8622 120.048 36.3002 117.612 36.9053 119.199C37.5742 120.924 33.1893 124.911 30.0042 123.982Z" fill="#92E3A9" stroke="#263238" stroke-miterlimit="10"/>
<path d="M30.0042 123.982L34.3784 120.595" stroke="#263238" stroke-width="0.5" stroke-miterlimit="10"/>
<path d="M27.7215 117.707C27.6704 117.151 27.7387 116.591 27.9218 116.063C28.1049 115.536 28.3986 115.054 28.7832 114.649C29.5848 113.773 34.0174 111.337 34.6226 112.924C35.265 114.649 30.9066 118.636 27.7215 117.707Z" fill="#92E3A9" stroke="#263238" stroke-miterlimit="10"/>
<path d="M27.6949 117.707L32.0692 114.32" stroke="#263238" stroke-width="0.5" stroke-miterlimit="10"/>
<path d="M27.9073 117.893C27.3497 117.887 26.8 117.761 26.2953 117.523C25.7906 117.286 25.3429 116.943 24.9823 116.518C24.1913 115.631 22.2324 110.965 23.8781 110.525C25.6618 110.041 29.1654 114.819 27.9073 117.893Z" fill="#92E3A9" stroke="#263238" stroke-miterlimit="10"/>
<path d="M27.9073 117.893L24.9982 113.19" stroke="#263238" stroke-width="0.5" stroke-miterlimit="10"/>
<path d="M31.6658 232.622H21.8927L20.6717 207.942H32.8867L31.6658 232.622Z" fill="#263238" stroke="#263238" stroke-miterlimit="10"/>
<path d="M171.398 15.6338V216.994C171.398 219.88 170.252 222.648 168.211 224.689C166.17 226.73 163.402 227.876 160.516 227.876H67.2067C64.3205 227.876 61.5525 226.73 59.5116 224.689C57.4707 222.648 56.3242 219.88 56.3242 216.994V15.6338C56.3242 12.7476 57.4707 9.97954 59.5116 7.93866C61.5525 5.89778 64.3205 4.75122 67.2067 4.75122H160.516C163.402 4.75122 166.17 5.89778 168.211 7.93866C170.252 9.97954 171.398 12.7476 171.398 15.6338Z" fill="white"/>
<path d="M171.398 16.7751C171.401 14.0085 170.447 11.3262 168.696 9.18384C162.942 11.9708 154.713 17.8952 144.054 30.2961C121.153 56.9239 114.129 121.476 87.0077 149.532C75.3979 161.545 64.7117 168.924 56.3242 173.421V215.826C56.3235 217.406 56.6341 218.971 57.2383 220.431C57.8425 221.891 58.7285 223.217 59.8456 224.335C60.9627 225.453 62.289 226.339 63.7488 226.944C65.2086 227.549 66.7732 227.86 68.3534 227.86H152.717C153.269 227.177 153.811 226.469 154.342 225.737C160.675 216.967 166.493 209.615 171.398 203.743V16.7751Z" fill="#D6D6D6"/>
<path d="M56.3242 16.7752V68.2365C65.6938 64.0587 77.0276 56.117 85.1391 41.046C93.3568 25.7785 103.937 13.3458 112.436 4.75124H68.3746C66.7936 4.74845 65.2275 5.05736 63.7659 5.6603C62.3044 6.26325 60.976 7.1484 59.8568 8.26513C58.7376 9.38186 57.8495 10.7083 57.2434 12.1685C56.6372 13.6287 56.3249 15.1941 56.3242 16.7752Z" fill="#D6D6D6"/>
<path d="M65.216 9.57671C65.216 10.941 63.6871 11.4347 63.6765 12.4752V12.5442H65.1682V13.006H63.1828V12.6185C63.1828 11.1534 64.7117 10.872 64.7117 9.59794C64.7117 9.13078 64.5577 8.88659 64.1808 8.88659C63.8039 8.88659 63.65 9.15202 63.65 9.55016V9.95362H63.1775V9.58201C63.1775 8.8919 63.4907 8.43005 64.1914 8.43005C64.8922 8.43005 65.216 8.88659 65.216 9.57671Z" fill="#263238"/>
<path d="M67.6951 9.5714V9.67757C67.719 9.869 67.6802 10.063 67.5845 10.2305C67.4888 10.398 67.3413 10.53 67.1642 10.6066C67.3422 10.6851 67.49 10.819 67.5856 10.9883C67.6813 11.1576 67.7197 11.3533 67.6951 11.5462V11.8966C67.6951 12.5867 67.3713 13.0379 66.6705 13.0379C65.9698 13.0379 65.6566 12.5867 65.6566 11.8966V11.5833H66.1291V11.9284C66.1291 12.3319 66.299 12.5814 66.6599 12.5814C67.0209 12.5814 67.1908 12.3425 67.1908 11.8806V11.5303C67.1908 11.0843 67.005 10.872 66.6228 10.8614H66.352V10.4048H66.6493C66.7268 10.4058 66.8035 10.3899 66.8742 10.3581C66.9448 10.3262 67.0077 10.2793 67.0582 10.2206C67.1088 10.162 67.146 10.0929 67.167 10.0184C67.1881 9.9438 67.1926 9.86553 67.1802 9.78905V9.58201C67.1802 9.11486 67.0156 8.87597 66.6493 8.87597C66.283 8.87597 66.1185 9.12548 66.1185 9.53424V9.76781H65.646V9.5714C65.646 8.88128 65.9698 8.43005 66.6599 8.43005C67.3501 8.43005 67.6951 8.88128 67.6951 9.5714Z" fill="#263238"/>
<path d="M68.6719 9.91113V10.5429H68.1888V9.91113H68.6719ZM68.6719 12.3743V13.006H68.1888V12.3743H68.6719Z" fill="#263238"/>
<path d="M69.6911 10.3199C69.758 10.2015 69.8564 10.104 69.9755 10.0384C70.0946 9.97274 70.2295 9.94154 70.3653 9.94826C70.9493 9.94826 71.2041 10.3729 71.2041 11.01V11.9071C71.2041 12.5972 70.875 13.0485 70.1848 13.0485C69.4947 13.0485 69.1709 12.5972 69.1709 11.9071V11.5992H69.6593V11.939C69.6593 12.3424 69.8239 12.5919 70.1901 12.5919C70.5564 12.5919 70.721 12.3424 70.721 11.939V11.0578C70.721 10.649 70.5564 10.4048 70.1901 10.4048C70.123 10.3989 70.0553 10.407 69.9914 10.4286C69.9276 10.4502 69.8688 10.4847 69.819 10.5301C69.7691 10.5755 69.7292 10.6307 69.7017 10.6923C69.6742 10.7539 69.6598 10.8205 69.6593 10.8879V10.994H69.1868L69.3142 8.47778H71.0979V8.92901H69.7655L69.6911 10.3199Z" fill="#263238"/>
<path d="M73.7204 9.56609V9.64572H73.2479V9.53424C73.2479 9.12548 73.0833 8.88659 72.717 8.88659C72.3507 8.88659 72.1862 9.13079 72.1862 9.61387V10.6331C72.2371 10.4832 72.3359 10.3543 72.4673 10.266C72.5987 10.1778 72.7555 10.1351 72.9135 10.1447C73.4974 10.1447 73.7575 10.5641 73.7575 11.2064V11.8966C73.7575 12.5867 73.4125 13.0379 72.6958 13.0379C71.9792 13.0379 71.6341 12.5867 71.6341 11.8966V9.59794C71.6341 8.88128 71.9579 8.43005 72.6958 8.43005C73.4337 8.43005 73.7204 8.87067 73.7204 9.56609ZM72.165 11.2701V11.9496C72.165 12.3531 72.3295 12.6026 72.6958 12.6026C73.0621 12.6026 73.2267 12.3531 73.2267 11.9496V11.2701C73.2267 10.8614 73.0515 10.6172 72.6958 10.6172C72.3401 10.6172 72.165 10.8508 72.165 11.2701Z" fill="#263238"/>
<path d="M144.372 9.76245H143.093V12.9582H144.372V9.76245Z" fill="#263238"/>
<path d="M146.076 9.12549H144.797V12.9583H146.076V9.12549Z" fill="#263238"/>
<path d="M147.78 8.66895H146.501V12.9583H147.78V8.66895Z" fill="#263238"/>
<path d="M149.484 7.87793H148.205V12.9582H149.484V7.87793Z" fill="#263238"/>
<path d="M165.299 12.8626H157.633V8.18579H165.299V12.8626ZM158.058 12.438H164.874V8.61579H158.058V12.438Z" fill="#263238"/>
<path d="M162.74 9.07239H158.695V11.9815H162.74V9.07239Z" fill="#263238"/>
<path d="M165.999 9.97485H165.033V11.079H165.999V9.97485Z" fill="#263238"/>
<path d="M154.819 11.8488C154.768 11.8491 154.716 11.8363 154.671 11.8116C153.11 10.8826 152.08 11.7426 152.017 11.7797C151.959 11.8295 151.885 11.8547 151.809 11.8497C151.734 11.8447 151.663 11.81 151.613 11.7532C151.565 11.6955 151.54 11.6213 151.545 11.5461C151.55 11.4709 151.584 11.4006 151.64 11.3497C151.698 11.302 153.015 10.1712 154.947 11.3179C155 11.3505 155.041 11.3995 155.064 11.4576C155.086 11.5156 155.09 11.5794 155.073 11.6394C155.056 11.6994 155.02 11.7523 154.971 11.79C154.921 11.8278 154.861 11.8484 154.798 11.8488H154.819Z" fill="#263238"/>
<path d="M155.398 10.8879C155.345 10.8895 155.293 10.8747 155.249 10.8455C152.993 9.5077 151.48 10.803 151.464 10.8189C151.41 10.8708 151.338 10.8998 151.263 10.8998C151.188 10.8998 151.115 10.8708 151.061 10.8189C151.008 10.7652 150.978 10.6927 150.978 10.6172C150.978 10.5416 151.008 10.4691 151.061 10.4155C151.061 10.4155 152.908 8.82289 155.52 10.3836C155.583 10.4156 155.632 10.4696 155.657 10.5352C155.682 10.6007 155.683 10.6734 155.658 10.7393C155.633 10.786 155.596 10.8248 155.55 10.8511C155.504 10.8774 155.451 10.8902 155.398 10.8879Z" fill="#263238"/>
<path d="M155.918 9.77308C155.868 9.77398 155.819 9.76113 155.775 9.73592C152.919 8.03186 150.997 9.63505 150.939 9.70407C150.885 9.75599 150.812 9.78496 150.737 9.78496C150.662 9.78496 150.59 9.75599 150.535 9.70407C150.509 9.67785 150.487 9.64648 150.472 9.61183C150.458 9.57719 150.45 9.53995 150.45 9.50234C150.45 9.46473 150.458 9.42749 150.472 9.39285C150.487 9.3582 150.509 9.32684 150.535 9.30061C150.535 9.30061 152.813 7.34706 156.04 9.26876C156.094 9.30139 156.135 9.35042 156.157 9.40843C156.18 9.46643 156.183 9.53027 156.166 9.59026C156.15 9.65025 156.114 9.70313 156.064 9.74091C156.015 9.77868 155.954 9.79929 155.892 9.79962L155.918 9.77308Z" fill="#263238"/>
<path d="M153.959 12.3318C153.961 12.4748 153.919 12.6149 153.84 12.7343C153.762 12.8538 153.649 12.9471 153.517 13.0026C153.386 13.058 153.24 13.0731 153.1 13.0458C152.96 13.0186 152.83 12.9502 152.729 12.8495C152.627 12.7487 152.558 12.6201 152.53 12.4799C152.502 12.3397 152.516 12.1943 152.57 12.0621C152.624 11.9298 152.717 11.8168 152.836 11.7372C152.955 11.6576 153.094 11.6151 153.238 11.6151C153.332 11.6144 153.426 11.6325 153.513 11.6682C153.601 11.7039 153.681 11.7565 153.748 11.8231C153.815 11.8898 153.868 11.969 153.904 12.0563C153.941 12.1436 153.959 12.2372 153.959 12.3318Z" fill="#263238"/>
<path d="M174.493 12.6822V19.5356H176.617V39.0127H174.493V43.4401H176.617V62.9173H174.493V67.3446H176.617V86.8218H174.493V219.94C174.495 221.607 174.169 223.257 173.532 224.798C172.896 226.338 171.962 227.738 170.784 228.918C169.606 230.097 168.208 231.033 166.668 231.671C165.128 232.309 163.478 232.638 161.811 232.638H65.9432C64.2776 232.639 62.6281 232.311 61.0892 231.674C59.5502 231.037 58.1518 230.103 56.974 228.925C55.7962 227.747 54.8621 226.349 54.225 224.81C53.5879 223.271 53.2604 221.621 53.2611 219.956V54.5934H51.7375V35.1162H53.2611V12.6822C53.2611 9.31867 54.5972 6.0929 56.9756 3.71453C59.354 1.33616 62.5797 0 65.9432 0H161.811C165.174 0.00140686 168.399 1.33801 170.777 3.71608C173.155 6.09415 174.492 9.3191 174.493 12.6822ZM141.325 4.75118L137.609 10.3199C137.055 11.14 136.307 11.8112 135.433 12.2741C134.558 12.737 133.582 12.9774 132.592 12.9742H95.1404C94.1508 12.9765 93.1758 12.7356 92.301 12.2728C91.4263 11.81 90.6786 11.1394 90.1238 10.3199L86.4078 4.75118H69.0063C65.6428 4.75118 62.417 6.08733 60.0386 8.46571C57.6603 10.8441 56.3241 14.0698 56.3241 17.4334V215.194C56.3297 218.554 57.6682 221.775 60.0458 224.15C62.4234 226.524 65.646 227.859 69.0063 227.86H158.721C162.085 227.86 165.311 226.524 167.689 224.146C170.067 221.767 171.403 218.541 171.403 215.178V17.4334C171.404 15.7677 171.077 14.1183 170.44 12.5793C169.802 11.0403 168.868 9.64194 167.69 8.46415C166.513 7.28636 165.114 6.35222 163.575 5.71513C162.036 5.07804 160.387 4.75048 158.721 4.75118H141.325Z" fill="#263238"/>
<path d="M56.3242 213.883V216.994C56.3242 219.88 57.4707 222.648 59.5116 224.689C61.5525 226.73 64.3205 227.876 67.2067 227.876H160.516C163.402 227.876 166.17 226.73 168.211 224.689C170.252 222.648 171.398 219.88 171.398 216.994V213.883H56.3242Z" fill="#263238" stroke="#263238" stroke-linecap="round" stroke-linejoin="round"/>
<path d="M66.1556 24.8016L57.8636 51.2065V58.7447C57.865 60.2301 57.3166 61.6634 56.3242 62.7686V24.8016H66.1556Z" fill="#263238" stroke="#263238" stroke-linecap="round" stroke-linejoin="round"/>
<path d="M66.2618 24.8016L58.007 51.1534V58.7447C58.0084 60.3437 58.6442 61.8767 59.7748 63.0074C60.9055 64.138 62.4385 64.7738 64.0375 64.7752H64.1224C65.7214 64.7738 67.2545 64.138 68.3851 63.0074C69.5158 61.8767 70.1516 60.3437 70.153 58.7447V51.2065L76.6029 24.8016H66.2618Z" fill="#263238" stroke="#263238" stroke-linecap="round" stroke-linejoin="round"/>
<path d="M76.6932 24.8016L70.2751 51.1534V58.7447C70.2765 60.3437 70.9123 61.8767 72.0429 63.0074C73.1736 64.138 74.7067 64.7738 76.3056 64.7752H76.3906C77.9863 64.7696 79.5147 64.1318 80.6411 63.0014C81.7674 61.8711 82.3999 60.3404 82.3999 58.7447V51.2065L87.013 24.8016H76.6932Z" fill="#263238" stroke="#263238" stroke-linecap="round" stroke-linejoin="round"/>
<path d="M87.1245 24.8016L82.5379 51.1534V58.7447C82.5379 60.3441 83.1733 61.878 84.3042 63.0089C85.4352 64.1399 86.969 64.7752 88.5684 64.7752H88.6481C90.2475 64.7752 91.7814 64.1399 92.9123 63.0089C94.0433 61.878 94.6786 60.3441 94.6786 58.7447V51.2065L97.4497 24.8016H87.1245Z" fill="#263238" stroke="#263238" stroke-linecap="round" stroke-linejoin="round"/>
<path d="M97.5506 24.8016L94.806 51.1534V58.7447C94.806 59.5366 94.962 60.3208 95.2651 61.0525C95.5681 61.7841 96.0124 62.4489 96.5723 63.0089C97.1323 63.5689 97.7971 64.0131 98.5288 64.3162C99.2605 64.6193 100.045 64.7752 100.837 64.7752H100.922C102.52 64.7738 104.054 64.138 105.184 63.0074C106.315 61.8767 106.951 60.3437 106.952 58.7447V51.2065L107.881 24.8016H97.5506Z" fill="#263238" stroke="#263238" stroke-linecap="round" stroke-linejoin="round"/>
<path d="M118.302 24.8016H107.982L107.069 51.1534V58.7447C107.07 60.3437 107.706 61.8767 108.837 63.0074C109.967 64.138 111.5 64.7738 113.099 64.7752H113.19C114.789 64.7738 116.322 64.138 117.452 63.0074C118.583 61.8767 119.219 60.3437 119.22 58.7447V51.1534L118.302 24.8016Z" fill="#263238" stroke="#263238" stroke-linecap="round" stroke-linejoin="round"/>
<path d="M128.733 24.8016H118.408L119.337 51.2065V58.7447C119.338 60.3437 119.974 61.8767 121.105 63.0074C122.235 64.138 123.769 64.7738 125.368 64.7752H125.452C127.051 64.7738 128.584 64.138 129.715 63.0074C130.846 61.8767 131.482 60.3437 131.483 58.7447V51.1534L128.733 24.8016Z" fill="#263238" stroke="#263238" stroke-linecap="round" stroke-linejoin="round"/>
<path d="M139.159 24.8016H128.839L131.61 51.2065V58.7447C131.61 60.3441 132.246 61.878 133.377 63.0089C134.508 64.1399 136.042 64.7752 137.641 64.7752H137.721C138.513 64.7752 139.297 64.6193 140.028 64.3162C140.76 64.0131 141.425 63.5689 141.985 63.0089C142.545 62.4489 142.989 61.7841 143.292 61.0525C143.595 60.3208 143.751 59.5366 143.751 58.7447V51.1534L139.159 24.8016Z" fill="#263238" stroke="#263238" stroke-linecap="round" stroke-linejoin="round"/>
<path d="M149.591 24.8016H139.265L143.879 51.2065V58.7447C143.879 60.3441 144.514 61.878 145.645 63.0089C146.776 64.1399 148.31 64.7752 149.909 64.7752H149.994C151.593 64.7738 153.126 64.138 154.257 63.0074C155.387 61.8767 156.023 60.3437 156.025 58.7447V51.1534L149.591 24.8016Z" fill="#263238" stroke="#263238" stroke-linecap="round" stroke-linejoin="round"/>
<path d="M160.022 24.8016H149.697L156.147 51.2065V58.7447C156.148 60.3437 156.784 61.8767 157.914 63.0074C159.045 64.138 160.578 64.7738 162.177 64.7752H162.262C163.861 64.7738 165.394 64.138 166.525 63.0074C167.655 61.8767 168.291 60.3437 168.293 58.7447V51.1534L160.022 24.8016Z" fill="#263238" stroke="#263238" stroke-linecap="round" stroke-linejoin="round"/>
<path d="M171.398 27.2807V63.9471C170.49 63.4159 169.737 62.6562 169.213 61.7434C168.69 60.8307 168.415 59.7968 168.415 58.7447V51.2065L160.123 24.8016H170.448L171.398 27.2807Z" fill="#263238" stroke="#263238" stroke-linecap="round" stroke-linejoin="round"/>
<path d="M57.8689 43.5941H45.7229L55.8357 17.1892H66.1609L57.8689 43.5941Z" fill="#92E3A9" stroke="#263238" stroke-linecap="round" stroke-linejoin="round"/>
<path d="M45.7229 43.541H57.8689V51.1323C57.8689 52.7317 57.2336 54.2656 56.1026 55.3965C54.9717 56.5275 53.4378 57.1628 51.8384 57.1628H51.7534C50.154 57.1628 48.6202 56.5275 47.4892 55.3965C46.3583 54.2656 45.7229 52.7317 45.7229 51.1323V43.541Z" fill="#92E3A9" stroke="#263238" stroke-linecap="round" stroke-linejoin="round"/>
<path d="M70.1371 43.5941H57.991L66.2618 17.1892H76.587L70.1371 43.5941Z" fill="white" stroke="#263238" stroke-linecap="round" stroke-linejoin="round"/>
<path d="M57.9804 43.541H70.137V51.1323C70.137 52.7317 69.5017 54.2656 68.3707 55.3965C67.2398 56.5275 65.7059 57.1628 64.1065 57.1628H64.0216C63.2287 57.1642 62.4434 57.0093 61.7105 56.7068C60.9776 56.4044 60.3116 55.9604 59.7505 55.4003C59.1894 54.8402 58.7442 54.1749 58.4405 53.4425C58.1367 52.7102 57.9804 51.9251 57.9804 51.1323V43.541Z" fill="white" stroke="#263238" stroke-linecap="round" stroke-linejoin="round"/>
<path d="M82.4052 43.5941H70.2592L76.6931 17.1892H87.0183L82.4052 43.5941Z" fill="#92E3A9" stroke="#263238" stroke-linecap="round" stroke-linejoin="round"/>
<path d="M70.2592 43.541H82.3999V51.1323C82.3999 52.7317 81.7645 54.2656 80.6336 55.3965C79.5026 56.5275 77.9687 57.1628 76.3693 57.1628H76.2844C74.685 57.1628 73.1511 56.5275 72.0202 55.3965C70.8892 54.2656 70.2538 52.7317 70.2538 51.1323V43.541H70.2592Z" fill="#92E3A9" stroke="#263238" stroke-linecap="round" stroke-linejoin="round"/>
<path d="M94.6733 43.5941H82.5326L87.1245 17.1892H97.4444L94.6733 43.5941Z" fill="white" stroke="#263238" stroke-linecap="round" stroke-linejoin="round"/>
<path d="M82.5326 43.541H94.6786V51.1323C94.6786 52.7317 94.0433 54.2656 92.9123 55.3965C91.7814 56.5275 90.2475 57.1628 88.6481 57.1628H88.5631C86.9637 57.1628 85.4298 56.5275 84.2989 55.3965C83.168 54.2656 82.5326 52.7317 82.5326 51.1323V43.541Z" fill="white" stroke="#263238" stroke-linecap="round" stroke-linejoin="round"/>
<path d="M106.947 43.5941H94.8007L97.5506 17.1892H107.876L106.947 43.5941Z" fill="#92E3A9" stroke="#263238" stroke-linecap="round" stroke-linejoin="round"/>
<path d="M94.8007 43.541H106.947V51.1323C106.947 52.7317 106.311 54.2656 105.18 55.3965C104.049 56.5275 102.516 57.1628 100.916 57.1628H100.831C99.2319 57.1628 97.698 56.5275 96.567 55.3965C95.4361 54.2656 94.8007 52.7317 94.8007 51.1323V43.541Z" fill="#92E3A9" stroke="#263238" stroke-linecap="round" stroke-linejoin="round"/>
<path d="M119.215 43.5941H107.069L107.982 17.1892H118.302L119.215 43.5941Z" fill="white" stroke="#263238" stroke-linecap="round" stroke-linejoin="round"/>
<path d="M107.069 43.541H119.215V51.1323C119.215 52.7308 118.58 54.2639 117.45 55.3946C116.321 56.5254 114.788 57.1614 113.19 57.1628H113.105C111.505 57.1628 109.971 56.5275 108.84 55.3965C107.71 54.2656 107.074 52.7317 107.074 51.1323V43.541H107.069Z" fill="white" stroke="#263238" stroke-linecap="round" stroke-linejoin="round"/>
<path d="M131.483 43.5941H119.337L118.408 17.1892H128.733L131.483 43.5941Z" fill="#92E3A9" stroke="#263238" stroke-linecap="round" stroke-linejoin="round"/>
<path d="M119.337 43.541H131.483V51.1323C131.483 52.7317 130.848 54.2656 129.717 55.3965C128.586 56.5275 127.052 57.1628 125.452 57.1628H125.368C123.768 57.1628 122.234 56.5275 121.103 55.3965C119.972 54.2656 119.337 52.7317 119.337 51.1323V43.541Z" fill="#92E3A9" stroke="#263238" stroke-linecap="round" stroke-linejoin="round"/>
<path d="M143.751 43.5941H131.605L128.839 17.1892H139.159L143.751 43.5941Z" fill="white" stroke="#263238" stroke-linecap="round" stroke-linejoin="round"/>
<path d="M131.61 43.541H143.756V51.1323C143.756 52.7317 143.121 54.2656 141.99 55.3965C140.859 56.5275 139.325 57.1628 137.726 57.1628H137.641C136.042 57.1628 134.508 56.5275 133.377 55.3965C132.246 54.2656 131.61 52.7317 131.61 51.1323V43.541Z" fill="white" stroke="#263238" stroke-linecap="round" stroke-linejoin="round"/>
<path d="M156.025 43.5941H143.879L139.265 17.1892H149.591L156.025 43.5941Z" fill="#92E3A9" stroke="#263238" stroke-linecap="round" stroke-linejoin="round"/>
<path d="M143.879 43.541H156.025V51.1323C156.025 52.7317 155.389 54.2656 154.258 55.3965C153.127 56.5275 151.593 57.1628 149.994 57.1628H149.909C149.117 57.1628 148.333 57.0068 147.601 56.7038C146.87 56.4007 146.205 55.9565 145.645 55.3965C145.085 54.8365 144.641 54.1717 144.338 53.4401C144.035 52.7084 143.879 51.9242 143.879 51.1323V43.541Z" fill="#92E3A9" stroke="#263238" stroke-linecap="round" stroke-linejoin="round"/>
<path d="M168.293 43.5941H156.147L149.697 17.1892H160.017L168.293 43.5941Z" fill="white" stroke="#263238" stroke-linecap="round" stroke-linejoin="round"/>
<path d="M156.147 43.541H168.293V51.1323C168.293 52.7317 167.657 54.2656 166.526 55.3965C165.395 56.5275 163.862 57.1628 162.262 57.1628H162.177C160.578 57.1628 159.044 56.5275 157.913 55.3965C156.782 54.2656 156.147 52.7317 156.147 51.1323V43.541Z" fill="white" stroke="#263238" stroke-linecap="round" stroke-linejoin="round"/>
<path d="M180.561 43.5941H168.415L160.123 17.1892H170.448L180.561 43.5941Z" fill="#92E3A9" stroke="#263238" stroke-linecap="round" stroke-linejoin="round"/>
<path d="M168.399 43.541H180.545V51.1323C180.545 51.9242 180.389 52.7084 180.086 53.4401C179.783 54.1717 179.339 54.8365 178.779 55.3965C178.219 55.9565 177.554 56.4007 176.822 56.7038C176.09 57.0068 175.306 57.1628 174.514 57.1628H174.429C172.83 57.1628 171.296 56.5275 170.165 55.3965C169.034 54.2656 168.399 52.7317 168.399 51.1323V43.541Z" fill="#92E3A9" stroke="#263238" stroke-linecap="round" stroke-linejoin="round"/>
<path d="M144.749 144.468H117.633C118.067 147.777 118.704 151.057 119.539 154.289C121.105 159.932 122.039 166.53 124.794 171.557C128.027 177.466 152.59 177.466 155.823 171.557C158.578 166.53 159.512 159.932 161.073 154.289C161.912 151.057 162.55 147.778 162.984 144.468H144.749Z" fill="white" stroke="#263238" stroke-linecap="round" stroke-linejoin="round"/>
<path d="M131.414 148.231V142.095C131.414 136.457 132.784 131.127 135.13 127.602C138.06 123.207 142.259 123.387 145.078 128.032L145.121 128.101C147.244 131.626 148.486 136.707 148.486 142.042V147.764" stroke="#263238" stroke-width="3" stroke-linecap="round" stroke-linejoin="round"/>
<path d="M130.092 146.809H133.277V152.261C133.277 152.542 133.165 152.812 132.966 153.011C132.767 153.21 132.497 153.322 132.216 153.322H131.154C130.872 153.322 130.602 153.21 130.403 153.011C130.204 152.812 130.092 152.542 130.092 152.261V146.809Z" fill="white" stroke="#263238" stroke-linecap="round" stroke-linejoin="round"/>
<path d="M146.814 146.809H149.999V152.261C149.999 152.542 149.887 152.812 149.688 153.011C149.489 153.21 149.219 153.322 148.938 153.322H147.876C147.594 153.322 147.324 153.21 147.125 153.011C146.926 152.812 146.814 152.542 146.814 152.261V146.809Z" fill="white" stroke="#263238" stroke-linecap="round" stroke-linejoin="round"/>
<path d="M143.066 183.799H136.308C135.627 183.799 134.974 183.528 134.492 183.046C134.01 182.565 133.739 181.911 133.739 181.23C133.739 180.548 134.01 179.895 134.492 179.413C134.974 178.931 135.627 178.66 136.308 178.66H143.066C143.748 178.66 144.401 178.931 144.883 179.413C145.365 179.895 145.636 180.548 145.636 181.23C145.636 181.911 145.365 182.565 144.883 183.046C144.401 183.528 143.748 183.799 143.066 183.799Z" fill="#92E3A9" stroke="#263238" stroke-linecap="round" stroke-linejoin="round"/>
<path d="M162.145 94.9652C162.142 99.0387 161.382 103.076 159.905 106.872L159.459 108.014C159.375 108.227 159.229 108.409 159.04 108.537C158.85 108.665 158.626 108.732 158.397 108.73H121.72C121.493 108.734 121.271 108.669 121.081 108.544C120.892 108.419 120.744 108.24 120.659 108.03L120.431 107.462C118.775 103.421 117.942 99.0913 117.98 94.7251C118.018 90.3589 118.927 86.0441 120.653 82.0335C120.738 81.8295 120.88 81.6549 121.064 81.5321C121.247 81.4092 121.463 81.3436 121.683 81.3434H158.429C158.649 81.3426 158.864 81.406 159.048 81.5258C159.232 81.6455 159.376 81.8165 159.464 82.0176C161.225 86.1077 162.137 90.5124 162.145 94.9652Z" fill="white" stroke="#263238" stroke-linecap="round" stroke-linejoin="round"/>
<path d="M128.393 82.6333L148.131 63.6445L150.891 85.8928" stroke="#263238" stroke-width="3" stroke-linecap="round" stroke-linejoin="round"/>
<path d="M148.131 63.6445C148.131 63.6445 159.629 71.3897 158.127 76.1356C156.624 80.8815 149.633 74.3891 148.131 63.6445Z" stroke="#263238" stroke-width="3" stroke-linecap="round" stroke-linejoin="round"/>
<path d="M155.966 89.7893C155.97 92.721 155.43 95.628 154.374 98.3627L154.055 99.1855C153.999 99.3404 153.896 99.4743 153.761 99.5692C153.627 99.6641 153.466 99.7155 153.301 99.7164H126.854C126.69 99.7152 126.53 99.6636 126.396 99.5687C126.262 99.4737 126.161 99.34 126.105 99.1855L125.941 98.7768C124.748 95.8668 124.148 92.7482 124.175 89.6034C124.202 86.4586 124.857 83.3509 126.1 80.4622C126.162 80.3169 126.266 80.1932 126.398 80.1063C126.53 80.0195 126.685 79.9734 126.843 79.9738H153.307C153.465 79.9727 153.62 80.0185 153.752 80.1055C153.884 80.1924 153.988 80.3165 154.05 80.4622C155.316 83.4085 155.969 86.5823 155.966 89.7893Z" fill="white" stroke="#263238" stroke-linecap="round" stroke-linejoin="round"/>
<path d="M147.382 92.1304C147.382 94.2007 144.308 95.8782 140.513 95.8782C136.717 95.8782 133.612 94.2007 133.612 92.1304C133.612 90.06 136.691 88.3825 140.513 88.3825C144.335 88.3825 147.382 90.06 147.382 92.1304Z" fill="white" stroke="#263238" stroke-linecap="round" stroke-linejoin="round"/>
<path d="M131.393 100.003C131.393 100.9 130.862 101.596 130.267 101.596C129.673 101.596 129.142 100.874 129.142 100.003C129.142 99.1324 129.646 98.3785 130.267 98.3785C130.888 98.3785 131.393 99.1058 131.393 100.003Z" fill="white" stroke="#263238" stroke-linecap="round" stroke-linejoin="round"/>
<path d="M149.882 101.627C150.504 101.627 151.008 100.9 151.008 100.003C151.008 99.1058 150.504 98.3785 149.882 98.3785C149.261 98.3785 148.757 99.1058 148.757 100.003C148.757 100.9 149.261 101.627 149.882 101.627Z" fill="white" stroke="#263238" stroke-linecap="round" stroke-linejoin="round"/>
<path d="M143.066 115.69H136.308C135.627 115.69 134.974 115.419 134.492 114.937C134.01 114.455 133.739 113.802 133.739 113.12C133.739 112.439 134.01 111.786 134.492 111.304C134.974 110.822 135.627 110.551 136.308 110.551H143.066C143.748 110.551 144.401 110.822 144.883 111.304C145.365 111.786 145.636 112.439 145.636 113.12C145.636 113.458 145.569 113.792 145.44 114.104C145.311 114.415 145.122 114.699 144.883 114.937C144.645 115.176 144.361 115.365 144.05 115.494C143.738 115.623 143.404 115.69 143.066 115.69Z" fill="#92E3A9" stroke="#263238" stroke-linecap="round" stroke-linejoin="round"/>
<path d="M108.529 97.439C108.519 100.82 107.755 104.157 106.294 107.207L105.572 108.73H67.3501L66.8192 107.669C65.1707 104.431 64.33 100.843 64.3688 97.2099C64.4076 93.577 65.3248 90.0074 67.0422 86.8059L67.3341 86.2485H105.556C107.487 89.6634 108.51 93.5161 108.529 97.439Z" fill="white" stroke="#263238" stroke-linecap="round" stroke-linejoin="round"/>
<path d="M75.504 92.226C76.2868 92.226 76.9214 91.5914 76.9214 90.8086C76.9214 90.0258 76.2868 89.3912 75.504 89.3912C74.7212 89.3912 74.0866 90.0258 74.0866 90.8086C74.0866 91.5914 74.7212 92.226 75.504 92.226Z" fill="white" stroke="#263238" stroke-linecap="round" stroke-linejoin="round"/>
<path d="M97.2798 92.226C98.0626 92.226 98.6972 91.5914 98.6972 90.8086C98.6972 90.0258 98.0626 89.3912 97.2798 89.3912C96.497 89.3912 95.8624 90.0258 95.8624 90.8086C95.8624 91.5914 96.497 92.226 97.2798 92.226Z" fill="white" stroke="#263238" stroke-linecap="round" stroke-linejoin="round"/>
<path d="M88.4994 86.2697H84.4118V108.73H88.4994V86.2697Z" fill="white" stroke="#263238" stroke-linecap="round" stroke-linejoin="round"/>
<path d="M75.4987 90.8086V85.8822C75.4987 81.3593 77.2346 77.0806 80.2127 74.2512C83.9287 70.7209 89.2373 70.8696 92.8418 74.5962L92.8949 74.6546C95.6857 77.7046 97.2051 81.7061 97.1418 85.8398V90.4317" stroke="#263238" stroke-width="3" stroke-linecap="round" stroke-linejoin="round"/>
<path d="M89.8319 115.69H83.0528C82.3723 115.688 81.7201 115.417 81.2394 114.935C80.7587 114.454 80.4888 113.801 80.4888 113.12C80.4888 112.44 80.7587 111.787 81.2394 111.306C81.7201 110.824 82.3723 110.553 83.0528 110.551H89.8319C90.5133 110.551 91.1668 110.822 91.6487 111.304C92.1305 111.786 92.4012 112.439 92.4012 113.12C92.4012 113.802 92.1305 114.455 91.6487 114.937C91.1668 115.419 90.5133 115.69 89.8319 115.69Z" fill="#92E3A9" stroke="#263238" stroke-linecap="round" stroke-linejoin="round"/>
<path d="M102.572 141.298H69.0117L62.2963 168.404C61.942 169.831 62.1612 171.341 62.9068 172.608C63.4027 173.453 64.1108 174.154 64.961 174.641C65.8111 175.128 66.7738 175.385 67.7535 175.385H103.799C104.779 175.385 105.741 175.128 106.591 174.641C107.442 174.154 108.15 173.453 108.646 172.608C109.392 171.341 109.613 169.832 109.261 168.404L102.572 141.298Z" fill="white" stroke="#263238" stroke-linecap="round" stroke-linejoin="round"/>
<path d="M72.51 147.605C73.454 147.605 74.2193 146.84 74.2193 145.896C74.2193 144.952 73.454 144.186 72.51 144.186C71.5659 144.186 70.8006 144.952 70.8006 145.896C70.8006 146.84 71.5659 147.605 72.51 147.605Z" fill="white" stroke="#263238" stroke-linecap="round" stroke-linejoin="round"/>
<path d="M98.7609 147.605C99.705 147.605 100.47 146.84 100.47 145.896C100.47 144.952 99.705 144.186 98.7609 144.186C97.8169 144.186 97.0516 144.952 97.0516 145.896C97.0516 146.84 97.8169 147.605 98.7609 147.605Z" fill="white" stroke="#263238" stroke-linecap="round" stroke-linejoin="round"/>
<path d="M72.51 145.896V139.955C72.51 134.498 74.6016 129.338 78.1955 125.935C82.6866 121.689 89.1046 121.853 93.4205 126.35L93.4842 126.419C96.7543 129.827 98.6335 134.742 98.6335 139.908V145.439" stroke="#263238" stroke-width="3" stroke-linecap="round" stroke-linejoin="round"/>
<path d="M89.6885 149.405H81.5876C81.2937 149.405 81.0025 149.348 80.7307 149.236C80.459 149.124 80.212 148.96 80.0039 148.752C79.7958 148.544 79.6307 148.298 79.518 148.026C79.4054 147.755 79.3474 147.464 79.3474 147.17C79.3474 146.876 79.4054 146.585 79.518 146.313C79.6307 146.042 79.7958 145.795 80.0039 145.588C80.212 145.38 80.459 145.215 80.7307 145.103C81.0025 144.991 81.2937 144.934 81.5876 144.935H89.6885C89.9822 144.934 90.2731 144.991 90.5446 145.104C90.8161 145.216 91.0627 145.38 91.2704 145.588C91.4781 145.796 91.6427 146.042 91.7547 146.314C91.8668 146.585 91.9241 146.876 91.9234 147.17C91.9241 147.463 91.8668 147.754 91.7547 148.026C91.6427 148.297 91.4781 148.544 91.2704 148.752C91.0627 148.959 90.8161 149.124 90.5446 149.236C90.2731 149.348 89.9822 149.405 89.6885 149.405Z" fill="white" stroke="#263238" stroke-linecap="round" stroke-linejoin="round"/>
<path d="M89.8319 183.799H83.0528C82.3723 183.798 81.7201 183.526 81.2394 183.044C80.7587 182.563 80.4888 181.91 80.4888 181.23C80.4888 180.549 80.7587 179.896 81.2394 179.415C81.7201 178.933 82.3723 178.662 83.0528 178.66H89.8319C90.5133 178.66 91.1668 178.931 91.6487 179.413C92.1305 179.895 92.4012 180.548 92.4012 181.23C92.4012 181.911 92.1305 182.565 91.6487 183.046C91.1668 183.528 90.5133 183.799 89.8319 183.799Z" fill="#92E3A9" stroke="#263238" stroke-linecap="round" stroke-linejoin="round"/>
<path d="M129.328 191.841H102.127C100.669 191.841 99.4882 193.023 99.4882 194.48V206.934C99.4882 208.391 100.669 209.572 102.127 209.572H129.328C130.785 209.572 131.966 208.391 131.966 206.934V194.48C131.966 193.023 130.785 191.841 129.328 191.841Z" fill="#92E3A9" stroke="#263238" stroke-linecap="round" stroke-linejoin="round"/>
<path d="M106.336 205.277V195.605H108.783C109.177 195.603 109.57 195.639 109.957 195.711C110.293 195.777 110.614 195.906 110.902 196.094C111.181 196.282 111.402 196.545 111.539 196.853C111.697 197.253 111.771 197.681 111.756 198.111C111.766 198.451 111.71 198.79 111.592 199.109C111.494 199.366 111.329 199.591 111.114 199.762C110.889 199.929 110.626 200.038 110.35 200.08C110.69 200.126 111.013 200.257 111.289 200.463C111.549 200.669 111.747 200.943 111.862 201.254C111.999 201.631 112.064 202.031 112.054 202.432C112.064 202.862 112.001 203.291 111.868 203.701C111.764 204.033 111.582 204.335 111.337 204.582C111.088 204.825 110.787 205.006 110.456 205.113C110.061 205.236 109.648 205.295 109.235 205.288L106.336 205.277ZM108.306 199.507H108.794C109.063 199.524 109.331 199.473 109.574 199.358C109.748 199.26 109.878 199.098 109.935 198.907C110.009 198.665 110.043 198.412 110.036 198.159C110.048 197.914 109.997 197.671 109.888 197.453C109.789 197.272 109.629 197.133 109.436 197.06C109.189 196.974 108.928 196.934 108.667 196.943H108.306V199.507ZM108.306 203.892H108.837C109.024 203.914 109.214 203.892 109.391 203.828C109.568 203.763 109.727 203.658 109.856 203.52C110.066 203.19 110.165 202.801 110.137 202.411C110.149 202.101 110.104 201.791 110.004 201.498C109.929 201.284 109.778 201.104 109.58 200.993C109.337 200.877 109.069 200.822 108.799 200.834H108.269L108.306 203.892Z" fill="#263238"/>
<path d="M115.913 205.405C115.32 205.438 114.729 205.31 114.204 205.033C113.805 204.788 113.504 204.413 113.349 203.972C113.175 203.413 113.093 202.831 113.105 202.246V195.605H115.053V202.506C115.052 202.741 115.069 202.975 115.106 203.207C115.132 203.413 115.214 203.608 115.345 203.77C115.418 203.846 115.506 203.905 115.604 203.942C115.703 203.98 115.808 203.995 115.913 203.987C116.019 203.996 116.126 203.98 116.226 203.943C116.326 203.905 116.417 203.846 116.492 203.77C116.623 203.609 116.704 203.413 116.725 203.207C116.757 202.975 116.773 202.741 116.773 202.506V195.605H118.716V202.22C118.742 202.812 118.668 203.404 118.498 203.972C118.351 204.424 118.048 204.809 117.644 205.06C117.11 205.332 116.511 205.452 115.913 205.405Z" fill="#263238"/>
<path d="M121.354 205.277V201.445L119.47 195.605H121.317L122.379 199.008L123.345 195.605H125.139L123.276 201.445V205.277H121.354Z" fill="#263238"/>
<path d="M199.608 69.0964C199.608 69.0964 197.485 71.7507 196.763 73.959C196.041 76.1674 196.396 77.6273 196.232 78.4501C196.067 79.2729 193.848 80.1011 193.848 80.4727C193.848 80.8443 196.141 82.9465 196.141 82.9465C196.141 82.9465 196.874 89.4601 197.607 89.7361C198.339 90.0122 200.909 89.5503 200.909 89.5503C200.909 89.5503 202.56 93.0381 202.745 93.6804C202.931 94.3228 202.745 97.0726 202.745 97.0726L207.608 91.4774V69.5529C207.608 69.5529 204.465 64.6956 199.608 69.0964Z" fill="white" stroke="#263238" stroke-linecap="round" stroke-linejoin="round"/>
<path d="M198.78 78.0414C198.78 78.5192 198.573 78.912 198.323 78.912C198.074 78.912 197.861 78.5192 197.861 78.0414C197.861 77.5636 198.068 77.1708 198.323 77.1708C198.578 77.1708 198.78 77.5583 198.78 78.0414Z" fill="#263238"/>
<path d="M197.495 83.8649C197.495 83.8649 198.87 84.2312 200.064 82.5802" stroke="#263238" stroke-linecap="round" stroke-linejoin="round"/>
<path d="M197.495 75.9764C197.637 75.8621 197.802 75.7782 197.978 75.73C198.154 75.6818 198.338 75.6703 198.519 75.6962C198.699 75.7221 198.873 75.7848 199.028 75.8805C199.184 75.9762 199.318 76.1028 199.422 76.2524" stroke="#263238" stroke-linecap="round" stroke-linejoin="round"/>
<path d="M203.181 191.411C203.181 191.411 206.191 219.738 205.835 221.819C205.479 223.9 203.292 227.834 202.119 229.108C200.946 230.382 198.536 230.844 198.764 231.417C198.992 231.99 205.702 232.479 206.053 232.479C206.403 232.479 209.981 226.698 209.981 226.698L210.719 225.922L209.869 232.479H211.021C211.021 232.479 213.145 227.021 213.145 224.723C213.145 222.424 212.226 219.568 211.69 219.414C211.154 219.26 211.382 207.597 212.651 199.39C213.92 191.183 212.768 185.163 212.306 181.697C211.844 178.23 214.504 166.663 214.96 166.084C215.417 165.506 200.277 161.922 200.277 161.922L203.181 191.411Z" fill="white" stroke="#263238" stroke-linecap="round" stroke-linejoin="round"/>
<path d="M200.293 161.922L203.181 191.411C203.181 191.411 204.847 207.098 205.554 215.985H211.425C211.469 210.432 211.882 204.888 212.662 199.39C213.936 191.178 212.779 185.163 212.317 181.697C211.855 178.23 214.514 166.663 214.971 166.084C215.427 165.506 200.293 161.922 200.293 161.922Z" fill="#263238" stroke="#263238" stroke-linecap="round" stroke-linejoin="round"/>
<path d="M210.002 226.676L210.74 225.901L209.891 232.457H211.043C211.043 232.457 213.166 227 213.166 224.701C213.129 223.352 212.892 222.016 212.465 220.736L211.653 222.631C211.313 223.422 206.472 229.84 205.909 230.18C205.532 230.403 202.692 230.233 200.813 230.09C199.751 230.679 198.636 231.024 198.796 231.417C199.029 231.995 205.734 232.479 206.084 232.479C206.435 232.479 210.002 226.676 210.002 226.676Z" fill="#263238" stroke="#263238" stroke-linecap="round" stroke-linejoin="round"/>
<path d="M205.787 219.17H211.589C211.527 218.851 211.49 218.528 211.478 218.204H205.723C205.745 218.544 205.766 218.867 205.787 219.17Z" fill="#263238"/>
<path d="M202.565 228.587C202.411 228.784 202.268 228.964 202.14 229.118C202.07 229.195 201.995 229.267 201.917 229.336L204.279 232.346L205.58 232.441L202.565 228.587Z" fill="#263238"/>
<path d="M205.07 224.144C204.922 224.479 204.763 224.824 204.593 225.163L207.863 230.021C208.054 229.729 208.245 229.437 208.431 229.145L205.07 224.144Z" fill="#263238"/>
<path d="M210.007 231.502L209.891 232.463H210.655L210.007 231.502Z" fill="#263238"/>
<path d="M199.597 156.948C199.597 156.948 198.323 177.88 199.135 180.773C199.948 183.666 206.764 202.05 207.804 207.597C208.707 212.375 209.195 219.048 209.195 219.048C209.195 219.048 207.114 226.565 206.541 227.834C205.968 229.102 205.15 230.61 204.11 231.072C203.069 231.534 202.262 230.955 202.491 231.884C202.719 232.813 206.886 232.691 208.277 232.457C209.668 232.224 210.358 232.346 211.048 231.534C211.738 230.721 212.439 228.879 213.129 227.818C213.819 226.756 214.286 226.199 214.286 226.199V232.213H215.443C215.443 232.213 217.063 225.392 216.834 224.118C216.606 222.844 215.215 218.22 215.215 218.22C215.215 218.22 214.637 210.591 214.865 204.46C215.093 198.328 215.927 194.745 214.52 190.7C213.113 186.655 210.469 179.021 210.469 179.021L214.982 159.013L199.597 156.948Z" fill="white" stroke="#263238" stroke-linecap="round" stroke-linejoin="round"/>
<path d="M214.859 204.502C215.093 198.376 215.921 194.788 214.514 190.743C213.108 186.697 210.464 179.064 210.464 179.064L214.976 159.056L199.581 156.975C199.581 156.975 198.307 177.906 199.12 180.8C199.932 183.693 206.748 202.076 207.788 207.624C208.319 210.496 208.723 214.037 208.946 216.415H215.114C214.934 213.75 214.7 208.749 214.859 204.502Z" fill="#263238" stroke="#263238" stroke-linecap="round" stroke-linejoin="round"/>
<path d="M216.176 228.805C216.564 226.905 216.935 224.786 216.818 224.133C216.781 223.937 216.712 223.645 216.627 223.316C215.718 223.545 214.83 223.852 213.973 224.234L211.669 219.414H215.523C215.401 218.995 215.3 218.655 215.236 218.448H209.147C209.179 218.83 209.195 219.048 209.195 219.048L209.094 219.414H210.629L213.155 224.723C212.984 224.831 212.819 224.95 212.662 225.078C211.775 225.843 211.096 227.059 210.395 228.189L207.645 224.473L207.295 225.62L209.838 229.055C209.478 229.614 209.026 230.107 208.5 230.514C208.307 230.651 208.098 230.765 207.879 230.854L206.175 228.603C206.015 228.917 205.84 229.224 205.644 229.522L206.87 231.141C205.947 231.277 205.007 231.261 204.088 231.093C203.027 231.555 202.241 230.976 202.469 231.905C202.698 232.834 206.302 232.723 207.921 232.526C208.043 232.526 208.155 232.5 208.256 232.479L208.707 232.415L209.015 232.372C209.917 232.261 210.475 232.203 211.027 231.555C211.355 231.133 211.636 230.678 211.865 230.196C212.28 229.389 212.694 228.481 213.108 227.855C213.522 227.228 213.819 226.83 214.021 226.56L214.265 226.236V232.25H215.422C215.422 232.25 215.804 230.658 216.171 228.832L216.176 228.805Z" fill="#263238"/>
<path d="M218.533 97.5557C218.533 97.5557 221.978 117.277 222.116 121.412C222.254 125.548 222.944 127.894 222.806 128.998C222.668 130.103 219.775 132.035 219.775 132.035L218.533 97.5557Z" fill="white" stroke="#263238" stroke-linecap="round" stroke-linejoin="round"/>
<path d="M207.767 89.8371C207.767 89.8371 202.538 96.441 201.439 97.1735C200.341 97.9061 197.771 98.0017 198.137 99.3766C198.441 100.391 198.841 101.374 199.332 102.312C199.332 102.312 195.297 107.907 195.934 110.275C196.571 112.643 197.771 122.219 197.771 122.219L198.414 133.32C198.414 133.32 196.396 136.988 197.585 138.273C198.775 139.557 217.126 142.031 220.152 142.121C223.178 142.212 221.803 138.273 221.251 135.793C220.295 130.469 219.957 125.052 220.242 119.65C220.609 112.68 220.975 106.628 219.51 100.3C218.045 93.9725 219.324 93.7867 215.199 91.1271C211.074 88.4675 207.767 89.8371 207.767 89.8371Z" fill="white" stroke="#263238" stroke-linecap="round" stroke-linejoin="round"/>
<path d="M206.265 113.412L203.993 110.801" stroke="#263238" stroke-linecap="round" stroke-linejoin="round"/>
<path d="M202.092 99.3448C203.091 97.9665 204.354 96.8007 205.808 95.9154" stroke="#263238" stroke-linecap="round" stroke-linejoin="round"/>
<path d="M200.924 101.484C201.102 100.998 201.329 100.532 201.604 100.093" stroke="#263238" stroke-linecap="round" stroke-linejoin="round"/>
<path d="M196.853 69.0062C196.853 69.0062 198.504 72.3081 199.974 74.6014C201.445 76.8947 204.927 81.6619 204.927 81.6619L203.919 94.5033C203.919 94.5033 207.953 96.4303 210.889 96.6267C213.824 96.8231 217.673 95.8941 219.144 95.5279C219.836 95.3299 220.548 95.2071 221.267 95.1616C221.267 95.1616 219.526 87.0925 219.436 83.3287C219.345 79.565 219.892 70.7633 217.142 67.6472C214.392 64.5311 211.621 63.411 205.028 64.3559C198.435 65.3008 195.202 66.251 196.853 69.0062Z" fill="#263238" stroke="#263238" stroke-linecap="round" stroke-linejoin="round"/>
<path d="M208.362 138.644L194.114 137.269C194.114 137.269 188.805 160.457 190.398 161.54C191.99 162.623 214.286 168.123 217.907 168.022C221.527 167.921 223.311 167.629 224.197 166.546C225.084 165.463 225.864 164.385 225.668 160.85C225.471 157.314 224.075 140.412 224.075 140.412L208.362 138.644Z" fill="#92E3A9" stroke="#263238" stroke-linecap="round" stroke-linejoin="round"/>
<path d="M192.149 145.046L199.13 146.32C199.53 146.4 199.883 146.63 200.118 146.963C200.353 147.296 200.452 147.706 200.394 148.109L199.974 149.638C199.947 149.836 199.959 150.038 200.01 150.231C200.062 150.424 200.151 150.605 200.273 150.763C200.395 150.921 200.548 151.053 200.721 151.152C200.895 151.251 201.087 151.313 201.285 151.337L211.775 153.237C212.155 153.281 212.538 153.179 212.846 152.951C213.153 152.724 213.363 152.388 213.432 152.011L213.962 148.991C214.034 148.587 214.258 148.227 214.588 147.985C214.919 147.743 215.329 147.637 215.735 147.69L222.982 148.587L222.684 140.529" stroke="#263238" stroke-linecap="round" stroke-linejoin="round"/>
<path d="M222.806 149.357C222.806 149.357 222.706 161.832 222.806 164.093C222.907 166.355 220.842 167.533 220.842 167.533" stroke="#263238" stroke-linecap="round" stroke-linejoin="round"/>
<path d="M202.273 146.703C202.815 146.703 203.255 146.263 203.255 145.72C203.255 145.178 202.815 144.738 202.273 144.738C201.73 144.738 201.291 145.178 201.291 145.72C201.291 146.263 201.73 146.703 202.273 146.703Z" stroke="#263238" stroke-linecap="round" stroke-linejoin="round"/>
<path d="M212.879 147.17C212.879 146.975 212.822 146.786 212.714 146.624C212.606 146.463 212.453 146.337 212.273 146.262C212.094 146.188 211.896 146.169 211.706 146.206C211.515 146.244 211.34 146.338 211.203 146.475C211.066 146.613 210.972 146.788 210.934 146.978C210.896 147.169 210.916 147.366 210.99 147.546C211.064 147.725 211.19 147.878 211.352 147.986C211.513 148.094 211.703 148.152 211.897 148.152C212.026 148.152 212.154 148.126 212.273 148.077C212.392 148.028 212.501 147.955 212.592 147.864C212.683 147.773 212.755 147.665 212.805 147.546C212.854 147.426 212.879 147.299 212.879 147.17Z" stroke="#263238" stroke-linecap="round" stroke-linejoin="round"/>
<path d="M202.273 145.72H202.188C202.125 145.71 202.065 145.688 202.011 145.654C201.958 145.62 201.911 145.576 201.875 145.524C201.838 145.472 201.812 145.414 201.798 145.352C201.785 145.29 201.784 145.226 201.795 145.163L203.664 130.219C203.687 130.095 203.759 129.984 203.863 129.911C203.967 129.839 204.096 129.81 204.221 129.832C204.346 129.855 204.458 129.927 204.531 130.031C204.604 130.135 204.634 130.264 204.614 130.389L202.745 145.333C202.723 145.442 202.664 145.54 202.578 145.611C202.492 145.682 202.384 145.72 202.273 145.72Z" fill="#92E3A9" stroke="#263238" stroke-linecap="round" stroke-linejoin="round"/>
<path d="M206.918 104.584L205.994 123.695C207.503 124.35 208.726 125.526 209.439 127.008C210.501 129.391 210.894 133.5 210.894 133.5C210.894 133.5 213.548 134.296 214.345 133.5C215.141 132.704 217.53 110.705 217.392 104.473" fill="white"/>
<path d="M206.918 104.584L205.994 123.695C207.503 124.35 208.726 125.526 209.439 127.008C210.501 129.391 210.894 133.5 210.894 133.5C210.894 133.5 213.548 134.296 214.345 133.5C215.141 132.704 217.53 110.705 217.392 104.473" stroke="#263238" stroke-linecap="round" stroke-linejoin="round"/>
<path d="M207.279 122.336C207.279 122.336 204.725 122.628 205.023 123.223C205.861 125.112 206.328 127.145 206.398 129.211C206.447 130.428 206.344 131.646 206.09 132.837C207.281 133.414 208.525 133.874 209.806 134.211C211.77 134.705 214.69 135.379 214.313 133.468C213.936 131.557 213.341 127.04 211.658 124.879C210.539 123.548 208.99 122.649 207.279 122.336Z" fill="white" stroke="#263238" stroke-linecap="round" stroke-linejoin="round"/>
<path d="M205.994 123.674C205.994 123.674 184.388 116.911 183.311 117.442C182.298 118.001 181.344 118.659 180.46 119.406C180.46 119.406 178.103 118.126 177.71 118.424C177.317 118.721 176.532 121.269 176.924 121.566C177.317 121.864 180.46 123.923 181.145 123.828C181.83 123.732 184.585 120.192 184.585 120.192C184.585 120.192 204.922 133.044 206.09 132.837C207.258 132.63 209.041 129.89 208.351 127.528C207.897 126.068 207.087 124.743 205.994 123.674Z" fill="white" stroke="#263238" stroke-linecap="round" stroke-linejoin="round"/>
<path d="M184.686 117.914C184.686 117.914 183.703 116.852 182.52 117.128C181.336 117.404 180.46 119.39 180.46 119.39C180.46 119.39 177.514 120.568 178.198 120.982C178.883 121.397 180.359 120.786 180.752 120.685C181.145 120.584 183.21 119.623 183.21 119.623" fill="white"/>
<path d="M184.686 117.914C184.686 117.914 183.703 116.852 182.52 117.128C181.336 117.404 180.46 119.39 180.46 119.39C180.46 119.39 177.514 120.568 178.198 120.982C178.883 121.397 180.359 120.786 180.752 120.685C181.145 120.584 183.21 119.623 183.21 119.623" stroke="#263238" stroke-linecap="round" stroke-linejoin="round"/>
<path d="M212.094 147.478H212.051C211.988 147.472 211.926 147.453 211.87 147.423C211.813 147.393 211.763 147.352 211.723 147.303C211.682 147.254 211.652 147.197 211.634 147.136C211.615 147.074 211.609 147.01 211.616 146.947C211.616 146.809 212.869 132.757 211.441 128.579C210.082 124.587 205.07 123.223 205.023 123.217C204.757 123.17 204.492 123.398 204.545 123.138C204.565 123.016 204.631 122.906 204.73 122.832C204.829 122.757 204.953 122.724 205.076 122.74C205.309 122.777 210.783 123.722 212.333 128.266C213.824 132.635 212.609 146.448 212.556 147.032C212.547 147.15 212.495 147.26 212.409 147.342C212.324 147.425 212.212 147.473 212.094 147.478Z" fill="#92E3A9" stroke="#263238" stroke-linecap="round" stroke-linejoin="round"/>
</svg>
