<svg width="20" height="19" viewBox="0 0 20 19" fill="none" xmlns="http://www.w3.org/2000/svg">
<path d="M2.30713 18.6187C1.75713 18.6187 1.2863 18.4229 0.894629 18.0312C0.502962 17.6395 0.307129 17.1687 0.307129 16.6187V2.61871C0.307129 2.06871 0.502962 1.59787 0.894629 1.20621C1.2863 0.814539 1.75713 0.618706 2.30713 0.618706H16.3071C16.8571 0.618706 17.328 0.814539 17.7196 1.20621C18.1113 1.59787 18.3071 2.06871 18.3071 2.61871V5.11871H16.3071V2.61871H2.30713V16.6187H16.3071V14.1187H18.3071V16.6187C18.3071 17.1687 18.1113 17.6395 17.7196 18.0312C17.328 18.4229 16.8571 18.6187 16.3071 18.6187H2.30713ZM10.3071 14.6187C9.75713 14.6187 9.2863 14.4229 8.89463 14.0312C8.50296 13.6395 8.30713 13.1687 8.30713 12.6187V6.61871C8.30713 6.06871 8.50296 5.59787 8.89463 5.20621C9.2863 4.81454 9.75713 4.61871 10.3071 4.61871H17.3071C17.8571 4.61871 18.328 4.81454 18.7196 5.20621C19.1113 5.59787 19.3071 6.06871 19.3071 6.61871V12.6187C19.3071 13.1687 19.1113 13.6395 18.7196 14.0312C18.328 14.4229 17.8571 14.6187 17.3071 14.6187H10.3071ZM17.3071 12.6187V6.61871H10.3071V12.6187H17.3071ZM13.3071 11.1187C13.7238 11.1187 14.078 10.9729 14.3696 10.6812C14.6613 10.3895 14.8071 10.0354 14.8071 9.61871C14.8071 9.20204 14.6613 8.84787 14.3696 8.55621C14.078 8.26454 13.7238 8.11871 13.3071 8.11871C12.8905 8.11871 12.5363 8.26454 12.2446 8.55621C11.953 8.84787 11.8071 9.20204 11.8071 9.61871C11.8071 10.0354 11.953 10.3895 12.2446 10.6812C12.5363 10.9729 12.8905 11.1187 13.3071 11.1187Z" />
</svg>
