<svg width="10" height="8" viewBox="0 0 10 8" fill="none" xmlns="http://www.w3.org/2000/svg">
<path d="M2.50008 7.33329C2.15286 7.33329 1.85772 7.21176 1.61466 6.96871C1.37161 6.72565 1.25008 6.43051 1.25008 6.08329H0.416748V1.49996C0.416748 1.27079 0.498345 1.07461 0.66154 0.911418C0.824734 0.748223 1.02091 0.666626 1.25008 0.666626H7.08342V2.33329H8.33342L9.58342 3.99996V6.08329H8.75008C8.75008 6.43051 8.62855 6.72565 8.3855 6.96871C8.14244 7.21176 7.8473 7.33329 7.50008 7.33329C7.15286 7.33329 6.85772 7.21176 6.61467 6.96871C6.37161 6.72565 6.25008 6.43051 6.25008 6.08329H3.75008C3.75008 6.43051 3.62855 6.72565 3.3855 6.96871C3.14244 7.21176 2.8473 7.33329 2.50008 7.33329ZM2.50008 6.49996C2.61814 6.49996 2.7171 6.46003 2.79696 6.38017C2.87682 6.30031 2.91675 6.20135 2.91675 6.08329C2.91675 5.96524 2.87682 5.86628 2.79696 5.78642C2.7171 5.70656 2.61814 5.66663 2.50008 5.66663C2.38203 5.66663 2.28307 5.70656 2.20321 5.78642C2.12335 5.86628 2.08341 5.96524 2.08341 6.08329C2.08341 6.20135 2.12335 6.30031 2.20321 6.38017C2.28307 6.46003 2.38203 6.49996 2.50008 6.49996ZM1.25008 5.24996H1.58341C1.70147 5.12496 1.83689 5.02426 1.98966 4.94788C2.14244 4.87149 2.31258 4.83329 2.50008 4.83329C2.68758 4.83329 2.85772 4.87149 3.0105 4.94788C3.16328 5.02426 3.29869 5.12496 3.41675 5.24996H6.25008V1.49996H1.25008V5.24996ZM7.50008 6.49996C7.61814 6.49996 7.7171 6.46003 7.79696 6.38017C7.87682 6.30031 7.91675 6.20135 7.91675 6.08329C7.91675 5.96524 7.87682 5.86628 7.79696 5.78642C7.7171 5.70656 7.61814 5.66663 7.50008 5.66663C7.38203 5.66663 7.28307 5.70656 7.20321 5.78642C7.12335 5.86628 7.08342 5.96524 7.08342 6.08329C7.08342 6.20135 7.12335 6.30031 7.20321 6.38017C7.28307 6.46003 7.38203 6.49996 7.50008 6.49996ZM7.08342 4.41663H8.85425L7.91675 3.16663H7.08342V4.41663Z"/>
</svg>
