<svg width="18" height="12" viewBox="0 0 18 12" fill="none" xmlns="http://www.w3.org/2000/svg">
<path d="M6.34453 10.9711C5.95793 11.3577 5.33113 11.3577 4.94453 10.9711L0.705192 6.73176C0.119405 6.14597 0.119405 5.19622 0.705191 4.61044L4.94453 0.371097C5.33113 -0.0155027 5.95793 -0.0155032 6.34453 0.371096V0.371096C6.73113 0.757696 6.73113 1.3845 6.34453 1.7711L5.99012 2.12551C5.05073 3.0649 5.71604 4.6711 7.04453 4.6711H14.1445C14.973 4.6711 15.6445 3.99952 15.6445 3.1711V1.6711C15.6445 1.11881 16.0922 0.671096 16.6445 0.671096V0.671096C17.1968 0.671096 17.6445 1.11881 17.6445 1.6711V5.1711C17.6445 5.99952 16.973 6.6711 16.1445 6.6711H7.04453C5.71604 6.6711 5.05073 8.2773 5.99012 9.21668L6.34453 9.5711C6.73113 9.9577 6.73113 10.5845 6.34453 10.9711V10.9711Z" />
</svg>
